<?xml version="1.0" encoding="UTF-8"?>
<svg width="222px" height="222px" viewBox="0 0 222 222" version="1.1" xmlns="http://www.w3.org/2000/svg" xmlns:xlink="http://www.w3.org/1999/xlink">
    <!-- Generator: Sketch 45.2 (43514) - http://www.bohemiancoding.com/sketch -->
    <title>Group 11</title>
    <desc>Created with Sketch.</desc>
    <defs>
        <rect id="path-1" x="22" y="38" width="86.7367467" height="149" rx="17"></rect>
        <rect id="path-2" x="118.154918" y="37" width="79.8450817" height="151.606735" rx="17"></rect>
    </defs>
    <g id="Duolingo-Nudge-Icons" stroke="none" stroke-width="1" fill="none" fill-rule="evenodd">
        <g id="Group-11">
            <rect id="Rectangle" fill="#4DB8EC" x="0.550439995" y="0.280275516" width="221.425627" height="220.852739"></rect>
            <g id="Rectangle-12">
                <use fill="#FFFFFF" fill-rule="evenodd" xlink:href="#path-1"></use>
                <rect stroke="#FFFFFF" stroke-width="1" x="22.5" y="38.5" width="85.7367467" height="148" rx="17"></rect>
            </g>
            <mask id="mask-3" fill="white">
                <use xlink:href="#path-2"></use>
            </mask>
            <use id="Rectangle-11" stroke="#FFFFFF" stroke-width="4" fill="#FFFFFF" xlink:href="#path-2"></use>
            <g id="Duolingo-owl" mask="url(#mask-3)">
                <g transform="translate(72.000000, 47.000000)">
                    <g transform="translate(0.000000, 0.047899)">
                        <g id="Group" transform="translate(0.565721, 0.000000)" fill-rule="nonzero">
                            <path d="M46.3872323,0 C59.0213188,0 62.0561547,16.8600115 86.9526067,16.8600115 C102.683483,16.8600115 103.550831,10.3274105 110.79939,10.3274105 C113.773157,10.3274105 115.437051,16.0519643 115.437051,19.8467738 C115.437051,34.8408341 111.604785,51.6388245 114.082925,51.6388245 C117.357609,51.6388245 130.615656,43.0533228 134.023097,43.0533228 C137.306632,43.0533228 137.182725,45.6041649 137.182725,47.0350818 C137.182725,48.4659987 138.173981,73.3515494 104.665994,92.9520105 C103.17911,93.8203069 96.1164128,124.928353 71.0358704,124.928353 C54.3146237,124.928353 41.5566302,115.846682 36.7260282,94.0683916 C35.7347724,89.5940073 0,75.4053361 0,44.2352691 C-1.25774433e-14,37.3916762 1.73407815,33.6588879 4.33523964,33.6588879 C10.9002738,33.6588879 25.0206245,44.7952316 31.0902963,44.7952316 C36.3545728,44.7952316 35.4872239,33.2849888 35.4872239,29.8011712 C35.6111309,26.2544464 35.3013635,6.2955272e-15 46.3874978,6.2955272e-15 L46.3872323,0 Z" id="Shape" fill="#78C800"></path>
                            <path d="M100.975336,25.3524913 C100.612466,24.9812503 102.577277,24.11384 102.577277,23.742599 C102.577277,23.5565355 102.27636,23.6185566 101.904639,23.6185566 C99.4973031,23.6185566 94.8153895,27.0864259 94.1958546,27.0864259 C93.8949377,27.0864259 93.4612632,27.1484471 93.4612632,26.715185 C93.4612632,25.7237323 96.7890506,24.857208 94.505622,24.857208 C92.231044,24.857208 88.7793496,27.8297939 85.2639316,27.8297939 C77.9304086,27.8297939 72.076689,22.0706855 72.076689,23.4945143 C72.076689,23.9897976 72.9387275,24.7951868 73.4936538,25.8477746 C73.4936538,25.8477746 73.8016511,27.3956458 73.1856564,26.7763201 C66.4681281,20.026645 59.7514849,18.4167527 59.7514849,18.4167527 C59.7514849,18.4167527 59.2585121,18.4167527 59.2585121,18.6648373 C59.2585121,19.4073193 60.7374304,20.4599072 60.7374304,20.770013 C60.7374304,21.0792328 60.552455,21.2652963 60.2444576,21.2652963 C58.8266078,21.2652963 57.7795938,18.540795 52.0480111,18.540795 C43.3585917,18.540795 41.0176349,32.2262087 41.0176349,43.496341 C41.0176349,59.4118587 51.247041,64.4896204 59.6895314,64.4896204 C66.4070597,64.4896204 73.5556073,60.5264677 76.5745123,54.7053381 L85.5108605,55.3866849 C85.5108605,55.3866849 89.8856619,63.6842312 97.7095025,63.6842312 C105.108519,63.6842312 111.51628,58.9785966 111.51628,42.753859 C111.33042,25.6617111 106.89632,24.9192291 104.612891,24.9192291 C102.338313,24.9192291 101.780732,26.0958593 100.975336,25.3524913 L100.975336,25.3524913 Z" id="Shape" fill="#8EE000"></path>
                            <path d="M58.4132895,59.1735202 C64.7679474,59.1735202 69.9189375,52.8269827 69.9189375,44.9972533 C69.9189375,37.1675238 64.7679474,30.8209863 58.4132895,30.8209863 C52.0586317,30.8209863 46.9076416,37.1675238 46.9076416,44.9972533 C46.9076416,52.8269827 52.0586317,59.1735202 58.4132895,59.1735202 Z M107.064479,46.1960338 C106.710459,53.0227924 102.267509,58.470909 97.1696221,58.2830735 C92.071735,58.0952379 88.1677801,52.3963786 88.5315356,45.5705061 C88.8855556,38.7437475 93.3285058,33.2956309 98.4263928,33.4834664 C103.586233,33.6092808 107.42735,39.3081401 107.064479,46.1960338 L107.064479,46.1960338 Z" id="Shape" fill="#FFFFFF"></path>
                            <path d="M58.4132895,52.9714034 C61.8348922,52.9714034 64.6086384,49.4016422 64.6086384,44.9972533 C64.6086384,40.5928643 61.8348922,37.0231031 58.4132895,37.0231031 C54.9916868,37.0231031 52.2179406,40.5928643 52.2179406,44.9972533 C52.2179406,49.4016422 54.9916868,52.9714034 58.4132895,52.9714034 Z M102.648081,46.1570491 C102.347164,50.0493204 99.7451171,53.0892437 96.8421536,52.9678594 C93.9480406,52.8464751 91.770818,49.5620112 92.071735,45.6094908 C92.3726519,41.7172195 94.9746985,38.6772962 97.8776619,38.7986805 C100.771775,38.9200648 102.887044,42.2045287 102.648081,46.1570491 Z" id="Shape" fill="#3F3F3F"></path>
                            <path d="M73.5219754,59.6882959 C73.5219754,66.4804998 72.7918092,74.9410732 76.6568219,74.933985 C81.4307807,74.9260109 80.5820179,67.602197 80.5209495,67.5401758 C80.5209495,67.4781546 73.5219754,59.6882959 73.5219754,59.6882959 L73.5219754,59.6882959 Z" id="Shape" fill="#71B200"></path>
                            <path d="M53.5455154,42.3392032 C55.2563167,42.3392032 56.6431898,40.9508151 56.6431898,39.2381448 C56.6431898,37.5254745 55.2563167,36.1370864 53.5455154,36.1370864 C51.834714,36.1370864 50.4478409,37.5254745 50.4478409,39.2381448 C50.4478409,40.9508151 51.834714,42.3392032 53.5455154,42.3392032 Z M96.4704327,41.798733 C96.5323862,43.494569 95.4083729,44.929916 93.9126386,44.9945952 C92.4700074,45.0601604 91.2220871,43.6903786 91.1601336,41.9936567 C91.0981802,40.2978208 92.2221935,38.8624737 93.7179277,38.7977945 C95.1605589,38.7322293 96.4084792,40.1020111 96.4704327,41.798733 Z" id="Shape" fill="#FFFFFF"></path>
                            <path d="M131.872426,69.8074925 C125.234553,79.4774786 111.33042,87.1025382 109.03814,87.1025382 C106.436094,87.1025382 108.232745,84.3753789 106.37414,84.3753789 C104.692546,84.3753789 104.382778,113.32686 74.6628046,113.32686 C41.2796096,113.32686 42.0239366,78.858153 38.8598834,78.858153 C36.5021106,78.858153 38.0527179,83.8792095 35.5090847,83.8792095 C27.0701344,83.8792095 4.60845452,66.8313625 0.885049841,54.7434368 C6.09728537,80.4698173 36.0055976,92.558629 36.935785,96.6520261 C41.8380761,118.341715 54.5580124,127.396805 71.3120059,127.396805 C96.3819277,127.396805 103.515429,96.4039414 105.002313,95.535645 C118.906446,87.4746652 127.093157,78.1138989 131.872426,69.8074925 Z" id="Shape" fill="#71B200"></path>
                            <path d="M73.4697574,57.9304388 C73.4697574,61.9086537 72.9157162,69.937737 77.7436631,69.937737 C82.8176538,69.937737 84.6205004,63.5575308 84.6205004,59.5739998 C84.6205004,55.5904688 73.4697574,57.9304388 73.4697574,57.9304388 L73.4697574,57.9304388 Z" id="Shape" fill="#F49000"></path>
                            <path d="M89.390034,61.3575514 C89.390034,65.9621801 85.5046652,70.6917372 84.2089522,70.6917372 C82.9141243,70.6917372 73.4591368,62.2285058 73.4591368,58.6197598 C73.4591368,55.0101278 77.0205774,52.0853867 82.0724419,52.0853867 C86.2171303,52.0853867 89.390034,56.7529226 89.390034,61.3575514 Z" id="Shape" fill="#FFC200"></path>
                            <path d="M81.5033548,53.8671663 C80.0377123,53.7661604 78.8136884,54.4740877 78.7703209,55.4469341 C78.7269535,56.4206664 79.8801734,57.2916208 81.345816,57.3917407 C82.8114585,57.4927466 84.0354824,56.7848192 84.0788499,55.8119729 C84.1222173,54.8382406 82.9689974,53.9672862 81.5033548,53.8671663 Z" id="Shape" fill="#FFF3B8"></path>
                            <path d="M66.4070597,130.976312 C70.6137016,130.719368 73.6626983,131.667405 73.8450185,135.574739 C74.0282239,139.482073 68.9064404,140.492132 66.1627859,140.678195 C63.4191314,140.802238 60.3099513,139.544094 60.1878145,136.70884 C60.0656776,133.935608 62.5659434,131.224397 66.4070597,130.976312 Z M92.3195489,122.975582 C96.3465257,122.780658 96.4084792,127.255042 96.4615822,127.63603 C96.4615822,128.017017 96.8952566,132.358499 89.8237084,132.739486 C85.3683675,132.98757 85.4905044,130.914291 85.4294359,129.904232 C85.4294359,128.832152 87.1977655,123.285688 92.3195489,122.975582 Z" id="Shape" fill="#D98500"></path>
                            <ellipse id="Oval" fill="#E0E0E0" cx="71.2465122" cy="153.091289" rx="36.7295684" ry="3.54406674"></ellipse>
                        </g>
                    </g>
                </g>
            </g>
        </g>
    </g>
</svg>