<?xml version="1.0" encoding="UTF-8"?>
<svg width="222px" height="222px" viewBox="0 0 222 222" version="1.1" xmlns="http://www.w3.org/2000/svg" xmlns:xlink="http://www.w3.org/1999/xlink">
    <!-- Generator: Sketch 45.2 (43514) - http://www.bohemiancoding.com/sketch -->
    <title>Group 11</title>
    <desc>Created with Sketch.</desc>
    <defs>
        <rect id="path-1" x="22" y="38" width="50" height="149" rx="17"></rect>
        <rect id="path-2" x="82" y="37" width="116" height="151.606735" rx="17"></rect>
    </defs>
    <g id="Duolingo-Nudge-Icons" stroke="none" stroke-width="1" fill="none" fill-rule="evenodd">
        <g id="Group-11">
            <rect id="Rectangle" fill="#4DB8EC" x="0.550439995" y="0.280275516" width="221.425627" height="220.852739"></rect>
            <g id="Rectangle-12">
                <use fill="#FFFFFF" fill-rule="evenodd" xlink:href="#path-1"></use>
                <rect stroke="#FFFFFF" stroke-width="1" x="22.5" y="38.5" width="49" height="148" rx="17"></rect>
            </g>
            <mask id="mask-3" fill="white">
                <use xlink:href="#path-2"></use>
            </mask>
            <use id="Rectangle-11" stroke="#FFFFFF" stroke-width="4" fill="#FFFFFF" xlink:href="#path-2"></use>
            <g id="Duolingo-owl" mask="url(#mask-3)">
                <g transform="translate(165.467864, 142.598304) scale(-1, 1) translate(-165.467864, -142.598304) translate(88.000000, 54.000000)">
                    <g transform="translate(0.000000, 0.053659)">
                        <g id="Group" transform="translate(0.635411, 0.000000)" fill-rule="nonzero">
                            <path d="M52.1016015,0 C66.2920609,0 69.7007534,18.8874813 97.6641597,18.8874813 C115.332897,18.8874813 116.307093,11.5693143 124.44859,11.5693143 C127.788691,11.5693143 129.657557,17.9822638 129.657557,22.2334111 C129.657557,39.0305547 125.353201,57.8485566 128.136618,57.8485566 C131.814706,57.8485566 146.70599,48.2306211 150.533189,48.2306211 C154.221218,48.2306211 154.082047,51.08821 154.082047,52.6911992 C154.082047,54.2941885 155.195414,82.1723054 117.559631,104.129784 C115.889581,105.102496 107.95684,139.951383 79.786666,139.951383 C61.0055556,139.951383 46.6759253,129.777612 41.2502491,105.380413 C40.136882,100.36797 0,84.4730664 0,49.5547002 C-1.41268385e-14,41.8881436 1.94769648,37.7064757 4.8692909,37.7064757 C12.2430612,37.7064757 28.1028754,50.182 34.9202604,50.182 C40.8330347,50.182 39.8588385,37.2876141 39.8588385,33.3848564 C39.9980094,29.4116267 39.6500822,7.05258427e-15 52.1018997,7.05258427e-15 L52.1016015,0 Z" id="Shape" fill="#78C800"></path>
                            <path d="M113.414327,28.4012086 C113.006755,27.9853247 115.213608,27.0136055 115.213608,26.5977216 C115.213608,26.3892834 114.875621,26.4587628 114.458109,26.4587628 C111.754217,26.4587628 106.495546,30.3436544 105.799692,30.3436544 C105.461705,30.3436544 104.974607,30.4131338 104.974607,29.9277705 C104.974607,28.8170925 108.712339,27.8463659 106.147619,27.8463659 C103.592839,27.8463659 99.7159361,31.1764147 95.7674594,31.1764147 C87.5305314,31.1764147 80.9557014,24.7247553 80.9557014,26.319804 C80.9557014,26.8746467 81.9239331,27.7768865 82.5472198,28.9560513 C82.5472198,28.9560513 82.8931589,30.6900589 82.2012808,29.9962573 C74.6562309,22.4349124 67.112175,20.6314255 67.112175,20.6314255 C67.112175,20.6314255 66.5584738,20.6314255 66.5584738,20.9093431 C66.5584738,21.7411109 68.2195776,22.9202757 68.2195776,23.2676728 C68.2195776,23.6140773 68.0118154,23.8225155 67.6658763,23.8225155 C66.0733638,23.8225155 64.8973699,20.7703843 58.4597226,20.7703843 C48.6998675,20.7703843 46.0705319,36.1015123 46.0705319,48.7269136 C46.0705319,66.5563227 57.5600822,72.2447013 67.0425896,72.2447013 C74.5876395,72.2447013 82.6168052,67.804967 86.0076044,61.2838281 L96.0448071,62.0471091 C96.0448071,62.0471091 100.958533,71.3424615 109.74618,71.3424615 C118.05667,71.3424615 125.253793,66.0709594 125.253793,47.8951459 C125.045036,28.7476131 120.064707,27.9158453 117.499987,27.9158453 C114.945207,27.9158453 114.318938,29.233969 113.414327,28.4012086 L113.414327,28.4012086 Z" id="Shape" fill="#8EE000"></path>
                            <path d="M65.6091295,66.2893233 C72.7466076,66.2893233 78.5321399,59.1795946 78.5321399,50.4083154 C78.5321399,41.6370362 72.7466076,34.5273074 65.6091295,34.5273074 C58.4716515,34.5273074 52.6861192,41.6370362 52.6861192,50.4083154 C52.6861192,59.1795946 58.4716515,66.2893233 65.6091295,66.2893233 Z M120.253582,51.7512531 C119.855951,59.398951 114.865681,65.5022208 109.139793,65.2917975 C103.413905,65.0813741 99.0290284,58.6972089 99.4375943,51.0505036 C99.8352254,43.4028057 104.825496,37.2995359 110.551383,37.5099592 C116.346856,37.6509032 120.661154,44.0350684 120.253582,51.7512531 L120.253582,51.7512531 Z" id="Shape" fill="#FFFFFF"></path>
                            <path d="M65.6091295,59.3413823 C69.452234,59.3413823 72.5676736,55.342346 72.5676736,50.4083154 C72.5676736,45.4742847 69.452234,41.4752484 65.6091295,41.4752484 C61.7660251,41.4752484 58.6505855,45.4742847 58.6505855,50.4083154 C58.6505855,55.342346 61.7660251,59.3413823 65.6091295,59.3413823 Z M115.293134,51.7075803 C114.955148,56.0679096 112.032559,59.4733932 108.771984,59.3374121 C105.52135,59.2014309 103.075919,55.5219999 103.413905,51.0941764 C103.751892,46.7338471 106.67448,43.3283635 109.935055,43.4643446 C113.185689,43.6003258 115.561535,47.2797568 115.293134,51.7075803 Z" id="Shape" fill="#3F3F3F"></path>
                            <path d="M82.5790303,66.8660024 C82.5790303,74.4749903 81.7589162,83.9529744 86.1000536,83.9450339 C91.4621088,83.9361008 90.5087883,75.7315751 90.4401969,75.6620957 C90.4401969,75.5926163 82.5790303,66.8660024 82.5790303,66.8660024 L82.5790303,66.8660024 Z" id="Shape" fill="#71B200"></path>
                            <path d="M60.1417021,47.4306264 C62.0632543,47.4306264 63.6209741,45.8752802 63.6209741,43.9566559 C63.6209741,42.0380316 62.0632543,40.4826854 60.1417021,40.4826854 C58.2201498,40.4826854 56.6624301,42.0380316 56.6624301,43.9566559 C56.6624301,45.8752802 58.2201498,47.4306264 60.1417021,47.4306264 Z M108.354471,46.8251629 C108.424057,48.7249285 107.161578,50.3328806 105.481587,50.4053377 C103.86124,50.4787873 102.459591,48.9442849 102.390005,47.0435268 C102.32042,45.1437612 103.582898,43.5358092 105.26289,43.4633521 C106.883236,43.3899024 108.284886,44.9244048 108.354471,46.8251629 Z" id="Shape" fill="#FFFFFF"></path>
                            <path d="M148.11758,78.2020644 C140.661997,89.0348969 125.045036,97.5768941 122.470375,97.5768941 C119.547787,97.5768941 121.565764,94.5217852 119.478201,94.5217852 C117.589454,94.5217852 117.241526,126.954774 83.8603965,126.954774 C46.3647789,126.954774 47.2007983,88.3410954 43.6469705,88.3410954 C40.9987474,88.3410954 42.7403716,93.9659499 39.8833922,93.9659499 C30.4048611,93.9659499 5.17616269,74.8680453 0.99407772,61.3265083 C6.84840023,90.1465675 40.4410698,103.689097 41.4858455,108.274738 C46.992042,132.57268 61.278927,142.716674 80.0968182,142.716674 C108.255064,142.716674 116.26733,107.99682 117.937381,107.024109 C133.554342,97.9937705 142.749561,87.5073425 148.11758,78.2020644 Z" id="Shape" fill="#71B200"></path>
                            <path d="M82.5203797,64.8967574 C82.5203797,69.3533653 81.8980871,78.3479711 87.320781,78.3479711 C93.0198286,78.3479711 95.0447649,71.200525 95.0447649,66.7379618 C95.0447649,62.2753985 82.5203797,64.8967574 82.5203797,64.8967574 L82.5203797,64.8967574 Z" id="Shape" fill="#F49000"></path>
                            <path d="M100.40185,68.7359911 C100.40185,73.894341 96.0378485,79.1926423 94.5825188,79.1926423 C93.1281831,79.1926423 82.5084508,69.7116805 82.5084508,65.6689714 C82.5084508,61.6252698 86.5086195,58.3488193 92.1828151,58.3488193 C96.8380811,58.3488193 100.40185,63.5776412 100.40185,68.7359911 Z" id="Shape" fill="#FFC200"></path>
                            <path d="M91.5436232,60.3448635 C89.8974305,60.2317113 88.522621,61.0247692 88.4739112,62.1146033 C88.4252014,63.2054301 89.7204846,64.1811195 91.3666773,64.2932791 C93.01287,64.4064313 94.3876795,63.6133735 94.4363893,62.5235393 C94.4850991,61.4327126 93.1898159,60.4570231 91.5436232,60.3448635 Z" id="Shape" fill="#FFF3B8"></path>
                            <path d="M74.5876395,146.726629 C79.3124909,146.438785 82.7370887,147.500828 82.9418687,151.87803 C83.1476427,156.255233 77.394915,157.386755 74.313274,157.595193 C71.2316331,157.734152 67.7394381,156.324713 67.6022554,153.148511 C67.4650726,150.041789 70.2733422,147.004546 74.5876395,146.726629 Z M103.692247,137.763785 C108.215301,137.545421 108.284886,142.557864 108.344531,142.984666 C108.344531,143.411468 108.831629,148.275027 100.888948,148.701829 C95.8847606,148.979747 96.0219433,146.657149 95.9533519,145.525627 C95.9533519,144.324626 97.9395192,138.111182 103.692247,137.763785 Z" id="Shape" fill="#D98500"></path>
                            <ellipse id="Oval" fill="#E0E0E0" cx="80.0232565" cy="171.501001" rx="41.2542254" ry="3.97025199"></ellipse>
                        </g>
                    </g>
                </g>
            </g>
        </g>
    </g>
</svg>