<?xml version="1.0" encoding="utf-8"?>
<!-- Generator: Adobe Illustrator 21.1.0, SVG Export Plug-In . SVG Version: 6.00 Build 0)  -->
<svg version="1.1" id="Layer_1" xmlns="http://www.w3.org/2000/svg" xmlns:xlink="http://www.w3.org/1999/xlink" x="0px" y="0px"
	 viewBox="0 0 255 255" style="enable-background:new 0 0 255 255;" xml:space="preserve">
<style type="text/css">
	.st0{clip-path:url(#SVGID_2_);fill:#3B5998;}
	.st1{clip-path:url(#SVGID_4_);fill:#FFFFFF;}
</style>
<g>
	<defs>
		<path id="SVGID_1_" d="M22.5,2.5h210c11,0,20,9,20,20v210c0,11-9,20-20,20h-210c-11,0-20-9-20-20v-210C2.5,11.5,11.5,2.5,22.5,2.5
			z"/>
	</defs>
	<clipPath id="SVGID_2_">
		<use xlink:href="#SVGID_1_"  style="overflow:visible;"/>
	</clipPath>
	<rect x="-2.5" y="-2.5" class="st0" width="260" height="260"/>
</g>
<g>
	<defs>
		<path id="SVGID_3_" d="M157.9,107.8c5.6-5.6,8.7-13.1,8.7-20.9V75.4h8.9V63.5h-97v11.9h8.9v11.5c0,7.9,3.1,15.4,8.7,20.9l20,20
			c1.7,1.7,1.7,4.4,0,6.1l-20,20c-5.6,5.6-8.7,13.1-8.7,20.9v11.5h-8.9v11.9h97v-11.9h-8.9v-11.5c0-7.9-3.1-15.4-8.7-20.9l-20-20
			c-1.7-1.7-1.7-4.4,0-6.1L157.9,107.8z"/>
	</defs>
	<clipPath id="SVGID_4_">
		<use xlink:href="#SVGID_3_"  style="overflow:visible;"/>
	</clipPath>
	<rect x="73.5" y="58.5" class="st1" width="107" height="144.8"/>
</g>
</svg>
