<?xml version="1.0" encoding="UTF-8" standalone="no"?>
<svg
   xmlns:dc="http://purl.org/dc/elements/1.1/"
   xmlns:cc="http://creativecommons.org/ns#"
   xmlns:rdf="http://www.w3.org/1999/02/22-rdf-syntax-ns#"
   xmlns:svg="http://www.w3.org/2000/svg"
   xmlns="http://www.w3.org/2000/svg"
   xmlns:sodipodi="http://sodipodi.sourceforge.net/DTD/sodipodi-0.dtd"
   xmlns:inkscape="http://www.inkscape.org/namespaces/inkscape"
   width="100%"
   height="100%"
   viewBox="0 0 87 87"
   version="1.1"
   xml:space="preserve"
   style="fill-rule:evenodd;clip-rule:evenodd;stroke-linejoin:round;stroke-miterlimit:1.41421;"
   id="svg6"
   sodipodi:docname="configure.svg"
   inkscape:version="0.92.2 (unknown)"><metadata
     id="metadata12"><rdf:RDF><cc:Work
         rdf:about=""><dc:format>image/svg+xml</dc:format><dc:type
           rdf:resource="http://purl.org/dc/dcmitype/StillImage" /></cc:Work></rdf:RDF></metadata><defs
     id="defs10" /><sodipodi:namedview
     pagecolor="#ffffff"
     bordercolor="#666666"
     borderopacity="1"
     objecttolerance="10"
     gridtolerance="10"
     guidetolerance="10"
     inkscape:pageopacity="0"
     inkscape:pageshadow="2"
     inkscape:window-width="965"
     inkscape:window-height="710"
     id="namedview8"
     showgrid="false"
     inkscape:zoom="2.7126437"
     inkscape:cx="47.186441"
     inkscape:cy="43.5"
     inkscape:window-x="0"
     inkscape:window-y="27"
     inkscape:window-maximized="0"
     inkscape:current-layer="svg6" /><g
     transform="translate(-7,-959.362)"
     id="g4"
     style="fill:#ffffff"><path
       d="M 44,959.362 41,969.8 c -2.715,0.748 -5.261,1.824 -7.656,3.187 l -9.5,-5.281 -8.5,8.5 5.281,9.5 c -1.363,2.395 -2.439,4.941 -3.188,7.656 l -10.437,3 v 11.998 l 10.437,3 c 0.749,2.72 1.825,5.26 3.188,7.66 l -5.281,9.5 8.5,8.5 9.5,-5.28 c 2.395,1.36 4.941,2.44 7.656,3.18 l 3,10.44 h 12 l 3,-10.44 c 2.715,-0.74 5.261,-1.82 7.656,-3.18 l 9.5,5.28 8.5,-8.5 -5.281,-9.5 c 1.363,-2.4 2.439,-4.94 3.188,-7.66 l 10.437,-3 v -11.998 l -10.437,-3 c -0.749,-2.715 -1.825,-5.261 -3.188,-7.656 l 5.281,-9.5 -8.5,-8.5 -9.5,5.281 C 64.261,971.624 61.715,970.548 59,969.8 l -3,-10.438 z m 6,23 c 11.046,0 20,8.955 20,19.998 0,11.05 -8.954,20 -20,20 -11.046,0 -20,-8.95 -20,-20 0,-11.043 8.954,-19.998 20,-19.998 z"
       style="fill-rule:nonzero;fill:#ffffff"
       id="path2"
       inkscape:connector-curvature="0" /></g></svg>