<?xml version="1.0" encoding="UTF-8" standalone="no"?>
<!-- Created with Inkscape (http://www.inkscape.org/) -->

<svg
   xmlns:dc="http://purl.org/dc/elements/1.1/"
   xmlns:cc="http://creativecommons.org/ns#"
   xmlns:rdf="http://www.w3.org/1999/02/22-rdf-syntax-ns#"
   xmlns:svg="http://www.w3.org/2000/svg"
   xmlns="http://www.w3.org/2000/svg"
   xmlns:sodipodi="http://sodipodi.sourceforge.net/DTD/sodipodi-0.dtd"
   xmlns:inkscape="http://www.inkscape.org/namespaces/inkscape"
   width="35.065075mm"
   height="33.003716mm"
   viewBox="0 0 35.065075 33.003716"
   version="1.1"
   id="svg139"
   inkscape:version="0.92.2 (unknown)"
   sodipodi:docname="configure.svg">
  <defs
     id="defs133" />
  <sodipodi:namedview
     id="base"
     pagecolor="#ffffff"
     bordercolor="#666666"
     borderopacity="1.0"
     inkscape:pageopacity="0.0"
     inkscape:pageshadow="2"
     inkscape:zoom="5.6"
     inkscape:cx="98.762008"
     inkscape:cy="43.121832"
     inkscape:document-units="mm"
     inkscape:current-layer="layer1"
     showgrid="false"
     fit-margin-top="0"
     fit-margin-left="0"
     fit-margin-right="0"
     fit-margin-bottom="0"
     inkscape:window-width="2560"
     inkscape:window-height="1517"
     inkscape:window-x="0"
     inkscape:window-y="38"
     inkscape:window-maximized="1" />
  <metadata
     id="metadata136">
    <rdf:RDF>
      <cc:Work
         rdf:about="">
        <dc:format>image/svg+xml</dc:format>
        <dc:type
           rdf:resource="http://purl.org/dc/dcmitype/StillImage" />
        <dc:title></dc:title>
      </cc:Work>
    </rdf:RDF>
  </metadata>
  <g
     inkscape:label="Layer 1"
     inkscape:groupmode="layer"
     id="layer1"
     transform="translate(-107.95556,-94.533857)">
    <g
       id="g50"
       style="fill:#ffffff"
       transform="matrix(-0.00374491,0.06886862,-0.06886862,-0.00374491,143.53748,95.079676)"
       inkscape:export-filename="/home/geza/habitlab/src/icons/icon_gear_bluewhite.png"
       inkscape:export-xdpi="96"
       inkscape:export-ydpi="96">
      <path
         id="path48"
         d="M 276.217,186.19 C 292.453,136.949 281.131,80.608 241.963,41.446 201.779,1.262 143.517,-9.656 93.394,8.496 88.884,10.13 88.07,14.451 91.46,17.841 l 87.871,87.871 c 3.391,3.391 4.847,9.804 3.25,14.327 l -13.433,38.042 c -1.597,4.523 -6.555,9.48 -11.077,11.078 l -38.061,13.445 c -4.522,1.598 -10.936,0.141 -14.327,-3.25 L 17.824,91.489 C 14.433,88.098 10.113,88.912 8.485,93.417 -9.654,143.534 1.27,201.79 41.441,241.968 c 39.168,39.168 95.502,50.49 144.744,34.254 l 208.392,208.386 c 12.436,12.437 32.602,12.437 45.037,0 l 44.994,-44.994 c 12.436,-12.436 12.436,-32.601 0,-45.037 z m 150.209,259.764 c -12.362,0 -22.381,-10.019 -22.381,-22.381 0,-12.362 10.019,-22.381 22.381,-22.381 12.362,0 22.381,10.019 22.381,22.381 0,12.362 -10.018,22.381 -22.381,22.381 z"
         inkscape:connector-curvature="0"
         style="fill:#ffffff" />
    </g>
  </g>
</svg>
