<?xml version="1.0" encoding="utf-8"?>
<!-- Generator: Adobe Illustrator 21.1.0, SVG Export Plug-In . SVG Version: 6.00 Build 0)  -->
<svg version="1.1" id="Layer_1" xmlns="http://www.w3.org/2000/svg" xmlns:xlink="http://www.w3.org/1999/xlink" x="0px" y="0px"
	 viewBox="0 0 350 350" style="enable-background:new 0 0 350 350;" xml:space="preserve">
<style type="text/css">
	.st0{clip-path:url(#SVGID_2_);}
	.st1{clip-path:url(#SVGID_4_);}
	.st2{enable-background:new    ;}
	.st3{clip-path:url(#SVGID_6_);}
	.st4{clip-path:url(#SVGID_8_);}
	.st5{clip-path:url(#SVGID_10_);fill:#FFFFFF;}
	.st6{clip-path:url(#SVGID_12_);}
	.st7{clip-path:url(#SVGID_14_);fill:#5B80CF;}
	.st8{fill:#5B80CF;}
	.st9{fill:#FFFFFF;}
</style>
<g>
	<g>
		<defs>
			<rect id="SVGID_1_" x="8.5" y="10" width="333" height="333"/>
		</defs>
		<clipPath id="SVGID_2_">
			<use xlink:href="#SVGID_1_"  style="overflow:visible;"/>
		</clipPath>
		<g class="st0">
			
				<image style="overflow:visible;enable-background:new    ;" width="334" height="333" xlink:href="6828432D915D7BE5.png"  transform="matrix(0.997 0 0 1 8.5 10)">
			</image>
		</g>
	</g>
</g>
<g>
	<g>
		<defs>
			<rect id="SVGID_3_" x="12.5" y="12" width="325" height="325"/>
		</defs>
		<clipPath id="SVGID_4_">
			<use xlink:href="#SVGID_3_"  style="overflow:visible;"/>
		</clipPath>
		<g class="st1">
			<g class="st2">
				<defs>
					<rect id="SVGID_5_" x="12.5" y="12" class="st2" width="325" height="325"/>
				</defs>
				<clipPath id="SVGID_6_">
					<use xlink:href="#SVGID_5_"  style="overflow:visible;"/>
				</clipPath>
				<g class="st3">
					<g>
						<defs>
							<path id="SVGID_7_" d="M194.3,195.3l-17.2-12.5l-17.3,12.5l6.6-20.3l-17.3-12.5h21.4l6.6-20.3l6.6,20.3H205L187.7,175
								L194.3,195.3z M177.1,103.4c-37.7,0-68.2,30.5-68.2,68.2s30.5,68.2,68.2,68.2s68.2-30.5,68.2-68.2S214.7,103.4,177.1,103.4z"
								/>
						</defs>
						<clipPath id="SVGID_8_">
							<use xlink:href="#SVGID_7_"  style="overflow:visible;"/>
						</clipPath>
						<g class="st4">
							<g>
								<defs>
									<rect id="SVGID_9_" x="4.5" y="4" width="341" height="345"/>
								</defs>
								<clipPath id="SVGID_10_">
									<use xlink:href="#SVGID_9_"  style="overflow:visible;"/>
								</clipPath>
								<rect x="103.8" y="98.4" class="st5" width="146.5" height="146.5"/>
							</g>
						</g>
					</g>
				</g>
			</g>
			<g>
				<g>
					<defs>
						<path id="SVGID_11_" d="M32.5,12h285c11,0,20,9,20,20v285c0,11-9,20-20,20h-285c-11,0-20-9-20-20V32C12.5,21,21.5,12,32.5,12z
							"/>
					</defs>
					<clipPath id="SVGID_12_">
						<use xlink:href="#SVGID_11_"  style="overflow:visible;"/>
					</clipPath>
					<g class="st6">
						<g>
							<defs>
								<rect id="SVGID_13_" x="4.5" y="4" width="341" height="345"/>
							</defs>
							<clipPath id="SVGID_14_">
								<use xlink:href="#SVGID_13_"  style="overflow:visible;"/>
							</clipPath>
							<rect x="7.5" y="7" class="st7" width="335" height="335"/>
						</g>
					</g>
				</g>
				<rect x="57" y="72" class="st8" width="232" height="220"/>
			</g>
			<g>
				<g>
					<path class="st9" d="M262.8,70.5l-5.9,5.7l-13.2,13.2c-16.4,16.4-32.8,32.9-49.3,49.4c-1.3,1.3-2.4,2.8-3.2,4.4
						c-3.9,7.9-7.8,15.8-11.7,23.7l-2.8,5.7c-0.7,1.4-1.2,2.7-1.4,4.1c-0.7,4.1,1.6,7.7,5.4,8.6c1.2,0.3,2.3,0.3,3.7,0
						c1.2-0.3,2.5-0.8,3.9-1.5l5.4-2.7c6.5-3.2,12.9-6.4,19.4-9.6l0.8-0.4c2.9-1.4,6.2-3.1,9.2-6c8.7-8.8,17.4-17.5,26.2-26.3
						l37.7-37.8c0.3-0.2,0.5-0.4,0.7-0.6l2.5-2.4L262.8,70.5z M210.4,160.2c-3.5,1.7-7.2,3.5-10.8,5.4c-0.3,0.2-0.7,0.3-0.9,0.3v0.6
						l-0.1-0.6c-0.2,0-0.5-0.1-0.9-0.5c-0.4-0.5-0.8-0.9-1.2-1.3c-0.4-0.4-0.9-0.8-1.3-1.3c-0.2-0.3-0.3-0.8-0.2-1.2
						c1.8-3.8,3.7-7.5,5.6-11.4l1.3-2.7c0,0,0.1-0.1,0.2-0.2l5.6,5.7c1.9,1.9,3.8,3.8,5.8,5.8L210.4,160.2z"/>
				</g>
				<path class="st9" d="M305.9,68.3c-4.4-4.5-8.9-9-13.4-13.4c-4.2-4.2-10.8-3.8-15.5,0.9c-2.3,2.3-4.6,4.6-6.9,6.9l-1.9,1.9
					c-0.1,0.2-0.3,0.4-0.5,0.6l-0.1-0.1l2.1,2l0.6,0.6l23.1,23l2.5,2.4l2.8-2.7c2.2-2.2,4.3-4.3,6.5-6.5
					C309.7,79,310.1,72.6,305.9,68.3z"/>
				<path class="st9" d="M286.5,230.8c0,12.4-5.1,17.6-17.4,17.6c-23.3,0-46.6,0-70,0c0.3,4.6,0.7,9.1,1,13.6c0.2,2,0.5,3.8,1.2,5.4
					c0.1,0.2,0.1,0.3,0.2,0.5c1.3,3.2,3.7,5.7,6.9,7.6c0.8,0.5,1.7,1,2.5,1.5c0.2,0.2,0.5,0.3,0.7,0.4c2,1.2,4,2.4,6,3.6
					c1.5,0.9,2.8,2,2.5,3.9c-0.4,2.1-2.3,1.6-3.9,1.6c-27.4,0-54.8,0-82.3,0c-0.6,0-1.1,0.1-1.7,0c-1.7-0.3-2.4-1.4-1.7-3
					c0.5-0.9,1.3-1.8,2.3-2.4c2-1.2,4-2.4,6-3.6c0.1-0.1,0.3-0.2,0.4-0.2c1.2-0.7,2.4-1.5,3.6-2.2c2.9-1.8,5-4.2,6.2-7.2
					c0.2-0.3,0.3-0.7,0.4-1.1c0.4-1,0.6-2.1,0.8-3.2c0.5-3.9,0.7-7.8,1-11.7c0.1-1.2,0.2-2.3,0.2-3.4H81c-11.6,0-17-5.4-17-17.2
					V97.3c0-11.2,5.7-16.7,17-16.7c51.8,0,99.4-0.1,151.2,0l-8.9,8.8c-3.3,3.3-6.5,6.5-9.8,9.8l-125.3,0c-6.2,0-6.5,0.2-6.5,6.2
					c0,33.8,0,67.6-0.1,101.4c0,4.4,1.2,6,5.8,6c58.4-0.1,116.8-0.1,175.3-0.1c6.1,0,6.3-0.2,6.3-6.4l0-66.2l17.6-17.7
					C286.6,160.2,286.6,193.2,286.5,230.8z"/>
			</g>
		</g>
	</g>
</g>
</svg>
