<?xml version="1.0" encoding="UTF-8" standalone="no"?>
<svg
   xmlns:dc="http://purl.org/dc/elements/1.1/"
   xmlns:cc="http://creativecommons.org/ns#"
   xmlns:rdf="http://www.w3.org/1999/02/22-rdf-syntax-ns#"
   xmlns:svg="http://www.w3.org/2000/svg"
   xmlns="http://www.w3.org/2000/svg"
   xmlns:sodipodi="http://sodipodi.sourceforge.net/DTD/sodipodi-0.dtd"
   xmlns:inkscape="http://www.inkscape.org/namespaces/inkscape"
   version="1.1"
   viewBox="0 0 19.820999 19.823"
   x="0px"
   y="0px"
   id="svg3422"
   inkscape:version="0.91 r13725"
   sodipodi:docname="noun_1117661_cc.svg"
   width="19.820999"
   height="19.823">
  <metadata
     id="metadata3436">
    <rdf:RDF>
      <cc:Work
         rdf:about="">
        <dc:format>image/svg+xml</dc:format>
        <dc:type
           rdf:resource="http://purl.org/dc/dcmitype/StillImage" />
        <dc:title>close</dc:title>
      </cc:Work>
    </rdf:RDF>
  </metadata>
  <defs
     id="defs3434" />
  <sodipodi:namedview
     pagecolor="#ffffff"
     bordercolor="#666666"
     borderopacity="1"
     objecttolerance="10"
     gridtolerance="10"
     guidetolerance="10"
     inkscape:pageopacity="0"
     inkscape:pageshadow="2"
     inkscape:window-width="1121"
     inkscape:window-height="738"
     id="namedview3432"
     showgrid="false"
     inkscape:zoom="14.725"
     inkscape:cx="9.901"
     inkscape:cy="11.353937"
     inkscape:window-x="53"
     inkscape:window-y="0"
     inkscape:window-maximized="0"
     inkscape:current-layer="svg3422"
     fit-margin-top="0"
     fit-margin-left="0"
     fit-margin-right="0"
     fit-margin-bottom="0" />
  <title
     id="title3424">close</title>
  <path
     d="m 19.071,19.822 c -0.207,0 -0.394,-0.084 -0.53,-0.22 l -8.64,-8.64 -8.64,8.64 C 1.127,19.727 0.947,19.803 0.75,19.803 0.336,19.803 0,19.467 0,19.053 0,18.855 0.077,18.675 0.202,18.541 l 8.64,-8.64 -8.64,-8.64 C 0.077,1.127 0.001,0.947 0.001,0.75 0.001,0.336 0.337,0 0.751,0 0.949,0 1.129,0.077 1.263,0.202 l 8.64,8.64 8.64,-8.64 c 0.134,-0.125 0.314,-0.201 0.511,-0.201 0.414,0 0.75,0.336 0.75,0.75 0,0.198 -0.077,0.378 -0.202,0.512 l -8.64,8.64 8.64,8.64 c 0.136,0.136 0.219,0.323 0.219,0.53 0,0.414 -0.335,0.75 -0.749,0.75 z"
     id="path3426"
     inkscape:connector-curvature="0" />
</svg>
