<?xml version="1.0" encoding="utf-8"?>
<!-- Generator: Adobe Illustrator 21.1.0, SVG Export Plug-In . SVG Version: 6.00 Build 0)  -->
<svg version="1.1"
	 id="svg3422" inkscape:version="0.91 r13725" sodipodi:docname="noun_1117661_cc.svg" xmlns:cc="http://creativecommons.org/ns#" xmlns:dc="http://purl.org/dc/elements/1.1/" xmlns:inkscape="http://www.inkscape.org/namespaces/inkscape" xmlns:rdf="http://www.w3.org/1999/02/22-rdf-syntax-ns#" xmlns:sodipodi="http://sodipodi.sourceforge.net/DTD/sodipodi-0.dtd" xmlns:svg="http://www.w3.org/2000/svg"
	 xmlns="http://www.w3.org/2000/svg" xmlns:xlink="http://www.w3.org/1999/xlink" x="0px" y="0px" viewBox="0 0 19.8 19.8"
	 style="enable-background:new 0 0 19.8 19.8;" xml:space="preserve">
<style type="text/css">
	.st0{fill:#FFFFFF;}
</style>
<sodipodi:namedview  bordercolor="#666666" borderopacity="1" fit-margin-bottom="0" fit-margin-left="0" fit-margin-right="0" fit-margin-top="0" gridtolerance="10" guidetolerance="10" id="namedview3432" inkscape:current-layer="svg3422" inkscape:cx="9.901" inkscape:cy="11.353937" inkscape:pageopacity="0" inkscape:pageshadow="2" inkscape:window-height="738" inkscape:window-maximized="0" inkscape:window-width="1121" inkscape:window-x="53" inkscape:window-y="0" inkscape:zoom="14.725" objecttolerance="10" pagecolor="#ffffff" showgrid="false">
	</sodipodi:namedview>
<title  id="title3424">close</title>
<path id="path3426" inkscape:connector-curvature="0" class="st0" d="M19.1,19.8c-0.2,0-0.4-0.1-0.5-0.2L9.9,11l-8.6,8.6
	c-0.1,0.1-0.3,0.2-0.5,0.2c-0.4,0-0.8-0.3-0.8-0.8c0-0.2,0.1-0.4,0.2-0.5l8.6-8.6L0.2,1.3C0.1,1.1,0,0.9,0,0.8C0,0.3,0.3,0,0.8,0
	c0.2,0,0.4,0.1,0.5,0.2l8.6,8.6l8.6-8.6C18.7,0.1,18.9,0,19.1,0c0.4,0,0.8,0.3,0.8,0.8c0,0.2-0.1,0.4-0.2,0.5L11,9.9l8.6,8.6
	c0.1,0.1,0.2,0.3,0.2,0.5C19.8,19.5,19.5,19.8,19.1,19.8L19.1,19.8z"/>
</svg>
