<?xml version="1.0" encoding="UTF-8" standalone="no"?>
<svg
   xmlns:dc="http://purl.org/dc/elements/1.1/"
   xmlns:cc="http://creativecommons.org/ns#"
   xmlns:rdf="http://www.w3.org/1999/02/22-rdf-syntax-ns#"
   xmlns:svg="http://www.w3.org/2000/svg"
   xmlns="http://www.w3.org/2000/svg"
   xmlns:sodipodi="http://sodipodi.sourceforge.net/DTD/sodipodi-0.dtd"
   xmlns:inkscape="http://www.inkscape.org/namespaces/inkscape"
   version="1.1"
   x="0px"
   y="0px"
   viewBox="0 0 81.300003 75.469284"
   xml:space="preserve"
   id="svg10"
   sodipodi:docname="feedback_icon.svg"
   width="81.300003"
   height="75.469284"
   inkscape:version="0.92.1 r"><metadata
     id="metadata16"><rdf:RDF><cc:Work
         rdf:about=""><dc:format>image/svg+xml</dc:format><dc:type
           rdf:resource="http://purl.org/dc/dcmitype/StillImage" /><dc:title></dc:title></cc:Work></rdf:RDF></metadata><defs
     id="defs14" /><sodipodi:namedview
     pagecolor="#ffffff"
     bordercolor="#666666"
     borderopacity="1"
     objecttolerance="10"
     gridtolerance="10"
     guidetolerance="10"
     inkscape:pageopacity="0"
     inkscape:pageshadow="2"
     inkscape:window-width="640"
     inkscape:window-height="480"
     id="namedview12"
     showgrid="false"
     fit-margin-top="0"
     fit-margin-left="0"
     fit-margin-right="0"
     fit-margin-bottom="0"
     inkscape:zoom="1.888"
     inkscape:cx="40.6"
     inkscape:cy="25.169284"
     inkscape:window-x="391"
     inkscape:window-y="23"
     inkscape:window-maximized="0"
     inkscape:current-layer="svg10" /><g
     id="g4"
     transform="translate(-9.4,-12.2)"><path
       d="M 86.1,12.2 H 13.9 c -2.5,0 -4.5,2 -4.5,4.5 v 41.8 c 0,2.5 2,4.5 4.5,4.5 h 4 l 23.7,23.7 c 1.7,1.7 3.2,1.1 3.2,-1.3 V 64.2 c 0,-0.4 -0.1,-0.9 -0.2,-1.3 h 41.6 c 2.5,0 4.5,-2 4.5,-4.5 V 16.7 C 90.6,14.2 88.6,12.2 86.1,12.2 Z M 63.8,49.7 H 18.1 V 44.5 H 63.8 Z M 81.9,39.1 H 18.1 V 33.9 H 82 v 5.2 z m 0,-10.6 H 18.1 V 23.3 H 82 v 5.2 z"
       id="path2"
       inkscape:connector-curvature="0" /></g></svg>