<?xml version="1.0" encoding="utf-8"?>
<!-- Generator: Adobe Illustrator 21.0.0, SVG Export Plug-In . SVG Version: 6.00 Build 0)  -->
<svg version="1.0" xmlns="http://www.w3.org/2000/svg" xmlns:xlink="http://www.w3.org/1999/xlink" x="0px" y="0px"
	 viewBox="0 0 860 300" style="enable-background:new 0 0 860 300;" xml:space="preserve">
<style type="text/css">
	.st0{fill:#FFFDFD;}
	.st1{fill:#415D67;}
</style>
<g id="Layer_3">
	<rect y="0" class="st0" width="300" height="300"/>
</g>
<g id="Layer_1">
	<path id="path3" inkscape:connector-curvature="0" class="st1" d="M273,172.7v-45.3l-28.4-4.4c-1.8-6.2-4.4-12.4-9.8-22.2
		l16.9-23.1l-31.9-32.9l-24,16.9c-8-4.4-16-8-22.2-9.8L170,23.4h-45.3l-4.4,28.4c-8,1.8-14.2,4.4-22.2,9.8L75,44.7L42.2,77.6
		l16,23.1c-4.4,8-6.2,14.2-9.8,22.2l-26.6,3.6v45.3l28.4,4.4c1.8,8,4.4,14.2,9.8,22.2l-16,23.1l32.8,32.9l24-16
		c6.2,3.6,14.2,6.2,22.2,9.8l4.4,28.4h47l4.4-28.4c8-1.8,14.2-4.4,22.2-9.8l24,16.9l31.9-32.9l-16.9-23.1c4.4-8,8-16,9.8-22.2
		C249,177.1,273,172.7,273,172.7z M146.9,195.8c-26.6,0-47-20.4-47-47.1s20.4-47.1,47-47.1s47,20.4,47,47.1S173.6,195.8,146.9,195.8
		z"/>
	<g id="Layer_2">
		<rect x="300" y="0" class="st1" width="560" height="300"/>
	</g>
	<g>
		<path class="st0" d="M405.8,124.1c-6-6.7-14.4-10-25.3-10c-9,0-15.6,1.7-19.7,5.1c-4.1,3.4-6.2,8.1-6.2,13.9c0,3,0.5,5.4,1.6,7.4
			c1,2,2.7,3.7,4.9,5c2.2,1.3,5,2.5,8.4,3.5c3.4,1,7.5,2,12.1,2.9c5,1,9.5,2.2,13.5,3.5c4,1.3,7.4,2.8,10.2,4.8c2.8,1.9,5,4.3,6.5,7
			c1.5,2.8,2.3,6.2,2.3,10.3c0,4.1-0.8,7.6-2.4,10.7c-1.6,3-3.9,5.6-6.8,7.6c-2.9,2-6.4,3.6-10.4,4.6c-4,1-8.5,1.6-13.4,1.6
			c-14.4,0-26.5-4.6-36.5-13.8l3.5-5.3c3.9,4.1,8.7,7.3,14.3,9.7c5.6,2.4,11.9,3.6,19,3.6c8.1,0,14.4-1.5,18.9-4.4
			c4.5-3,6.8-7.4,6.8-13.4c0-3-0.6-5.6-1.8-7.8c-1.2-2.1-3-4-5.4-5.5c-2.4-1.6-5.4-2.9-9-4c-3.6-1.1-7.8-2.2-12.7-3.3
			c-4.9-1-9.3-2.1-13.1-3.3c-3.8-1.2-6.9-2.6-9.5-4.4c-2.6-1.8-4.5-3.9-5.8-6.4c-1.3-2.5-1.9-5.7-1.9-9.5c0-4.2,0.8-7.9,2.4-11.1
			c1.6-3.2,3.8-5.9,6.7-8.1s6.3-3.9,10.3-5c4-1.1,8.4-1.7,13.2-1.7c6,0,11.3,0.9,16,2.7c4.7,1.8,8.9,4.5,12.7,8.1L405.8,124.1z"/>
		<path class="st0" d="M457.9,202.5c-4.8,0-9.2-0.9-13.2-2.8c-4.1-1.9-7.6-4.4-10.6-7.7c-3-3.3-5.3-7-7-11.3
			c-1.7-4.3-2.5-8.8-2.5-13.7c0-4.8,0.8-9.3,2.5-13.5c1.7-4.2,4-7.9,6.9-11.1c2.9-3.2,6.4-5.7,10.5-7.5c4.1-1.8,8.4-2.7,13.1-2.7
			c4.8,0,9.2,0.9,13.2,2.8c4,1.9,7.5,4.4,10.5,7.6c2.9,3.2,5.3,6.9,6.9,11.1c1.7,4.2,2.5,8.7,2.5,13.4c0,0.4,0,1-0.1,1.6
			c0,0.7-0.1,1.1-0.1,1.2h-59.4c0.3,3.9,1.2,7.5,2.7,10.9c1.6,3.3,3.5,6.2,5.9,8.7c2.4,2.4,5.1,4.3,8.2,5.7c3.1,1.4,6.4,2.1,10,2.1
			c2.3,0,4.7-0.3,6.9-1c2.3-0.7,4.4-1.5,6.4-2.7c1.9-1.1,3.7-2.5,5.2-4.1c1.5-1.6,2.7-3.4,3.6-5.3l5.7,1.6c-1,2.4-2.5,4.7-4.4,6.7
			c-1.9,2-4,3.8-6.5,5.3c-2.5,1.5-5.2,2.6-8.1,3.5C464.1,202.1,461,202.5,457.9,202.5z M484.4,164.7c-0.3-4-1.1-7.6-2.7-10.9
			c-1.5-3.3-3.5-6.1-5.8-8.5c-2.4-2.4-5.1-4.3-8.2-5.6c-3.1-1.3-6.5-2-10-2c-3.6,0-6.9,0.7-10,2c-3.1,1.3-5.9,3.2-8.2,5.6
			c-2.4,2.4-4.3,5.3-5.7,8.6c-1.4,3.3-2.3,7-2.5,10.9H484.4z"/>
		<path class="st0" d="M534.7,198c-0.3,0.2-0.9,0.5-1.8,1c-0.8,0.5-1.9,0.9-3.1,1.4c-1.3,0.4-2.7,0.8-4.2,1.2
			c-1.6,0.3-3.2,0.5-5.1,0.5s-3.5-0.3-5.1-0.8c-1.6-0.5-3-1.3-4.2-2.3c-1.2-1-2.2-2.3-2.9-3.8c-0.7-1.5-1.1-3.2-1.1-5.2v-51.1h-9.5
			v-5.3h9.5v-23.2h6.5v23.2h15.8v5.3h-15.8v49.5c0,2.5,0.9,4.4,2.6,5.7c1.7,1.3,3.7,1.9,6,1.9c2.7,0,5-0.5,6.9-1.4s3.1-1.5,3.6-1.8
			L534.7,198z"/>
		<path class="st0" d="M575.8,198c-0.3,0.2-0.9,0.5-1.8,1c-0.8,0.5-1.9,0.9-3.1,1.4c-1.3,0.4-2.7,0.8-4.2,1.2
			c-1.6,0.3-3.2,0.5-5.1,0.5s-3.5-0.3-5.1-0.8c-1.6-0.5-3-1.3-4.2-2.3c-1.2-1-2.2-2.3-2.9-3.8c-0.7-1.5-1.1-3.2-1.1-5.2v-51.1h-9.5
			v-5.3h9.5v-23.2h6.5v23.2h15.8v5.3h-15.8v49.5c0,2.5,0.9,4.4,2.6,5.7c1.7,1.3,3.7,1.9,6,1.9c2.7,0,5-0.5,6.9-1.4s3.1-1.5,3.6-1.8
			L575.8,198z"/>
		<path class="st0" d="M586.8,118.1v-12h6.5v12H586.8z M586.8,201.2v-67.7h6.5v67.7H586.8z"/>
		<path class="st0" d="M668.5,201.2H662v-37.8c0-8.8-1.2-15.2-3.7-19.2c-2.5-4-6.4-6-11.9-6c-2.9,0-5.7,0.5-8.5,1.6
			c-2.8,1-5.4,2.5-7.8,4.4c-2.4,1.9-4.5,4.1-6.3,6.7c-1.8,2.6-3.2,5.3-4,8.3v42h-6.5v-67.7h6v16.2c1.4-2.6,3.1-5,5.2-7.1
			c2.1-2.1,4.4-4,6.9-5.5c2.5-1.5,5.2-2.7,8.1-3.5c2.9-0.8,5.9-1.2,8.9-1.2c7.4,0,12.6,2.6,15.6,7.8c3,5.2,4.5,12.6,4.5,22.2V201.2z
			"/>
		<path class="st0" d="M715.2,202.2c-4.7,0-9-1-12.9-2.9c-3.9-2-7.3-4.6-10.1-7.8c-2.9-3.3-5.1-7-6.6-11.1s-2.3-8.5-2.3-12.9
			c0-4.6,0.8-9,2.3-13.3c1.5-4.3,3.7-8,6.4-11.3c2.8-3.3,6.1-5.8,9.9-7.8c3.9-1.9,8.1-2.9,12.7-2.9c5.9,0,11,1.5,15.4,4.6
			c4.4,3.1,8.1,6.8,11.2,11.3v-14.7h5.8v69.1c0,4.6-0.9,8.6-2.6,12.1c-1.7,3.5-4,6.4-6.9,8.7c-2.9,2.3-6.3,4-10.1,5.2
			c-3.9,1.2-7.9,1.8-12.1,1.8c-3.9,0-7.4-0.4-10.5-1.1c-3.1-0.7-5.9-1.8-8.2-3.1c-2.4-1.3-4.5-3-6.4-5c-1.9-2-3.5-4.1-4.9-6.4l4.4-3
			c2.7,4.6,6.3,8,10.9,10.1c4.6,2.1,9.5,3.2,14.7,3.2c3.5,0,6.7-0.5,9.8-1.4c3.1-1,5.8-2.4,8.1-4.2c2.3-1.9,4.1-4.2,5.5-7
			c1.3-2.8,2-6,2-9.8v-14.9c-2.8,4.3-6.5,7.9-11,10.6C724.9,200.9,720.1,202.2,715.2,202.2z M716.8,196.6c2.9,0,5.6-0.5,8.3-1.6
			c2.7-1.1,5.1-2.5,7.3-4.2c2.2-1.7,4-3.7,5.5-5.9c1.5-2.2,2.3-4.3,2.6-6.5v-22.3c-1-2.6-2.4-5-4.2-7.2c-1.7-2.2-3.7-4.1-5.9-5.7
			s-4.6-2.8-7.1-3.7c-2.6-0.9-5.1-1.4-7.7-1.4c-4.1,0-7.7,0.9-10.9,2.6c-3.2,1.7-5.9,4-8.1,6.8c-2.2,2.8-3.9,5.9-5.1,9.4
			s-1.8,7.1-1.8,10.6c0,3.9,0.7,7.6,2.1,11.1c1.4,3.5,3.3,6.6,5.8,9.3c2.5,2.7,5.3,4.8,8.6,6.4C709.4,195.9,713,196.6,716.8,196.6z"
			/>
		<path class="st0" d="M788.6,202.5c-5.2,0-10.2-0.9-14.9-2.6c-4.8-1.7-8.9-4.3-12.5-7.8l3.2-4.4c3.6,3.3,7.4,5.7,11.3,7.3
			c3.9,1.6,8.2,2.3,12.9,2.3c5.9,0,10.6-1.2,14.2-3.7c3.6-2.5,5.4-5.9,5.4-10.4c0-2.1-0.5-3.8-1.4-5.3c-0.9-1.4-2.3-2.6-4.1-3.6
			c-1.8-1-4.1-1.9-6.8-2.7c-2.7-0.8-5.8-1.6-9.4-2.5c-3.8-0.9-7.1-1.7-9.9-2.6c-2.8-0.9-5.1-1.9-6.9-3.1c-1.8-1.2-3.2-2.7-4.1-4.4
			c-0.9-1.7-1.4-4-1.4-6.6c0-3.4,0.6-6.3,1.9-8.9c1.3-2.5,3.1-4.6,5.4-6.3c2.3-1.6,4.9-2.9,7.9-3.7c3-0.8,6.2-1.2,9.5-1.2
			c5.3,0,10,0.9,14,2.7c4.1,1.8,7.2,4.1,9.5,6.8l-3.6,3.5c-2.3-2.6-5.2-4.6-8.8-5.9c-3.6-1.3-7.4-2-11.5-2c-2.5,0-4.9,0.3-7.1,0.8
			c-2.2,0.5-4.1,1.3-5.8,2.5c-1.6,1.1-2.9,2.6-3.9,4.4c-1,1.8-1.4,3.9-1.4,6.3c0,2,0.3,3.6,1,4.8c0.6,1.2,1.7,2.3,3.1,3.1
			c1.4,0.9,3.3,1.6,5.5,2.3c2.3,0.7,4.9,1.4,8.1,2.1c4.2,1,8,2,11.3,3c3.3,1,6,2.1,8.2,3.5c2.2,1.4,3.9,3,5.1,5
			c1.2,1.9,1.8,4.3,1.8,7.3c0,6.1-2.4,10.9-7.1,14.5C802.8,200.7,796.5,202.5,788.6,202.5z"/>
	</g>
	<g>
	</g>
	<g>
	</g>
	<g>
	</g>
	<g>
	</g>
	<g>
	</g>
</g>
</svg>
