<?xml version="1.0" encoding="UTF-8" standalone="no"?>
<!-- Generator: Adobe Illustrator 18.1.1, SVG Export Plug-In . SVG Version: 6.00 Build 0)  -->

<svg
   xmlns:dc="http://purl.org/dc/elements/1.1/"
   xmlns:cc="http://creativecommons.org/ns#"
   xmlns:rdf="http://www.w3.org/1999/02/22-rdf-syntax-ns#"
   xmlns:svg="http://www.w3.org/2000/svg"
   xmlns="http://www.w3.org/2000/svg"
   xmlns:sodipodi="http://sodipodi.sourceforge.net/DTD/sodipodi-0.dtd"
   xmlns:inkscape="http://www.inkscape.org/namespaces/inkscape"
   version="1.1"
   id="Layer_1"
   x="0px"
   y="0px"
   viewBox="0 0 91.880958 38.006893"
   enable-background="new 0 0 24 24"
   xml:space="preserve"
   inkscape:version="0.91 r13725"
   sodipodi:docname="habitlab_gear_with_text.svg"
   width="91.880959"
   height="38.006893"><metadata
     id="metadata9"><rdf:RDF><cc:Work
         rdf:about=""><dc:format>image/svg+xml</dc:format><dc:type
           rdf:resource="http://purl.org/dc/dcmitype/StillImage" /><dc:title /></cc:Work></rdf:RDF></metadata><defs
     id="defs7" /><sodipodi:namedview
     pagecolor="#ffffff"
     bordercolor="#666666"
     borderopacity="1"
     objecttolerance="10"
     gridtolerance="10"
     guidetolerance="10"
     inkscape:pageopacity="0"
     inkscape:pageshadow="2"
     inkscape:window-width="1280"
     inkscape:window-height="755"
     id="namedview5"
     showgrid="false"
     inkscape:zoom="3.4766083"
     inkscape:cx="23.373118"
     inkscape:cy="18.807936"
     inkscape:window-x="44"
     inkscape:window-y="2"
     inkscape:window-maximized="0"
     inkscape:current-layer="Layer_1"
     fit-margin-top="0"
     fit-margin-left="0"
     fit-margin-right="0"
     fit-margin-bottom="0" /><rect
     style="opacity:1;fill:#000000;fill-opacity:1;fill-rule:nonzero;stroke:none;stroke-width:0.2;stroke-miterlimit:4;stroke-dasharray:none;stroke-opacity:1"
     id="rect4161"
     width="50.541702"
     height="37.957375"
     x="20.632524"
     y="0" /><ellipse
     style="opacity:1;fill:#000000;fill-opacity:1;fill-rule:nonzero;stroke:none;stroke-width:0.2151238;stroke-miterlimit:4;stroke-dasharray:none;stroke-opacity:1"
     id="path4139"
     cx="21.051554"
     cy="19.041452"
     rx="21.051554"
     ry="18.936005" /><path
     d="m 34.780213,21.402017 0,-5.090937 -3.186747,-0.526649 c -0.177042,-0.7022 -0.531125,-1.404398 -1.06225,-2.457694 L 32.478673,10.693494 28.760801,7.0069528 26.105178,8.9379979 C 25.219971,8.4113489 24.334763,8.060249 23.626597,7.8846999 l -0.354083,-3.159892 -5.134204,0 -0.531124,3.159892 c -0.885208,0.1755544 -1.593374,0.526649 -2.478582,1.053298 L 12.472981,7.0069528 8.7551094,10.693494 10.525525,13.326737 c -0.5311249,0.877747 -0.7081665,1.579945 -1.0622495,2.457694 l -3.0097059,0.351098 0,5.090939 3.1867474,0.526649 c 0.1770415,0.877747 0.531125,1.579945 1.062249,2.457692 l -1.7704151,2.633245 3.7178721,3.686541 2.655623,-1.755496 c 0.708166,0.3511 1.593374,0.702198 2.478581,1.053296 l 0.531124,3.159894 5.311246,0 0.531125,-3.159894 c 0.885207,-0.175554 1.593373,-0.526647 2.478581,-1.053296 l 2.655623,1.931045 3.717872,-3.686541 -1.947457,-2.633245 c 0.531125,-0.877747 0.885208,-1.755494 1.062249,-2.457692 l 2.655623,-0.526649 z m -14.163322,2.633245 c -3.009705,0 -5.311245,-2.282145 -5.311245,-5.266488 0,-2.984343 2.30154,-5.266488 5.311245,-5.266488 3.009706,0 5.311246,2.282145 5.311246,5.266488 0,2.984343 -2.30154,5.266488 -5.311246,5.266488 z"
     id="path3"
     inkscape:connector-curvature="0"
     style="fill:#ffffff;fill-opacity:1" /><ellipse
     style="opacity:1;fill:none;fill-opacity:1;stroke:none;stroke-width:11.53299999;stroke-miterlimit:4;stroke-dasharray:none;stroke-opacity:1"
     id="path4137"
     cx="0.052008986"
     cy="17.268635"
     rx="22.576271"
     ry="24.305084" /><ellipse
     ry="18.950724"
     rx="21.051554"
     cy="19.05617"
     cx="70.829407"
     id="ellipse4183"
     style="opacity:1;fill:#000000;fill-opacity:1;fill-rule:nonzero;stroke:none;stroke-width:0.2151238;stroke-miterlimit:4;stroke-dasharray:none;stroke-opacity:1" /><g
     transform="scale(1.0293185,0.9715166)"
     style="font-style:normal;font-weight:normal;font-size:68.7995224px;line-height:125%;font-family:Sans;letter-spacing:0px;word-spacing:0px;fill:#ffffff;fill-opacity:1;stroke:none;stroke-width:1px;stroke-linecap:butt;stroke-linejoin:miter;stroke-opacity:1"
     id="text4185"><path
       d="m 38.923462,9.2141663 1.060295,0 0,3.2123797 3.852757,0 0,-3.2123797 1.060295,0 0,7.8367367 -1.060295,0 0,-3.732029 -3.852757,0 0,3.732029 -1.060295,0 0,-7.8367367 z"
       style="font-size:10.74992466px;fill:#ffffff;fill-opacity:1"
       id="path4141" /><path
       d="m 49.636644,14.095724 q -1.170524,0 -1.621937,0.267698 -0.451412,0.267698 -0.451412,0.913324 0,0.514401 0.335935,0.818842 0.341184,0.299192 0.923821,0.299192 0.803095,0 1.286002,-0.566891 0.488156,-0.572139 0.488156,-1.516957 l 0,-0.215208 -0.960565,0 z m 1.926378,-0.398923 0,3.354102 -0.965813,0 0,-0.892327 q -0.330686,0.535396 -0.824091,0.792597 -0.493405,0.251951 -1.207267,0.251951 -0.902826,0 -1.438222,-0.503903 -0.530148,-0.509151 -0.530148,-1.359487 0,-0.992059 0.661372,-1.495962 0.666622,-0.503902 1.984117,-0.503902 l 1.354239,0 0,-0.09448 q 0,-0.666621 -0.440915,-1.028801 -0.435666,-0.367429 -1.228263,-0.367429 -0.503903,0 -0.98156,0.120726 -0.477658,0.120727 -0.918573,0.36218 l 0,-0.892327 q 0.530148,-0.204711 1.028801,-0.304442 0.498654,-0.104979 0.971063,-0.104979 1.275504,0 1.905382,0.661372 0.629878,0.661372 0.629878,2.005113 z"
       style="font-size:10.74992466px;fill:#ffffff;fill-opacity:1"
       id="path4143" /><path
       d="m 57.798818,14.11672 q 0,-1.065545 -0.440915,-1.669178 -0.435666,-0.608882 -1.202018,-0.608882 -0.766352,0 -1.207267,0.608882 -0.435665,0.603633 -0.435665,1.669178 0,1.065544 0.435665,1.674427 0.440915,0.603633 1.207267,0.603633 0.766352,0 1.202018,-0.603633 0.440915,-0.608883 0.440915,-1.674427 z m -3.285865,-2.052354 q 0.304441,-0.524899 0.766352,-0.77685 0.467159,-0.2572 1.112785,-0.2572 1.070793,0 1.737414,0.850335 0.671871,0.850336 0.671871,2.236069 0,1.385732 -0.671871,2.236068 -0.666621,0.850336 -1.737414,0.850336 -0.645626,0 -1.112785,-0.251951 -0.461911,-0.257201 -0.766352,-0.782099 l 0,0.881829 -0.971063,0 0,-8.1674229 0.971063,0 0,3.1808859 z"
       style="font-size:10.74992466px;fill:#ffffff;fill-opacity:1"
       id="path4145" /><path
       d="m 60.402316,11.172038 0.965813,0 0,5.878865 -0.965813,0 0,-5.878865 z m 0,-2.2885579 0.965813,0 0,1.2230139 -0.965813,0 0,-1.2230139 z"
       style="font-size:10.74992466px;fill:#ffffff;fill-opacity:1"
       id="path4147" /><path
       d="m 64.339056,9.5028605 0,1.6691775 1.989366,0 0,0.750605 -1.989366,0 0,3.191384 q 0,0.719111 0.194212,0.923822 0.199462,0.20471 0.803095,0.20471 l 0.992059,0 0,0.808344 -0.992059,0 q -1.118034,0 -1.543202,-0.41467 -0.425168,-0.419919 -0.425168,-1.522206 l 0,-3.191384 -0.708613,0 0,-0.750605 0.708613,0 0,-1.6691775 0.971063,0 z"
       style="font-size:10.74992466px;fill:#ffffff;fill-opacity:1"
       id="path4149" /><path
       d="m 67.603926,8.8834801 0.965814,0 0,8.1674229 -0.965814,0 0,-8.1674229 z"
       style="font-size:10.74992466px;fill:#ffffff;fill-opacity:1"
       id="path4151" /><path
       d="m 73.257085,14.095724 q -1.170524,0 -1.621937,0.267698 -0.451413,0.267698 -0.451413,0.913324 0,0.514401 0.335935,0.818842 0.341184,0.299192 0.923822,0.299192 0.803095,0 1.286002,-0.566891 0.488155,-0.572139 0.488155,-1.516957 l 0,-0.215208 -0.960564,0 z m 1.926378,-0.398923 0,3.354102 -0.965814,0 0,-0.892327 q -0.330686,0.535396 -0.824091,0.792597 -0.493404,0.251951 -1.207267,0.251951 -0.902825,0 -1.438222,-0.503903 -0.530147,-0.509151 -0.530147,-1.359487 0,-0.992059 0.661372,-1.495962 0.666621,-0.503902 1.984117,-0.503902 l 1.354238,0 0,-0.09448 q 0,-0.666621 -0.440915,-1.028801 -0.435665,-0.367429 -1.228262,-0.367429 -0.503903,0 -0.981561,0.120726 -0.477658,0.120727 -0.918573,0.36218 l 0,-0.892327 q 0.530148,-0.204711 1.028802,-0.304442 0.498654,-0.104979 0.971062,-0.104979 1.275504,0 1.905382,0.661372 0.629879,0.661372 0.629879,2.005113 z"
       style="font-size:10.74992466px;fill:#ffffff;fill-opacity:1"
       id="path4153" /><path
       d="m 81.41926,14.11672 q 0,-1.065545 -0.440915,-1.669178 -0.435666,-0.608882 -1.202018,-0.608882 -0.766352,0 -1.207267,0.608882 -0.435666,0.603633 -0.435666,1.669178 0,1.065544 0.435666,1.674427 0.440915,0.603633 1.207267,0.603633 0.766352,0 1.202018,-0.603633 0.440915,-0.608883 0.440915,-1.674427 z m -3.285866,-2.052354 q 0.304441,-0.524899 0.766352,-0.77685 0.46716,-0.2572 1.112785,-0.2572 1.070793,0 1.737415,0.850335 0.67187,0.850336 0.67187,2.236069 0,1.385732 -0.67187,2.236068 -0.666622,0.850336 -1.737415,0.850336 -0.645625,0 -1.112785,-0.251951 -0.461911,-0.257201 -0.766352,-0.782099 l 0,0.881829 -0.971063,0 0,-8.1674229 0.971063,0 0,3.1808859 z"
       style="font-size:10.74992466px;fill:#ffffff;fill-opacity:1"
       id="path4155" /><path
       d="m 42.104348,23.370683 q -1.154777,0 -1.837145,0.860834 -0.67712,0.860834 -0.67712,2.346297 0,1.480214 0.67712,2.341048 0.682368,0.860834 1.837145,0.860834 1.154777,0 1.826647,-0.860834 0.67712,-0.860834 0.67712,-2.341048 0,-1.485463 -0.67712,-2.346297 -0.67187,-0.860834 -1.826647,-0.860834 z m 0,-0.860834 q 1.648182,0 2.634991,1.107537 0.98681,1.102287 0.98681,2.960428 0,1.852892 -0.98681,2.960429 -0.986809,1.102287 -2.634991,1.102287 -1.653431,0 -2.645489,-1.102287 -0.98681,-1.102288 -0.98681,-2.960429 0,-1.858141 0.98681,-2.960428 0.992058,-1.107537 2.645489,-1.107537 z"
       style="font-size:10.74992466px;fill:#ffffff;fill-opacity:1"
       id="path4157" /><path
       d="m 48.277157,29.606479 0,3.117898 -0.971063,0 0,-8.114933 0.971063,0 0,0.892328 q 0.304441,-0.524899 0.766352,-0.77685 0.467159,-0.257201 1.112785,-0.257201 1.070793,0 1.737414,0.850336 0.671871,0.850336 0.671871,2.236069 0,1.385732 -0.671871,2.236068 -0.666621,0.850336 -1.737414,0.850336 -0.645626,0 -1.112785,-0.251952 -0.461911,-0.2572 -0.766352,-0.782099 z m 3.285865,-2.052353 q 0,-1.065545 -0.440915,-1.669178 -0.435666,-0.608883 -1.202018,-0.608883 -0.766352,0 -1.207267,0.608883 -0.435665,0.603633 -0.435665,1.669178 0,1.065544 0.435665,1.674426 0.440915,0.603634 1.207267,0.603634 0.766352,0 1.202018,-0.603634 0.440915,-0.608882 0.440915,-1.674426 z"
       style="font-size:10.74992466px;fill:#ffffff;fill-opacity:1"
       id="path4159" /><path
       d="m 55.121835,22.940266 0,1.669178 1.989366,0 0,0.750605 -1.989366,0 0,3.191384 q 0,0.719111 0.194213,0.923822 0.199461,0.20471 0.803095,0.20471 l 0.992058,0 0,0.808344 -0.992058,0 q -1.118034,0 -1.543202,-0.41467 -0.425168,-0.419919 -0.425168,-1.522206 l 0,-3.191384 -0.708613,0 0,-0.750605 0.708613,0 0,-1.669178 0.971062,0 z"
       style="font-size:10.74992466px;fill:#ffffff;fill-opacity:1"
       id="path4161" /><path
       d="m 58.386704,24.609444 0.965814,0 0,5.878865 -0.965814,0 0,-5.878865 z m 0,-2.288558 0.965814,0 0,1.223014 -0.965814,0 0,-1.223014 z"
       style="font-size:10.74992466px;fill:#ffffff;fill-opacity:1"
       id="path4163" /><path
       d="m 63.64619,25.286563 q -0.77685,0 -1.228262,0.608883 -0.451413,0.603633 -0.451413,1.65868 0,1.055046 0.446164,1.663928 0.451412,0.603634 1.233511,0.603634 0.771602,0 1.223014,-0.608883 0.451413,-0.608882 0.451413,-1.658679 0,-1.044549 -0.451413,-1.653431 -0.451412,-0.614132 -1.223014,-0.614132 z m 0,-0.818842 q 1.259757,0 1.978868,0.818842 0.719112,0.818842 0.719112,2.267563 0,1.443471 -0.719112,2.267562 -0.719111,0.818842 -1.978868,0.818842 -1.265005,0 -1.984116,-0.818842 -0.713863,-0.824091 -0.713863,-2.267562 0,-1.448721 0.713863,-2.267563 0.719111,-0.818842 1.984116,-0.818842 z"
       style="font-size:10.74992466px;fill:#ffffff;fill-opacity:1"
       id="path4165" /><path
       d="m 72.826666,26.939994 0,3.548315 -0.965813,0 0,-3.516821 q 0,-0.834589 -0.325437,-1.249259 -0.325437,-0.41467 -0.976312,-0.41467 -0.782099,0 -1.233512,0.498654 -0.451412,0.498654 -0.451412,1.359488 l 0,3.322608 -0.971063,0 0,-5.878865 0.971063,0 0,0.913324 q 0.346433,-0.530148 0.813592,-0.792597 0.472409,-0.26245 1.086541,-0.26245 1.013054,0 1.532704,0.629879 0.519649,0.624629 0.519649,1.842394 z"
       style="font-size:10.74992466px;fill:#ffffff;fill-opacity:1"
       id="path4167" /><path
       d="m 78.511319,24.782661 0,0.913323 q -0.409421,-0.209959 -0.850336,-0.314939 -0.440915,-0.10498 -0.913323,-0.10498 -0.719112,0 -1.081292,0.220458 -0.356931,0.220457 -0.356931,0.661372 0,0.335935 0.257201,0.530148 0.2572,0.188963 1.03405,0.36218 l 0.330686,0.07349 q 1.028802,0.220457 1.459218,0.624629 0.435666,0.398923 0.435666,1.118034 0,0.818842 -0.650874,1.2965 -0.645625,0.477658 -1.779406,0.477658 -0.472409,0 -0.98681,-0.09448 -0.509152,-0.08923 -1.076042,-0.272947 l 0,-0.997308 q 0.535396,0.278197 1.055046,0.419919 0.51965,0.136474 1.028801,0.136474 0.682369,0 1.049798,-0.230956 0.367429,-0.236204 0.367429,-0.661372 0,-0.393674 -0.267698,-0.603633 -0.26245,-0.20996 -1.160026,-0.404172 l -0.335936,-0.07873 q -0.897576,-0.188964 -1.296499,-0.577389 -0.398923,-0.393674 -0.398923,-1.076042 0,-0.82934 0.587886,-1.280753 0.587887,-0.451413 1.669178,-0.451413 0.535397,0 1.007805,0.07873 0.472409,0.07874 0.871332,0.236205 z"
       style="font-size:10.74992466px;fill:#ffffff;fill-opacity:1"
       id="path4169" /></g></svg>