<?xml version="1.0" encoding="UTF-8" standalone="no"?>
<!-- Generator: Adobe Illustrator 21.0.0, SVG Export Plug-In . SVG Version: 6.00 Build 0)  -->

<svg
   xmlns:dc="http://purl.org/dc/elements/1.1/"
   xmlns:cc="http://creativecommons.org/ns#"
   xmlns:rdf="http://www.w3.org/1999/02/22-rdf-syntax-ns#"
   xmlns:svg="http://www.w3.org/2000/svg"
   xmlns="http://www.w3.org/2000/svg"
   xmlns:sodipodi="http://sodipodi.sourceforge.net/DTD/sodipodi-0.dtd"
   xmlns:inkscape="http://www.inkscape.org/namespaces/inkscape"
   version="1.1"
   id="Layer_1"
   inkscape:version="0.92.1 r"
   sodipodi:docname="habitlab_gear_with_text_v3.svg"
   x="0px"
   y="0px"
   viewBox="0 0 91.9 38"
   xml:space="preserve"
   width="98.026665"
   height="40.533333"><metadata
     id="metadata28"><rdf:RDF><cc:Work
         rdf:about=""><dc:format>image/svg+xml</dc:format><dc:type
           rdf:resource="http://purl.org/dc/dcmitype/StillImage" /></cc:Work></rdf:RDF></metadata><defs
     id="defs26" /><style
     type="text/css"
     id="style2">
	.st0{fill:#415D67;}
	.st1{fill:#FFFFFF;}
	.st2{fill:none;}
</style><sodipodi:namedview
     bordercolor="#666666"
     borderopacity="1"
     fit-margin-bottom="0"
     fit-margin-left="0"
     fit-margin-right="0"
     fit-margin-top="0"
     gridtolerance="10"
     guidetolerance="10"
     id="namedview5"
     inkscape:current-layer="Layer_1"
     inkscape:cx="23.373118"
     inkscape:cy="18.807936"
     inkscape:pageopacity="0"
     inkscape:pageshadow="2"
     inkscape:window-height="755"
     inkscape:window-maximized="0"
     inkscape:window-width="1280"
     inkscape:window-x="44"
     inkscape:window-y="23"
     inkscape:zoom="3.4766083"
     objecttolerance="10"
     pagecolor="#ffffff"
     showgrid="false" /><rect
     id="rect4161"
     x="20.6"
     width="50.5"
     height="38"
     y="0" /><ellipse
     id="path4139"
     class="st0"
     cx="21.1"
     cy="19"
     rx="21.1"
     ry="18.9"
     style="fill:#415d67" /><path
     id="path3"
     inkscape:connector-curvature="0"
     class="st1"
     d="M 34.8,21.4 V 16.3 L 31.6,15.8 C 31.4,15.1 31.1,14.4 30.5,13.3 L 32.4,10.7 28.8,7 26.1,8.9 C 25.2,8.4 24.3,8 23.6,7.8 L 23.2,4.6 H 18.1 L 17.6,7.8 C 16.7,8 16,8.3 15.1,8.9 L 12.5,7 l -3.7,3.7 1.8,2.6 c -0.5,0.9 -0.7,1.6 -1.1,2.5 l -3,0.4 v 5.1 l 3.2,0.5 c 0.2,0.9 0.5,1.6 1.1,2.5 l -1.8,2.6 3.7,3.7 2.7,-1.8 c 0.7,0.4 1.6,0.7 2.5,1.1 l 0.5,3.2 h 5.3 l 0.5,-3.2 c 0.9,-0.2 1.6,-0.5 2.5,-1.1 L 29.4,30.7 33,27 31.1,24.4 c 0.5,-0.9 0.9,-1.8 1.1,-2.5 -0.1,0 2.6,-0.5 2.6,-0.5 z M 20.6,24 c -3,0 -5.3,-2.3 -5.3,-5.3 0,-3 2.3,-5.3 5.3,-5.3 3,0 5.3,2.3 5.3,5.3 0,3 -2.3,5.3 -5.3,5.3 z"
     style="fill:#ffffff" /><ellipse
     id="path4137"
     class="st2"
     cx="0.1"
     cy="17.299999"
     rx="22.6"
     ry="24.299999"
     style="fill:none" /><ellipse
     id="ellipse4183"
     cx="70.800003"
     cy="19.1"
     rx="21.1"
     ry="19" /><path
     id="path4141"
     class="st1"
     d="m 40.1,9 h 1.1 v 3.1 h 4 V 9 h 1.1 v 7.6 H 45.2 V 13 h -4 v 3.6 h -1.1 z"
     inkscape:connector-curvature="0"
     style="fill:#ffffff" /><path
     id="path4143"
     class="st1"
     d="m 51.1,13.7 c -0.8,0 -1.4,0.1 -1.7,0.3 -0.3,0.2 -0.5,0.5 -0.5,0.9 0,0.3 0.1,0.6 0.3,0.8 0.2,0.2 0.6,0.3 1,0.3 0.6,0 1,-0.2 1.3,-0.6 C 51.8,15 52,14.5 52,13.9 v -0.2 c 0.1,0 -0.9,0 -0.9,0 z m 2,-0.4 v 3.3 h -1 v -0.9 c -0.2,0.3 -0.5,0.6 -0.8,0.8 -0.3,0.2 -0.8,0.2 -1.2,0.2 -0.6,0 -1.1,-0.2 -1.5,-0.5 -0.4,-0.3 -0.5,-0.8 -0.5,-1.3 0,-0.6 0.2,-1.1 0.7,-1.5 0.5,-0.3 1.1,-0.5 2,-0.5 h 1.4 v -0.1 c 0,-0.4 -0.2,-0.8 -0.5,-1 -0.3,-0.2 -0.7,-0.4 -1.3,-0.4 -0.3,0 -0.7,0 -1,0.1 -0.3,0.1 -0.6,0.2 -0.9,0.4 V 11 c 0.4,-0.1 0.7,-0.2 1.1,-0.3 0.3,-0.1 0.7,-0.1 1,-0.1 0.9,0 1.5,0.2 2,0.6 0.5,0.4 0.5,1.2 0.5,2.1 z"
     inkscape:connector-curvature="0"
     style="fill:#ffffff" /><path
     id="path4145"
     class="st1"
     d="m 59.5,13.7 c 0,-0.7 -0.2,-1.2 -0.5,-1.6 -0.3,-0.4 -0.7,-0.6 -1.2,-0.6 -0.5,0 -0.9,0.2 -1.2,0.6 -0.3,0.4 -0.4,0.9 -0.4,1.6 0,0.7 0.1,1.2 0.4,1.6 0.3,0.4 0.7,0.6 1.2,0.6 0.5,0 0.9,-0.2 1.2,-0.6 0.3,-0.4 0.5,-0.9 0.5,-1.6 z m -3.4,-2 c 0.2,-0.3 0.5,-0.6 0.8,-0.8 0.3,-0.2 0.7,-0.2 1.1,-0.2 0.7,0 1.3,0.3 1.8,0.8 0.5,0.6 0.7,1.3 0.7,2.2 0,0.9 -0.2,1.6 -0.7,2.2 -0.5,0.6 -1.1,0.8 -1.8,0.8 -0.4,0 -0.8,-0.1 -1.1,-0.2 -0.3,-0.2 -0.6,-0.4 -0.8,-0.8 v 0.9 h -1 v -8 h 1 c 0,0 0,3.1 0,3.1 z"
     inkscape:connector-curvature="0"
     style="fill:#ffffff" /><path
     id="path4147"
     class="st1"
     d="m 62.2,10.9 h 1 v 5.7 h -1 c 0,0 0,-5.7 0,-5.7 z m 0,-2.3 h 1 v 1.2 h -1 z"
     inkscape:connector-curvature="0"
     style="fill:#ffffff" /><path
     id="path4149"
     class="st1"
     d="m 66.2,9.2 v 1.6 h 2 v 0.7 h -2 v 3.1 c 0,0.5 0.1,0.8 0.2,0.9 0.1,0.1 0.4,0.2 0.8,0.2 h 1 v 0.8 h -1 c -0.8,0 -1.3,-0.1 -1.6,-0.4 -0.3,-0.3 -0.4,-0.8 -0.4,-1.5 v -3.1 h -0.7 v -0.7 h 0.7 V 9.2 c 0,0 1,0 1,0 z"
     inkscape:connector-curvature="0"
     style="fill:#ffffff" /><path
     id="path4151"
     class="st1"
     d="m 69.6,8.6 h 1 v 7.9 h -1 z"
     inkscape:connector-curvature="0"
     style="fill:#ffffff" /><path
     id="path4153"
     class="st1"
     d="m 75.4,13.7 c -0.8,0 -1.4,0.1 -1.7,0.3 -0.3,0.2 -0.5,0.5 -0.5,0.9 0,0.3 0.1,0.6 0.3,0.8 0.2,0.2 0.6,0.3 1,0.3 0.6,0 1,-0.2 1.3,-0.6 0.3,-0.4 0.5,-0.9 0.5,-1.5 v -0.2 c 0.1,0 -0.9,0 -0.9,0 z m 2,-0.4 v 3.3 h -1 v -0.9 c -0.2,0.3 -0.5,0.6 -0.8,0.8 -0.3,0.2 -0.8,0.2 -1.2,0.2 -0.6,0 -1.1,-0.2 -1.5,-0.5 -0.4,-0.3 -0.5,-0.8 -0.5,-1.3 0,-0.6 0.2,-1.1 0.7,-1.5 0.5,-0.3 1.1,-0.5 2,-0.5 h 1.4 v -0.1 c 0,-0.4 -0.2,-0.8 -0.5,-1 -0.3,-0.2 -0.7,-0.4 -1.3,-0.4 -0.3,0 -0.7,0 -1,0.1 -0.3,0.1 -0.6,0.2 -0.9,0.4 V 11 c 0.4,-0.1 0.7,-0.2 1.1,-0.3 0.3,-0.1 0.7,-0.1 1,-0.1 0.9,0 1.5,0.2 2,0.6 0.5,0.4 0.5,1.2 0.5,2.1 z"
     inkscape:connector-curvature="0"
     style="fill:#ffffff" /><path
     id="path4155"
     class="st1"
     d="m 83.8,13.7 c 0,-0.7 -0.2,-1.2 -0.5,-1.6 -0.3,-0.4 -0.7,-0.6 -1.2,-0.6 -0.5,0 -0.9,0.2 -1.2,0.6 -0.3,0.4 -0.4,0.9 -0.4,1.6 0,0.7 0.1,1.2 0.4,1.6 0.3,0.4 0.7,0.6 1.2,0.6 0.5,0 0.9,-0.2 1.2,-0.6 0.4,-0.4 0.5,-0.9 0.5,-1.6 z m -3.4,-2 c 0.2,-0.3 0.5,-0.6 0.8,-0.8 0.3,-0.2 0.7,-0.2 1.1,-0.2 0.7,0 1.3,0.3 1.8,0.8 0.5,0.6 0.7,1.3 0.7,2.2 0,0.9 -0.2,1.6 -0.7,2.2 -0.5,0.6 -1.1,0.8 -1.8,0.8 -0.4,0 -0.8,-0.1 -1.1,-0.2 -0.3,-0.2 -0.6,-0.4 -0.8,-0.8 v 0.9 h -1 v -8 h 1 c 0,0 0,3.1 0,3.1 z"
     inkscape:connector-curvature="0"
     style="fill:#ffffff" /><path
     id="path4157"
     class="st1"
     d="m 43.3,22.7 c -0.8,0 -1.4,0.3 -1.9,0.8 -0.5,0.6 -0.7,1.3 -0.7,2.3 0,1 0.2,1.7 0.7,2.3 0.5,0.6 1.1,0.8 1.9,0.8 0.8,0 1.4,-0.3 1.9,-0.8 0.5,-0.6 0.7,-1.3 0.7,-2.3 0,-1 -0.2,-1.7 -0.7,-2.3 -0.4,-0.5 -1.1,-0.8 -1.9,-0.8 z m 0,-0.8 c 1.1,0 2,0.4 2.7,1.1 0.7,0.7 1,1.7 1,2.9 0,1.2 -0.3,2.2 -1,2.9 -0.7,0.7 -1.6,1.1 -2.7,1.1 -1.1,0 -2,-0.4 -2.7,-1.1 -0.7,-0.7 -1,-1.7 -1,-2.9 0,-1.2 0.3,-2.2 1,-2.9 0.7,-0.8 1.6,-1.1 2.7,-1.1 z"
     inkscape:connector-curvature="0"
     style="fill:#ffffff" /><path
     id="path4159"
     class="st1"
     d="m 49.7,28.8 v 3 h -1 v -7.9 h 1 v 0.9 c 0.2,-0.3 0.5,-0.6 0.8,-0.8 0.3,-0.2 0.7,-0.2 1.1,-0.2 0.7,0 1.3,0.3 1.8,0.8 0.5,0.6 0.7,1.3 0.7,2.2 0,0.9 -0.2,1.6 -0.7,2.2 -0.5,0.6 -1.1,0.8 -1.8,0.8 -0.4,0 -0.8,-0.1 -1.1,-0.2 -0.3,-0.2 -0.6,-0.5 -0.8,-0.8 z m 3.4,-2 c 0,-0.7 -0.2,-1.2 -0.5,-1.6 -0.3,-0.4 -0.7,-0.6 -1.2,-0.6 -0.5,0 -0.9,0.2 -1.2,0.6 -0.3,0.4 -0.4,0.9 -0.4,1.6 0,0.7 0.1,1.2 0.4,1.6 0.3,0.4 0.7,0.6 1.2,0.6 0.5,0 0.9,-0.2 1.2,-0.6 0.3,-0.4 0.5,-0.9 0.5,-1.6 z"
     inkscape:connector-curvature="0"
     style="fill:#ffffff" /><path
     id="path4161"
     class="st1"
     d="m 56.7,22.3 v 1.6 h 2 v 0.7 h -2 v 3.1 c 0,0.5 0.1,0.8 0.2,0.9 0.1,0.1 0.4,0.2 0.8,0.2 h 1 v 0.8 h -1 c -0.8,0 -1.3,-0.1 -1.6,-0.4 -0.3,-0.3 -0.4,-0.8 -0.4,-1.5 V 24.6 H 55 v -0.7 h 0.7 v -1.6 c 0,0 1,0 1,0 z"
     inkscape:connector-curvature="0"
     style="fill:#ffffff" /><path
     id="path4163"
     class="st1"
     d="m 60.1,23.9 h 1 v 5.7 h -1 z m 0,-2.2 h 1 v 1.2 h -1 z"
     inkscape:connector-curvature="0"
     style="fill:#ffffff" /><path
     id="path4165"
     class="st1"
     d="m 65.5,24.6 c -0.5,0 -1,0.2 -1.3,0.6 -0.3,0.4 -0.5,0.9 -0.5,1.6 0,0.7 0.2,1.2 0.5,1.6 0.3,0.4 0.7,0.6 1.3,0.6 0.5,0 0.9,-0.2 1.3,-0.6 0.3,-0.4 0.5,-0.9 0.5,-1.6 0,-0.7 -0.2,-1.2 -0.5,-1.6 -0.3,-0.4 -0.8,-0.6 -1.3,-0.6 z m 0,-0.8 c 0.9,0 1.5,0.3 2,0.8 0.5,0.5 0.7,1.3 0.7,2.2 0,0.9 -0.2,1.7 -0.7,2.2 -0.5,0.5 -1.2,0.8 -2,0.8 -0.9,0 -1.5,-0.3 -2,-0.8 -0.5,-0.5 -0.7,-1.3 -0.7,-2.2 0,-0.9 0.2,-1.7 0.7,-2.2 0.5,-0.6 1.1,-0.8 2,-0.8 z"
     inkscape:connector-curvature="0"
     style="fill:#ffffff" /><path
     id="path4167"
     class="st1"
     d="m 75,26.2 v 3.4 h -1 v -3.4 c 0,-0.5 -0.1,-0.9 -0.3,-1.2 -0.2,-0.3 -0.6,-0.4 -1,-0.4 -0.5,0 -1,0.2 -1.3,0.5 -0.3,0.3 -0.5,0.8 -0.5,1.3 v 3.2 h -1 v -5.7 h 1 v 0.9 c 0.2,-0.3 0.5,-0.6 0.8,-0.8 0.3,-0.2 0.7,-0.3 1.1,-0.3 0.7,0 1.2,0.2 1.6,0.6 0.4,0.5 0.6,1.1 0.6,1.9 z"
     inkscape:connector-curvature="0"
     style="fill:#ffffff" /><path
     id="path4169"
     class="st1"
     d="M 80.8,24.1 V 25 c -0.3,-0.1 -0.6,-0.2 -0.9,-0.3 -0.3,-0.1 -0.6,-0.1 -0.9,-0.1 -0.5,0 -0.9,0.1 -1.1,0.2 -0.2,0.1 -0.4,0.4 -0.4,0.6 0,0.2 0.1,0.4 0.3,0.5 0.2,0.1 0.5,0.2 1.1,0.4 l 0.3,0.1 c 0.7,0.1 1.2,0.3 1.5,0.6 0.3,0.3 0.4,0.6 0.4,1.1 0,0.5 -0.2,1 -0.7,1.3 -0.4,0.3 -1.1,0.5 -1.8,0.5 -0.3,0 -0.7,0 -1,-0.1 -0.3,-0.1 -0.7,-0.1 -1.1,-0.3 v -1 c 0.4,0.2 0.7,0.3 1.1,0.4 0.4,0.1 0.7,0.1 1.1,0.1 0.5,0 0.8,-0.1 1.1,-0.2 0.3,-0.2 0.4,-0.4 0.4,-0.6 0,-0.3 -0.1,-0.5 -0.3,-0.6 -0.2,-0.1 -0.6,-0.3 -1.2,-0.4 l -0.3,-0.1 c -0.6,-0.1 -1.1,-0.3 -1.3,-0.6 -0.3,-0.3 -0.4,-0.6 -0.4,-1 0,-0.5 0.2,-1 0.6,-1.2 0.4,-0.3 1,-0.4 1.7,-0.4 0.4,0 0.7,0 1,0.1 0.2,-0.1 0.5,0 0.8,0.1 z"
     inkscape:connector-curvature="0"
     style="fill:#ffffff" /></svg>