<?xml version="1.0" encoding="utf-8"?>
<!-- Generator: Adobe Illustrator 21.0.0, SVG Export Plug-In . SVG Version: 6.00 Build 0)  -->
<svg version="1.1"
	 id="Layer_1" inkscape:version="0.91 r13725" sodipodi:docname="habitlab_gear_with_text.svg" xmlns:cc="http://creativecommons.org/ns#" xmlns:dc="http://purl.org/dc/elements/1.1/" xmlns:inkscape="http://www.inkscape.org/namespaces/inkscape" xmlns:rdf="http://www.w3.org/1999/02/22-rdf-syntax-ns#" xmlns:sodipodi="http://sodipodi.sourceforge.net/DTD/sodipodi-0.dtd" xmlns:svg="http://www.w3.org/2000/svg"
	 xmlns="http://www.w3.org/2000/svg" xmlns:xlink="http://www.w3.org/1999/xlink" x="0px" y="0px" viewBox="0 0 91.9 38"
	 style="enable-background:new 0 0 91.9 38;" xml:space="preserve">
<style type="text/css">
	.st0{fill:#415D67;}
	.st1{fill:#FFFFFF;}
	.st2{fill:none;}
</style>
<sodipodi:namedview  bordercolor="#666666" borderopacity="1" fit-margin-bottom="0" fit-margin-left="0" fit-margin-right="0" fit-margin-top="0" gridtolerance="10" guidetolerance="10" id="namedview5" inkscape:current-layer="Layer_1" inkscape:cx="23.373118" inkscape:cy="18.807936" inkscape:pageopacity="0" inkscape:pageshadow="2" inkscape:window-height="755" inkscape:window-maximized="0" inkscape:window-width="1280" inkscape:window-x="44" inkscape:window-y="2" inkscape:zoom="3.4766083" objecttolerance="10" pagecolor="#ffffff" showgrid="false">
	</sodipodi:namedview>
<rect id="rect4161" x="20.6" width="50.5" height="38"/>
<ellipse id="path4139" class="st0" cx="21.1" cy="19" rx="21.1" ry="18.9"/>
<path id="path3" inkscape:connector-curvature="0" class="st1" d="M34.8,21.4v-5.1l-3.2-0.5c-0.2-0.7-0.5-1.4-1.1-2.5l1.9-2.6
	L28.8,7l-2.7,1.9c-0.9-0.5-1.8-0.9-2.5-1.1l-0.4-3.2h-5.1l-0.5,3.2c-0.9,0.2-1.6,0.5-2.5,1.1L12.5,7l-3.7,3.7l1.8,2.6
	c-0.5,0.9-0.7,1.6-1.1,2.5l-3,0.4v5.1l3.2,0.5c0.2,0.9,0.5,1.6,1.1,2.5l-1.8,2.6l3.7,3.7l2.7-1.8c0.7,0.4,1.6,0.7,2.5,1.1l0.5,3.2
	h5.3l0.5-3.2c0.9-0.2,1.6-0.5,2.5-1.1l2.7,1.9L33,27l-1.9-2.6c0.5-0.9,0.9-1.8,1.1-2.5C32.1,21.9,34.8,21.4,34.8,21.4z M20.6,24
	c-3,0-5.3-2.3-5.3-5.3s2.3-5.3,5.3-5.3s5.3,2.3,5.3,5.3S23.6,24,20.6,24z"/>
<ellipse id="path4137" class="st2" cx="0.1" cy="17.3" rx="22.6" ry="24.3"/>
<ellipse id="ellipse4183" cx="70.8" cy="19.1" rx="21.1" ry="19"/>
<path id="path4141" class="st1" d="M40.1,9h1.1v3.1h4V9h1.1v7.6h-1.1v-3.6h-4v3.6h-1.1V9z"/>
<path id="path4143" class="st1" d="M51.1,13.7c-0.8,0-1.4,0.1-1.7,0.3c-0.3,0.2-0.5,0.5-0.5,0.9c0,0.3,0.1,0.6,0.3,0.8
	c0.2,0.2,0.6,0.3,1,0.3c0.6,0,1-0.2,1.3-0.6c0.3-0.4,0.5-0.9,0.5-1.5v-0.2C52.1,13.7,51.1,13.7,51.1,13.7z M53.1,13.3v3.3h-1v-0.9
	c-0.2,0.3-0.5,0.6-0.8,0.8c-0.3,0.2-0.8,0.2-1.2,0.2c-0.6,0-1.1-0.2-1.5-0.5c-0.4-0.3-0.5-0.8-0.5-1.3c0-0.6,0.2-1.1,0.7-1.5
	c0.5-0.3,1.1-0.5,2-0.5h1.4v-0.1c0-0.4-0.2-0.8-0.5-1c-0.3-0.2-0.7-0.4-1.3-0.4c-0.3,0-0.7,0-1,0.1c-0.3,0.1-0.6,0.2-0.9,0.4v-0.9
	c0.4-0.1,0.7-0.2,1.1-0.3c0.3-0.1,0.7-0.1,1-0.1c0.9,0,1.5,0.2,2,0.6S53.1,12.4,53.1,13.3z"/>
<path id="path4145" class="st1" d="M59.5,13.7c0-0.7-0.2-1.2-0.5-1.6c-0.3-0.4-0.7-0.6-1.2-0.6c-0.5,0-0.9,0.2-1.2,0.6
	c-0.3,0.4-0.4,0.9-0.4,1.6c0,0.7,0.1,1.2,0.4,1.6c0.3,0.4,0.7,0.6,1.2,0.6c0.5,0,0.9-0.2,1.2-0.6C59.3,14.9,59.5,14.4,59.5,13.7z
	 M56.1,11.7c0.2-0.3,0.5-0.6,0.8-0.8c0.3-0.2,0.7-0.2,1.1-0.2c0.7,0,1.3,0.3,1.8,0.8c0.5,0.6,0.7,1.3,0.7,2.2s-0.2,1.6-0.7,2.2
	c-0.5,0.6-1.1,0.8-1.8,0.8c-0.4,0-0.8-0.1-1.1-0.2c-0.3-0.2-0.6-0.4-0.8-0.8v0.9h-1V8.6h1C56.1,8.6,56.1,11.7,56.1,11.7z"/>
<path id="path4147" class="st1" d="M62.2,10.9h1v5.7h-1C62.2,16.6,62.2,10.9,62.2,10.9z M62.2,8.6h1v1.2h-1V8.6z"/>
<path id="path4149" class="st1" d="M66.2,9.2v1.6h2v0.7h-2v3.1c0,0.5,0.1,0.8,0.2,0.9c0.1,0.1,0.4,0.2,0.8,0.2h1v0.8h-1
	c-0.8,0-1.3-0.1-1.6-0.4c-0.3-0.3-0.4-0.8-0.4-1.5v-3.1h-0.7v-0.7h0.7V9.2C65.2,9.2,66.2,9.2,66.2,9.2z"/>
<path id="path4151" class="st1" d="M69.6,8.6h1v7.9h-1V8.6z"/>
<path id="path4153" class="st1" d="M75.4,13.7c-0.8,0-1.4,0.1-1.7,0.3c-0.3,0.2-0.5,0.5-0.5,0.9c0,0.3,0.1,0.6,0.3,0.8
	c0.2,0.2,0.6,0.3,1,0.3c0.6,0,1-0.2,1.3-0.6c0.3-0.4,0.5-0.9,0.5-1.5v-0.2C76.4,13.7,75.4,13.7,75.4,13.7z M77.4,13.3v3.3h-1v-0.9
	c-0.2,0.3-0.5,0.6-0.8,0.8c-0.3,0.2-0.8,0.2-1.2,0.2c-0.6,0-1.1-0.2-1.5-0.5c-0.4-0.3-0.5-0.8-0.5-1.3c0-0.6,0.2-1.1,0.7-1.5
	c0.5-0.3,1.1-0.5,2-0.5h1.4v-0.1c0-0.4-0.2-0.8-0.5-1c-0.3-0.2-0.7-0.4-1.3-0.4c-0.3,0-0.7,0-1,0.1c-0.3,0.1-0.6,0.2-0.9,0.4v-0.9
	c0.4-0.1,0.7-0.2,1.1-0.3c0.3-0.1,0.7-0.1,1-0.1c0.9,0,1.5,0.2,2,0.6S77.4,12.4,77.4,13.3z"/>
<path id="path4155" class="st1" d="M83.8,13.7c0-0.7-0.2-1.2-0.5-1.6c-0.3-0.4-0.7-0.6-1.2-0.6c-0.5,0-0.9,0.2-1.2,0.6
	c-0.3,0.4-0.4,0.9-0.4,1.6c0,0.7,0.1,1.2,0.4,1.6c0.3,0.4,0.7,0.6,1.2,0.6c0.5,0,0.9-0.2,1.2-0.6C83.7,14.9,83.8,14.4,83.8,13.7z
	 M80.4,11.7c0.2-0.3,0.5-0.6,0.8-0.8c0.3-0.2,0.7-0.2,1.1-0.2c0.7,0,1.3,0.3,1.8,0.8c0.5,0.6,0.7,1.3,0.7,2.2s-0.2,1.6-0.7,2.2
	c-0.5,0.6-1.1,0.8-1.8,0.8c-0.4,0-0.8-0.1-1.1-0.2c-0.3-0.2-0.6-0.4-0.8-0.8v0.9h-1V8.6h1C80.4,8.6,80.4,11.7,80.4,11.7z"/>
<path id="path4157" class="st1" d="M43.3,22.7c-0.8,0-1.4,0.3-1.9,0.8c-0.5,0.6-0.7,1.3-0.7,2.3c0,1,0.2,1.7,0.7,2.3
	c0.5,0.6,1.1,0.8,1.9,0.8c0.8,0,1.4-0.3,1.9-0.8c0.5-0.6,0.7-1.3,0.7-2.3c0-1-0.2-1.7-0.7-2.3C44.8,23,44.1,22.7,43.3,22.7z
	 M43.3,21.9c1.1,0,2,0.4,2.7,1.1c0.7,0.7,1,1.7,1,2.9c0,1.2-0.3,2.2-1,2.9c-0.7,0.7-1.6,1.1-2.7,1.1c-1.1,0-2-0.4-2.7-1.1
	c-0.7-0.7-1-1.7-1-2.9c0-1.2,0.3-2.2,1-2.9C41.3,22.2,42.2,21.9,43.3,21.9z"/>
<path id="path4159" class="st1" d="M49.7,28.8v3h-1v-7.9h1v0.9c0.2-0.3,0.5-0.6,0.8-0.8c0.3-0.2,0.7-0.2,1.1-0.2
	c0.7,0,1.3,0.3,1.8,0.8c0.5,0.6,0.7,1.3,0.7,2.2c0,0.9-0.2,1.6-0.7,2.2c-0.5,0.6-1.1,0.8-1.8,0.8c-0.4,0-0.8-0.1-1.1-0.2
	C50.2,29.4,49.9,29.1,49.7,28.8z M53.1,26.8c0-0.7-0.2-1.2-0.5-1.6c-0.3-0.4-0.7-0.6-1.2-0.6c-0.5,0-0.9,0.2-1.2,0.6
	c-0.3,0.4-0.4,0.9-0.4,1.6c0,0.7,0.1,1.2,0.4,1.6c0.3,0.4,0.7,0.6,1.2,0.6c0.5,0,0.9-0.2,1.2-0.6C52.9,28,53.1,27.5,53.1,26.8z"/>
<path id="path4161" class="st1" d="M56.7,22.3v1.6h2v0.7h-2v3.1c0,0.5,0.1,0.8,0.2,0.9c0.1,0.1,0.4,0.2,0.8,0.2h1v0.8h-1
	c-0.8,0-1.3-0.1-1.6-0.4c-0.3-0.3-0.4-0.8-0.4-1.5v-3.1H55v-0.7h0.7v-1.6C55.7,22.3,56.7,22.3,56.7,22.3z"/>
<path id="path4163" class="st1" d="M60.1,23.9h1v5.7h-1V23.9z M60.1,21.7h1v1.2h-1V21.7z"/>
<path id="path4165" class="st1" d="M65.5,24.6c-0.5,0-1,0.2-1.3,0.6c-0.3,0.4-0.5,0.9-0.5,1.6c0,0.7,0.2,1.2,0.5,1.6
	c0.3,0.4,0.7,0.6,1.3,0.6c0.5,0,0.9-0.2,1.3-0.6c0.3-0.4,0.5-0.9,0.5-1.6c0-0.7-0.2-1.2-0.5-1.6C66.5,24.8,66,24.6,65.5,24.6z
	 M65.5,23.8c0.9,0,1.5,0.3,2,0.8s0.7,1.3,0.7,2.2c0,0.9-0.2,1.7-0.7,2.2c-0.5,0.5-1.2,0.8-2,0.8c-0.9,0-1.5-0.3-2-0.8
	c-0.5-0.5-0.7-1.3-0.7-2.2c0-0.9,0.2-1.7,0.7-2.2C64,24,64.6,23.8,65.5,23.8z"/>
<path id="path4167" class="st1" d="M75,26.2v3.4h-1v-3.4c0-0.5-0.1-0.9-0.3-1.2c-0.2-0.3-0.6-0.4-1-0.4c-0.5,0-1,0.2-1.3,0.5
	c-0.3,0.3-0.5,0.8-0.5,1.3v3.2h-1v-5.7h1v0.9c0.2-0.3,0.5-0.6,0.8-0.8c0.3-0.2,0.7-0.3,1.1-0.3c0.7,0,1.2,0.2,1.6,0.6
	C74.8,24.8,75,25.4,75,26.2z"/>
<path id="path4169" class="st1" d="M80.8,24.1V25c-0.3-0.1-0.6-0.2-0.9-0.3c-0.3-0.1-0.6-0.1-0.9-0.1c-0.5,0-0.9,0.1-1.1,0.2
	c-0.2,0.1-0.4,0.4-0.4,0.6c0,0.2,0.1,0.4,0.3,0.5c0.2,0.1,0.5,0.2,1.1,0.4l0.3,0.1c0.7,0.1,1.2,0.3,1.5,0.6c0.3,0.3,0.4,0.6,0.4,1.1
	c0,0.5-0.2,1-0.7,1.3c-0.4,0.3-1.1,0.5-1.8,0.5c-0.3,0-0.7,0-1-0.1c-0.3-0.1-0.7-0.1-1.1-0.3v-1c0.4,0.2,0.7,0.3,1.1,0.4
	c0.4,0.1,0.7,0.1,1.1,0.1c0.5,0,0.8-0.1,1.1-0.2c0.3-0.2,0.4-0.4,0.4-0.6c0-0.3-0.1-0.5-0.3-0.6c-0.2-0.1-0.6-0.3-1.2-0.4l-0.3-0.1
	c-0.6-0.1-1.1-0.3-1.3-0.6c-0.3-0.3-0.4-0.6-0.4-1c0-0.5,0.2-1,0.6-1.2c0.4-0.3,1-0.4,1.7-0.4c0.4,0,0.7,0,1,0.1
	C80.2,23.9,80.5,24,80.8,24.1z"/>
</svg>
