<?xml version="1.0" encoding="UTF-8" standalone="no"?>
<!-- Generator: Adobe Illustrator 18.1.1, SVG Export Plug-In . SVG Version: 6.00 Build 0)  -->

<svg
   xmlns:dc="http://purl.org/dc/elements/1.1/"
   xmlns:cc="http://creativecommons.org/ns#"
   xmlns:rdf="http://www.w3.org/1999/02/22-rdf-syntax-ns#"
   xmlns:svg="http://www.w3.org/2000/svg"
   xmlns="http://www.w3.org/2000/svg"
   xmlns:sodipodi="http://sodipodi.sourceforge.net/DTD/sodipodi-0.dtd"
   xmlns:inkscape="http://www.inkscape.org/namespaces/inkscape"
   version="1.1"
   id="Layer_1"
   x="0px"
   y="0px"
   viewBox="0 0 51.897972 21.467785"
   enable-background="new 0 0 24 24"
   xml:space="preserve"
   inkscape:version="0.91 r13725"
   sodipodi:docname="habitlab_gear_with_text.svg"
   width="51.897972"
   height="21.467785"><metadata
     id="metadata9"><rdf:RDF><cc:Work
         rdf:about=""><dc:format>image/svg+xml</dc:format><dc:type
           rdf:resource="http://purl.org/dc/dcmitype/StillImage" /><dc:title></dc:title></cc:Work></rdf:RDF></metadata><defs
     id="defs7" /><sodipodi:namedview
     pagecolor="#ffffff"
     bordercolor="#666666"
     borderopacity="1"
     objecttolerance="10"
     gridtolerance="10"
     guidetolerance="10"
     inkscape:pageopacity="0"
     inkscape:pageshadow="2"
     inkscape:window-width="1280"
     inkscape:window-height="755"
     id="namedview5"
     showgrid="false"
     inkscape:zoom="13.906433"
     inkscape:cx="27.920958"
     inkscape:cy="4.6288629"
     inkscape:window-x="44"
     inkscape:window-y="2"
     inkscape:window-maximized="0"
     inkscape:current-layer="Layer_1"
     fit-margin-top="0"
     fit-margin-left="0"
     fit-margin-right="0"
     fit-margin-bottom="0" /><rect
     style="opacity:1;fill:#000000;fill-opacity:1;fill-rule:nonzero;stroke:none;stroke-width:0.2;stroke-miterlimit:4;stroke-dasharray:none;stroke-opacity:1"
     id="rect4161"
     width="28.547937"
     height="21.439816"
     x="11.654059"
     y="0" /><ellipse
     style="opacity:1;fill:#000000;fill-opacity:1;fill-rule:nonzero;stroke:none;stroke-width:0.2151238;stroke-miterlimit:4;stroke-dasharray:none;stroke-opacity:1"
     id="path4139"
     cx="11.890743"
     cy="10.755358"
     rx="11.890743"
     ry="10.695798" /><path
     d="m 19.645229,12.088698 0,-2.8755614 -1.8,-0.2974719 c -0.1,-0.3966292 -0.3,-0.7932583 -0.6,-1.388202 l 1.1,-1.4873591 -2.1,-2.082303 -1.5,1.0907301 c -0.5,-0.2974719 -1,-0.4957864 -1.4,-0.5949437 l -0.2,-1.7848311 -2.9,0 -0.2999997,1.7848311 c -0.5,0.099157 -0.9,0.2974718 -1.4,0.5949437 l -1.5,-1.0907301 -2.1,2.082303 1,1.4873591 c -0.3,0.4957864 -0.4,0.8924155 -0.6,1.388202 l -1.7,0.1983146 0,2.8755617 1.8,0.297472 c 0.1,0.495786 0.3,0.892415 0.6,1.388201 l -1,1.48736 2.1,2.082303 1.5,-0.991573 c 0.4,0.198315 0.9,0.396629 1.3999997,0.594943 l 0.3,1.784832 3,0 0.3,-1.784832 c 0.5,-0.09916 0.9,-0.297471 1.4,-0.594943 l 1.5,1.09073 2.1,-2.082303 -1.1,-1.48736 c 0.3,-0.495786 0.5,-0.991572 0.6,-1.388201 l 1.5,-0.297472 z m -8,1.48736 c -1.6999997,0 -2.9999997,-1.289045 -2.9999997,-2.974719 0,-1.6856743 1.3,-2.974719 2.9999997,-2.974719 1.7,0 3,1.2890447 3,2.974719 0,1.685674 -1.3,2.974719 -3,2.974719 z"
     id="path3"
     inkscape:connector-curvature="0"
     style="fill:#ffffff;fill-opacity:1" /><ellipse
     style="opacity:1;fill:none;fill-opacity:1;stroke:none;stroke-width:11.53299999;stroke-miterlimit:4;stroke-dasharray:none;stroke-opacity:1"
     id="path4137"
     cx="0.052008986"
     cy="0.72952527"
     rx="22.576271"
     ry="24.305084" /><ellipse
     ry="10.704112"
     rx="11.890743"
     cy="10.763672"
     cx="40.007229"
     id="ellipse4183"
     style="opacity:1;fill:#000000;fill-opacity:1;fill-rule:nonzero;stroke:none;stroke-width:0.2151238;stroke-miterlimit:4;stroke-dasharray:none;stroke-opacity:1" /><text
     xml:space="preserve"
     style="font-style:normal;font-weight:normal;font-size:38.86066818px;line-height:125%;font-family:Sans;letter-spacing:0px;word-spacing:0px;fill:#ffffff;fill-opacity:1;stroke:none;stroke-width:1px;stroke-linecap:butt;stroke-linejoin:miter;stroke-opacity:1"
     x="21.705248"
     y="13.111593"
     id="text4185"
     sodipodi:linespacing="125%"
     transform="scale(1.0293185,0.9715166)"><tspan
       sodipodi:role="line"
       id="tspan4187"
       x="21.705248"
       y="13.111593"
       style="font-size:6.07197905px;fill:#ffffff;fill-opacity:1">Habitlab</tspan></text>
</svg>