<?xml version="1.0" encoding="UTF-8" standalone="no"?>
<svg
   xmlns:dc="http://purl.org/dc/elements/1.1/"
   xmlns:cc="http://creativecommons.org/ns#"
   xmlns:rdf="http://www.w3.org/1999/02/22-rdf-syntax-ns#"
   xmlns:svg="http://www.w3.org/2000/svg"
   xmlns="http://www.w3.org/2000/svg"
   xmlns:xlink="http://www.w3.org/1999/xlink"
   xmlns:sodipodi="http://sodipodi.sourceforge.net/DTD/sodipodi-0.dtd"
   xmlns:inkscape="http://www.inkscape.org/namespaces/inkscape"
   width="100%"
   height="100%"
   viewBox="0 0 24 24"
   version="1.1"
   xml:space="preserve"
   style="fill-rule:evenodd;clip-rule:evenodd;stroke-linejoin:round;stroke-miterlimit:1.41421;"
   id="svg6202"
   inkscape:version="0.91 r13725"
   sodipodi:docname="habitlab_icon_white_gradient.svg"><metadata
     id="metadata6211"><rdf:RDF><cc:Work
         rdf:about=""><dc:format>image/svg+xml</dc:format><dc:type
           rdf:resource="http://purl.org/dc/dcmitype/StillImage" /><dc:title></dc:title></cc:Work></rdf:RDF></metadata><defs
     id="defs6209"><linearGradient
       inkscape:collect="always"
       id="habitlab_gradient"><stop
         style="stop-color:#0098db;stop-opacity:1;"
         offset="0"
         id="stop6781" /><stop
         style="stop-color:#0098db;stop-opacity:0;"
         offset="1"
         id="stop6783" /></linearGradient><linearGradient
       inkscape:collect="always"
       xlink:href="#habitlab_gradient"
       id="linearGradient6785"
       x1="11.084521"
       y1="-232.20338"
       x2="11.411664"
       y2="-256.10168"
       gradientUnits="userSpaceOnUse" /><linearGradient
       inkscape:collect="always"
       xlink:href="#habitlab_gradient"
       id="linearGradient6805"
       x1="11.220259"
       y1="-213.87181"
       x2="11.43732"
       y2="-258.47052"
       gradientUnits="userSpaceOnUse"
       gradientTransform="matrix(0.96402878,0,0,0.98013246,0.15729789,-5.0598246)" /></defs><sodipodi:namedview
     pagecolor="#ffffff"
     bordercolor="#666666"
     borderopacity="1"
     objecttolerance="10"
     gridtolerance="10"
     guidetolerance="10"
     inkscape:pageopacity="0"
     inkscape:pageshadow="2"
     inkscape:window-width="1253"
     inkscape:window-height="658"
     id="namedview6207"
     showgrid="false"
     inkscape:zoom="13.906433"
     inkscape:cx="19.26341"
     inkscape:cy="36.35675"
     inkscape:window-x="100"
     inkscape:window-y="68"
     inkscape:window-maximized="0"
     inkscape:current-layer="path3029" /><path
     style="opacity:1;fill:#ffffff;fill-opacity:0;fill-rule:nonzero;stroke:none"
     d="M 1.2915254,23.794421 C 0.58358236,23.543422 0.02887685,22.854665 0.02257241,22.218808 0.01684996,21.641651 0.61756043,20.601701 4.4051884,14.63162 l 4.0558285,-6.3928188 0,-3.1431294 0,-3.1431294 -0.6053844,0 c -0.7273406,0 -1.0893333,-0.1475562 -1.2835982,-0.5232229 C 6.357611,1.0146704 6.3933405,0.77321648 6.7238615,0.40329931 l 0.2967428,-0.33211287 4.3789117,0 4.378913,0 0.276887,0.27688752 c 0.403842,0.40384196 0.383952,0.92440744 -0.05014,1.31226884 -0.288906,0.2581378 -0.403896,0.2921996 -0.986441,0.2921996 l -0.659412,0 0,3.1543802 0,3.1543803 3.982079,6.2778231 c 2.190143,3.452802 4.071695,6.479411 4.181225,6.725795 0.455991,1.025731 0.147498,1.978243 -0.780672,2.410432 l -0.518225,0.241304 -9.81356,-0.007 C 4.7527903,23.904852 1.4984905,23.867799 1.2915254,23.794421 Z M 16.975081,15.961017 c -0.02754,-0.06991 -1.062095,-1.719602 -2.299016,-3.665971 l -2.248946,-3.5388523 0,-3.4018257 0,-3.4018256 -1.01695,0 -1.016949,0 0,3.3854619 0,3.385462 -2.2880267,3.6060637 c -1.2584149,1.983335 -2.2880759,3.640385 -2.2881356,3.682334 -5.97e-5,0.04195 2.5217367,0.07627 5.6039923,0.07627 4.442187,0 5.593719,-0.02636 5.554031,-0.127119 z"
     id="path6213"
     inkscape:connector-curvature="0" /><g
     id="path3029"
     transform="translate(0.81355932,256)"
     style="fill-opacity:1;fill:url(#linearGradient6785)"><path
       d="m 22.05661,-235.375 c 0.584,0.927 0.695,1.721 0.336,2.383 -0.359,0.661 -1.091,0.992 -2.195,0.992 l -17.9999998,0 c -1.104,0 -1.83600003,-0.331 -2.19600003,-0.992 -0.359,-0.662 -0.247,-1.456 0.336,-2.383 l 7.86000003,-12.391 0,-6.234 -1,0 c -0.271,0 -0.505,-0.099 -0.703,-0.297 -0.198,-0.198 -0.297,-0.432 -0.297,-0.703 0,-0.271 0.099,-0.505 0.297,-0.703 0.198,-0.198 0.432,-0.297 0.703,-0.297 l 7.9999998,0 c 0.271,0 0.505,0.099 0.703,0.297 0.198,0.198 0.297,0.432 0.297,0.703 0,0.271 -0.099,0.505 -0.297,0.703 -0.198,0.198 -0.432,0.297 -0.703,0.297 l -1,0 0,6.234 7.859,12.391 z m -12.1719998,-11.328 -4.25,6.703 11.1249998,0 -4.25,-6.703 -0.312,-0.485 0,-0.578 0,-6.234 -2,0 0,6.812 -0.3129998,0.485 z"
       style="fill:#ffffff;fill-opacity:1;fill-rule:nonzero"
       id="path6205"
       inkscape:connector-curvature="0" /><path
       style="fill:url(#linearGradient6805);fill-opacity:1;fill-rule:evenodd;stroke:none;stroke-width:1px;stroke-linecap:butt;stroke-linejoin:miter;stroke-opacity:1"
       d="m 10.199409,-254.00206 1.9946,-0.006 0.02168,6.77089 4.547582,7.24504 -11.1355933,-0.005 4.5405793,-7.16738 z"
       id="path6789"
       inkscape:connector-curvature="0"
       sodipodi:nodetypes="ccccccc" /></g></svg>