<?xml version="1.0" encoding="UTF-8" standalone="no"?>
<svg
   xmlns:dc="http://purl.org/dc/elements/1.1/"
   xmlns:cc="http://creativecommons.org/ns#"
   xmlns:rdf="http://www.w3.org/1999/02/22-rdf-syntax-ns#"
   xmlns:svg="http://www.w3.org/2000/svg"
   xmlns="http://www.w3.org/2000/svg"
   xmlns:sodipodi="http://sodipodi.sourceforge.net/DTD/sodipodi-0.dtd"
   xmlns:inkscape="http://www.inkscape.org/namespaces/inkscape"
   version="1.1"
   x="0px"
   y="0px"
   viewBox="0 0 90 90"
   xml:space="preserve"
   id="svg10"
   sodipodi:docname="help_icon.svg"
   width="90"
   height="90"
   inkscape:version="0.92.1 r"><metadata
     id="metadata16"><rdf:RDF><cc:Work
         rdf:about=""><dc:format>image/svg+xml</dc:format><dc:type
           rdf:resource="http://purl.org/dc/dcmitype/StillImage" /><dc:title>BS-Question-Solid-Rounded-Circle</dc:title></cc:Work></rdf:RDF></metadata><defs
     id="defs14" /><sodipodi:namedview
     pagecolor="#ffffff"
     bordercolor="#666666"
     borderopacity="1"
     objecttolerance="10"
     gridtolerance="10"
     guidetolerance="10"
     inkscape:pageopacity="0"
     inkscape:pageshadow="2"
     inkscape:window-width="640"
     inkscape:window-height="480"
     id="namedview12"
     showgrid="false"
     fit-margin-top="0"
     fit-margin-left="0"
     fit-margin-right="0"
     fit-margin-bottom="0"
     inkscape:zoom="1.888"
     inkscape:cx="45"
     inkscape:cy="32.5"
     inkscape:window-x="454"
     inkscape:window-y="23"
     inkscape:window-maximized="0"
     inkscape:current-layer="svg10" /><title
     id="title2">BS-Question-Solid-Rounded-Circle</title><path
     d="M 45,0 C 20.1,0 0,20.1 0,45 0,69.9 20.1,90 45,90 69.9,90 90,69.9 90,45 90,20.1 69.9,0 45,0 Z m 0,70 c -3,0 -5.4,-2.4 -5.4,-5.4 0,-3 2.4,-5.4 5.4,-5.4 0,0 0,0 0,0 3,0 5.4,2.4 5.4,5.4 0,3 -2.4,5.4 -5.4,5.4 z M 57.2,39.6 c -0.6,0.8 -1.3,1.6 -2,2.3 -0.5,0.5 -1.1,1 -1.8,1.8 -0.8,0.7 -1.4,1.3 -1.9,1.9 -0.5,0.5 -1,1 -1.3,1.4 -0.9,1.2 -1.3,2.8 -1.2,4.3 v 3.1 h -7.8 v -4.2 c -0.1,-1.4 0.1,-2.8 0.7,-4.2 0.8,-1.3 1.7,-2.5 2.9,-3.6 l 5,-5 c 1.1,-1.2 1.6,-2.7 1.6,-4.3 0,-1.6 -0.6,-3.1 -1.7,-4.2 -1.1,-1.1 -2.7,-1.7 -4.3,-1.7 -1.6,-0.1 -3.2,0.5 -4.4,1.6 -1.2,1.1 -1.9,2.7 -2,4.3 h -8.4 c 0.3,-3.7 2,-7.2 4.8,-9.6 2.9,-2.4 6.5,-3.6 10.3,-3.5 3.6,-0.2 7.2,1 10,3.3 2.6,2.2 3.9,5.4 3.9,9.4 -0.1,2.5 -0.9,5 -2.4,6.9 z"
     id="path4"
     inkscape:connector-curvature="0" /></svg>