<?xml version="1.0" encoding="UTF-8" standalone="no"?>
<!DOCTYPE svg PUBLIC "-//W3C//DTD SVG 1.1//EN" "http://www.w3.org/Graphics/SVG/1.1/DTD/svg11.dtd">
<svg width="100%" height="100%" viewBox="0 0 24 24" version="1.1" xmlns="http://www.w3.org/2000/svg" xmlns:xlink="http://www.w3.org/1999/xlink" xml:space="preserve" style="fill-rule:evenodd;clip-rule:evenodd;stroke-linejoin:round;stroke-miterlimit:1.41421;">
    <g id="path3029" transform="matrix(1,0,0,1,0,256)">
        <path d="M22.26,-235.375C22.844,-234.448 22.955,-233.654 22.596,-232.992C22.237,-232.331 21.505,-232 20.401,-232L2.401,-232C1.297,-232 0.565,-232.331 0.205,-232.992C-0.154,-233.654 -0.042,-234.448 0.541,-235.375L8.401,-247.766L8.401,-254L7.401,-254C7.13,-254 6.896,-254.099 6.698,-254.297C6.5,-254.495 6.401,-254.729 6.401,-255C6.401,-255.271 6.5,-255.505 6.698,-255.703C6.896,-255.901 7.13,-256 7.401,-256L15.401,-256C15.672,-256 15.906,-255.901 16.104,-255.703C16.302,-255.505 16.401,-255.271 16.401,-255C16.401,-254.729 16.302,-254.495 16.104,-254.297C15.906,-254.099 15.672,-254 15.401,-254L14.401,-254L14.401,-247.766L22.26,-235.375ZM10.088,-246.703L5.838,-240L16.963,-240L12.713,-246.703L12.401,-247.188L12.401,-247.766L12.401,-254L10.401,-254L10.401,-247.188L10.088,-246.703Z" style="fill-rule:nonzero;"/>
    </g>
</svg>
