<?xml version="1.0" encoding="UTF-8" standalone="no"?>
<svg
   xmlns:dc="http://purl.org/dc/elements/1.1/"
   xmlns:cc="http://creativecommons.org/ns#"
   xmlns:rdf="http://www.w3.org/1999/02/22-rdf-syntax-ns#"
   xmlns:svg="http://www.w3.org/2000/svg"
   xmlns="http://www.w3.org/2000/svg"
   height="100%"
   width="100%"
   version="1.1"
   id="svg3025"
   viewBox="0 -256 1792 1792">
  <metadata
     id="metadata3035">
    <rdf:RDF>
      <cc:Work
         rdf:about="">
        <dc:format>image/svg+xml</dc:format>
        <dc:type
           rdf:resource="http://purl.org/dc/dcmitype/StillImage" />
        <dc:title></dc:title>
      </cc:Work>
    </rdf:RDF>
  </metadata>
  <defs
     id="defs3033" />
  <g
     id="g3027"
     transform="matrix(1,0,0,-1,68.338983,1277.8305)">
    <path
       style="fill:currentColor"
       id="path3029"
       d="M 1527,88 Q 1583,-1 1548.5,-64.5 1514,-128 1408,-128 H 256 Q 150,-128 115.5,-64.5 81,-1 137,88 l 503,793 v 399 h -64 q -26,0 -45,19 -19,19 -19,45 0,26 19,45 19,19 45,19 h 512 q 26,0 45,-19 19,-19 19,-45 0,-26 -19,-45 -19,-19 -45,-19 h -64 V 881 z M 748,813 476,384 h 712 l -272,429 -20,31 v 37 399 H 768 V 881 844 z" />
  </g>
</svg>
