<?xml version="1.0" encoding="UTF-8" standalone="no"?>
<svg
   xmlns:dc="http://purl.org/dc/elements/1.1/"
   xmlns:cc="http://creativecommons.org/ns#"
   xmlns:rdf="http://www.w3.org/1999/02/22-rdf-syntax-ns#"
   xmlns:svg="http://www.w3.org/2000/svg"
   xmlns="http://www.w3.org/2000/svg"
   xmlns:xlink="http://www.w3.org/1999/xlink"
   xmlns:sodipodi="http://sodipodi.sourceforge.net/DTD/sodipodi-0.dtd"
   xmlns:inkscape="http://www.inkscape.org/namespaces/inkscape"
   width="100%"
   height="100%"
   viewBox="0 0 24 24"
   version="1.1"
   xml:space="preserve"
   style="fill-rule:evenodd;clip-rule:evenodd;stroke-linejoin:round;stroke-miterlimit:1.41421;"
   id="svg3396"
   inkscape:version="0.91 r13725"
   sodipodi:docname="logo_gradient.svg"><metadata
     id="metadata3405"><rdf:RDF><cc:Work
         rdf:about=""><dc:format>image/svg+xml</dc:format><dc:type
           rdf:resource="http://purl.org/dc/dcmitype/StillImage" /><dc:title></dc:title></cc:Work></rdf:RDF></metadata><defs
     id="defs3403"><linearGradient
       inkscape:collect="always"
       id="linearGradient5659"><stop
         style="stop-color:#0098db;stop-opacity:1;"
         offset="0"
         id="stop5661" /><stop
         style="stop-color:#0098db;stop-opacity:0;"
         offset="1"
         id="stop5663" /></linearGradient><linearGradient
       inkscape:collect="always"
       xlink:href="#linearGradient5659"
       id="linearGradient5665"
       x1="11.491302"
       y1="-231.08473"
       x2="11.411664"
       y2="-264.23727"
       gradientUnits="userSpaceOnUse" /></defs><sodipodi:namedview
     pagecolor="#ffffff"
     bordercolor="#666666"
     borderopacity="1"
     objecttolerance="10"
     gridtolerance="10"
     guidetolerance="10"
     inkscape:pageopacity="0"
     inkscape:pageshadow="2"
     inkscape:window-width="916"
     inkscape:window-height="753"
     id="namedview3401"
     showgrid="false"
     inkscape:zoom="10.947455"
     inkscape:cx="7.018145"
     inkscape:cy="14.098102"
     inkscape:window-x="115"
     inkscape:window-y="68"
     inkscape:window-maximized="0"
     inkscape:current-layer="path3029" /><g
     id="path3029"
     transform="matrix(1,0,0,1,0,256)"><path
       d="M22.26,-235.375C22.844,-234.448 22.955,-233.654 22.596,-232.992C22.237,-232.331 21.505,-232 20.401,-232L2.401,-232C1.297,-232 0.565,-232.331 0.205,-232.992C-0.154,-233.654 -0.042,-234.448 0.541,-235.375L8.401,-247.766L8.401,-254L7.401,-254C7.13,-254 6.896,-254.099 6.698,-254.297C6.5,-254.495 6.401,-254.729 6.401,-255C6.401,-255.271 6.5,-255.505 6.698,-255.703C6.896,-255.901 7.13,-256 7.401,-256L15.401,-256C15.672,-256 15.906,-255.901 16.104,-255.703C16.302,-255.505 16.401,-255.271 16.401,-255C16.401,-254.729 16.302,-254.495 16.104,-254.297C15.906,-254.099 15.672,-254 15.401,-254L14.401,-254L14.401,-247.766L22.26,-235.375ZM10.088,-246.703L5.838,-240L16.963,-240L12.713,-246.703L12.401,-247.188L12.401,-247.766L12.401,-254L10.401,-254L10.401,-247.188L10.088,-246.703Z"
       style="fill-rule:nonzero;fill:url(#linearGradient5665);fill-opacity:1"
       id="path3399" /></g></svg>