<?xml version="1.0" encoding="UTF-8" standalone="no"?>
<svg
   xmlns:dc="http://purl.org/dc/elements/1.1/"
   xmlns:cc="http://creativecommons.org/ns#"
   xmlns:rdf="http://www.w3.org/1999/02/22-rdf-syntax-ns#"
   xmlns:svg="http://www.w3.org/2000/svg"
   xmlns="http://www.w3.org/2000/svg"
   xmlns:sodipodi="http://sodipodi.sourceforge.net/DTD/sodipodi-0.dtd"
   xmlns:inkscape="http://www.inkscape.org/namespaces/inkscape"
   version="1.1"
   x="0px"
   y="0px"
   viewBox="0 0 80 80"
   enable-background="new 0 0 100 100"
   xml:space="preserve"
   id="svg2"
   inkscape:version="0.92.1 r"
   sodipodi:docname="power_button.svg"
   width="85.333336"
   height="85.333336"><metadata
     id="metadata14"><rdf:RDF><cc:Work
         rdf:about=""><dc:format>image/svg+xml</dc:format><dc:type
           rdf:resource="http://purl.org/dc/dcmitype/StillImage" /><dc:title /></cc:Work></rdf:RDF></metadata><defs
     id="defs12" /><sodipodi:namedview
     pagecolor="#ffffff"
     bordercolor="#666666"
     borderopacity="1"
     objecttolerance="10"
     gridtolerance="10"
     guidetolerance="10"
     inkscape:pageopacity="0"
     inkscape:pageshadow="2"
     inkscape:window-width="699"
     inkscape:window-height="480"
     id="namedview10"
     showgrid="false"
     fit-margin-top="0"
     fit-margin-left="0"
     fit-margin-right="0"
     fit-margin-bottom="0"
     inkscape:zoom="1.888"
     inkscape:cx="47.287808"
     inkscape:cy="27.5"
     inkscape:window-x="186"
     inkscape:window-y="23"
     inkscape:window-maximized="0"
     inkscape:current-layer="svg2" /><path
     d="M 40,0 C 17.909,0 0,17.909 0,40 0,62.091 17.909,80 40,80 62.09,80 80,62.091 80,40 80,17.909 62.09,0 40,0 Z m -1.944,18.759 c 0,-1.075 0.871,-1.945 1.944,-1.945 1.074,0 1.945,0.871 1.945,1.945 v 15.555 c 0,1.075 -0.871,1.945 -1.945,1.945 -1.074,0 -1.944,-0.871 -1.944,-1.945 z M 40,57.506 c -9.649,0 -17.5,-7.851 -17.5,-17.5 0,-6.224 3.353,-12.03 8.75,-15.153 0.929,-0.537 2.119,-0.22 2.657,0.71 0.537,0.929 0.22,2.119 -0.71,2.657 -4.199,2.429 -6.808,6.946 -6.808,11.786 0,7.506 6.105,13.614 13.611,13.614 7.505,0 13.611,-6.107 13.611,-13.614 0,-4.84 -2.608,-9.357 -6.809,-11.786 -0.93,-0.538 -1.246,-1.728 -0.71,-2.657 0.54,-0.93 1.729,-1.246 2.658,-0.71 5.396,3.123 8.748,8.929 8.748,15.153 0.002,9.65 -7.85,17.5 -17.498,17.5 z"
     id="path4"
     inkscape:connector-curvature="0" /></svg>