<?xml version="1.0" encoding="UTF-8" standalone="no"?><!DOCTYPE svg PUBLIC "-//W3C//DTD SVG 1.1//EN" "http://www.w3.org/Graphics/SVG/1.1/DTD/svg11.dtd"><svg width="100%" height="100%" viewBox="0 0 95 94" version="1.1" xmlns="http://www.w3.org/2000/svg" xmlns:xlink="http://www.w3.org/1999/xlink" xml:space="preserve" style="fill-rule:evenodd;clip-rule:evenodd;stroke-linejoin:round;stroke-miterlimit:1.41421;">    <g transform="matrix(1,0,0,1,-10.9287,-31.253)">        <path d="M52.878,45.042L59.95,52.113L60.303,31.253L39.443,31.607L46.514,38.678L33.788,51.404C33.788,51.404 32.37,52.822 35.554,56.002C38.738,59.182 40.152,57.768 40.152,57.768L52.878,45.042ZM86.921,37C86.373,37 85.929,37.452 85.929,38.003L85.929,123.997C85.929,124.551 86.384,125 86.921,125L104.937,125C105.485,125 105.929,124.548 105.929,123.997L105.929,38.003C105.929,37.449 105.473,37 104.937,37L86.921,37ZM36.921,71C36.373,71 35.929,71.451 35.929,72.007L35.929,123.993C35.929,124.549 36.384,125 36.921,125L54.937,125C55.485,125 55.929,124.549 55.929,123.993L55.929,72.007C55.929,71.451 55.473,71 54.937,71L36.921,71ZM61.921,57C61.373,57 60.929,57.452 60.929,58.001L60.929,123.999C60.929,124.552 61.384,125 61.921,125L79.937,125C80.485,125 80.929,124.548 80.929,123.999L80.929,58.001C80.929,57.448 80.473,57 79.937,57L61.921,57ZM11.921,88C11.373,88 10.929,88.441 10.929,89.009L10.929,123.991C10.929,124.548 11.384,125 11.921,125L29.937,125C30.485,125 30.929,124.559 30.929,123.991L30.929,89.009C30.929,88.452 30.473,88 29.937,88L11.921,88Z"/>    </g></svg>