<?xml version="1.0" encoding="UTF-8" standalone="no"?>
<!DOCTYPE svg PUBLIC "-//W3C//DTD SVG 1.1//EN" "http://www.w3.org/Graphics/SVG/1.1/DTD/svg11.dtd">
<svg width="100%" height="100%" viewBox="0 0 1005 330" version="1.1" xmlns="http://www.w3.org/2000/svg" xmlns:xlink="http://www.w3.org/1999/xlink" xml:space="preserve" style="fill-rule:evenodd;clip-rule:evenodd;stroke-linejoin:round;stroke-miterlimit:1.41421;">
    <g transform="matrix(4.16667,0,0,4.16667,0,0)">
        <path d="M101.309,34.811C100.607,35.665 98.791,37.463 95.008,37.463C91.414,37.463 89.408,36.182 88.527,33.303C88.166,32.161 88.166,29.917 88.166,28.567C88.166,24.842 88.205,21.862 88.244,18.411L88.257,16.788L85.188,16.788L85.188,15.876C86.436,15.395 87.281,14.895 88.103,14.266C89.904,12.872 91.054,11.127 92.435,8.674L93.458,8.674L93.458,13.899L101.358,13.899L101.358,16.788L93.458,16.788L93.458,29.003C93.458,32.657 94.121,34.735 97.572,34.735C99.181,34.735 100.244,34.21 100.916,33.86L101.309,34.811ZM228.523,34.149C230.111,34.149 231.189,33.899 232.346,33.21L232.346,17.626C231.967,17.256 230.557,16.069 227.705,16.069C223.176,16.069 220.978,19.17 220.978,25.551C220.978,28.225 221.779,34.149 228.523,34.149ZM229.336,1.823C230.742,1.823 232.572,1.561 234.803,1.17C236.068,0.952 236.92,0.719 237.33,0.557L237.736,0.791C237.537,2.713 237.535,7.038 237.535,10.102L237.535,29.073C237.535,31.905 237.582,33.657 237.984,34.223C238.35,34.753 239.205,35.11 240.666,35.112L240.666,36.356C239.197,36.356 237.463,36.545 235.666,36.838C234.473,37.034 233.531,37.227 233.084,37.473L232.447,37.256L232.447,35.297C231.297,36.153 229,37.485 225.955,37.485C219.566,37.485 215.449,33.053 215.449,26.198C215.449,23.911 215.887,21.748 216.691,19.924C218.652,15.702 222.701,13.284 227.81,13.284C229.678,13.284 231.348,13.518 232.346,13.731L232.346,8.782C232.346,5.881 232.303,4.34 231.883,3.717C231.559,3.241 231.082,3.006 229.336,2.879L229.336,1.823ZM196.602,14.663C198.182,14.751 199.896,14.561 201.687,14.245C203.07,14.001 203.951,13.7 204.447,13.467L204.871,13.674L204.871,15.694C205.99,14.643 207.748,13.536 210.244,13.536C212.066,13.536 213.275,14.047 214.297,14.971L214.297,15.706L212.342,19.297L211.389,19.297C210.768,18.213 209.605,17.196 207.514,17.196C206.527,17.196 205.707,17.438 204.967,17.932L204.967,29.665C204.967,32.721 205.066,34.17 205.467,34.778C206.113,35.76 208.047,35.862 209.154,35.825L209.154,37.114C207.557,37.026 204.801,36.889 202.822,36.889C200.572,36.889 198.353,36.93 196.5,37.135L196.5,35.963C197.797,35.899 198.525,35.54 199.029,34.973C199.752,34.159 199.787,32.253 199.787,28.295L199.787,21.647C199.787,18.77 199.766,17.528 199.326,16.926C198.943,16.401 198.102,16.094 196.602,16.077L196.602,14.663ZM182.727,15.928C181.344,15.928 180.244,16.286 179.422,16.985C177.562,18.553 176.613,21.391 176.613,25.454C176.613,27.02 176.904,34.842 182.631,34.842C183.992,34.842 185.109,34.489 185.912,33.791C187.793,32.223 188.736,29.366 188.736,25.305C188.736,23.753 188.443,15.928 182.727,15.928ZM182.435,37.538C175.332,37.538 171.086,33.106 171.086,25.708C171.086,19.942 174.189,13.241 182.924,13.241C190.023,13.241 194.254,17.653 194.254,25.067C194.254,30.805 191.16,37.538 182.435,37.538ZM155.664,36.01C156.617,36.024 157.629,35.663 158.195,35.026C158.914,34.215 158.957,32.253 158.957,28.295L158.957,16.756L155.92,16.756L155.92,15.45C157.199,14.956 158.322,14.376 158.957,13.878C158.961,11.827 159.027,9.163 159.309,7.713C160.205,2.92 163.357,0.473 168.625,0.473C170.951,0.473 173.16,1.266 174.494,2.405L174.568,2.895L172.26,6.092L171.693,6.102C170.908,4.174 169.728,3.069 167.643,3.069C166.922,3.069 165.918,3.293 165.297,3.905C164.303,4.907 164.127,6.401 164.127,9.372L164.127,13.868L169.316,13.868L169.316,16.756L164.127,16.756L164.127,29.665C164.127,32.721 164.232,34.223 164.633,34.829C165.279,35.803 167.326,35.92 168.332,35.881L168.332,37.114C166.621,37.01 163.969,36.889 161.984,36.889C159.1,36.889 157.219,36.973 155.664,37.135L155.664,36.01ZM126.757,14.745C127.939,14.838 129.718,14.717 131.459,14.417C132.926,14.163 133.457,13.956 134.556,13.403L135.014,13.678L135.014,15.526C136.189,14.659 138.549,13.284 141.766,13.284C145.951,13.284 148.693,15.243 149.471,18.805C149.691,19.688 149.775,21.819 149.775,22.965L149.775,29.753C149.775,33.596 149.928,34.665 150.644,35.352C151.01,35.672 151.865,36.024 152.9,36.024L152.9,37.112C151.408,37.04 148.748,36.889 147.144,36.889C145.012,36.889 142.615,36.991 141.32,37.135L141.32,36.067C142.475,35.948 143.262,35.612 143.668,35.217C144.34,34.544 144.455,33.2 144.555,30.309C144.584,29.448 144.607,27.623 144.607,26.288C144.607,24.551 144.607,22.745 144.406,20.971C144.062,17.959 142.478,16.561 139.473,16.561C137.373,16.561 136.09,17.04 135.11,17.536L135.11,29.753C135.11,33.596 135.262,34.665 135.996,35.352C136.35,35.672 137.262,36.032 138.24,36.024L138.24,37.114C136.314,37.014 134.003,36.889 132.519,36.889C129.425,36.889 128.453,36.952 126.656,37.135L126.656,36.03C127.662,36.018 128.639,35.659 129.184,35.038C129.893,34.239 129.934,32.253 129.934,28.295L129.934,21.649C129.934,18.77 129.879,17.551 129.473,16.928C129.157,16.444 128.356,16.057 126.757,16.077L126.757,14.745ZM63.898,36.081C63.898,33.743 63.915,31.758 63.724,29.36L65.106,29.36C65.122,30.842 65.537,31.938 66.179,32.666C67.167,33.778 69.451,34.456 71.57,34.456C75.997,34.456 78.064,32.774 78.064,29.172C78.064,26.083 76.156,24.803 73.515,23.018L73.107,22.735L70.326,20.879C66.454,18.317 64.472,16.262 64.472,12.161C64.472,10.157 65.24,3.606 74.985,3.606C77.443,3.606 80.677,3.866 82.628,4.231C82.607,4.541 82.578,6.041 82.578,7.299C82.578,8.762 82.578,9.247 82.633,11.036L81.451,11.036C81.414,9.461 80.982,8.448 80.296,7.768C79.355,6.832 77.282,6.395 75.089,6.395C69.921,6.395 69.314,9.043 69.314,11.036C69.314,13.782 70.718,14.706 73.779,16.737L77.316,19.071C80.319,21.071 83.149,22.965 83.149,27.948C83.149,36.383 75.29,37.29 71.912,37.29C68.846,37.29 66.384,36.911 63.898,36.081ZM116.014,25.112C112.924,26.043 111.861,26.553 110.913,27.049C109.558,27.715 108.879,29.086 108.879,30.7C108.879,31.958 109.328,34.073 112.348,34.073C113.346,34.073 114.777,33.881 116.014,32.995L116.014,25.112ZM110.445,37.338C104.127,37.338 103.646,32.565 103.646,31.088C103.646,29.36 104.096,26.307 108.119,24.833C112.268,23.311 113.156,23.133 116.014,22.239L116.014,21.491C116.014,20.11 116.014,19.78 115.735,18.913C115.191,17.284 113.611,16.243 111.475,16.243C109.334,16.243 107.57,17.422 106.773,19.133L105.607,18.448C106.352,15.815 108.994,13.198 113.56,13.198C116.809,13.198 118.932,14.116 120.225,16.104C121.213,17.676 121.299,19.866 121.299,22.137C121.299,24.145 121.24,26.37 121.202,28.172C121.168,29.415 121.141,30.483 121.141,31.139C121.141,32.774 121.4,34.047 122.768,34.047C123.331,34.047 123.443,33.897 123.926,33.508L124.673,34.372C123.443,35.977 122.09,37.299 119.817,37.299C117.975,37.299 116.69,36.416 116.264,34.94C115.228,36.01 113.371,37.338 110.445,37.338Z" style="fill:rgb(35,31,32);fill-rule:nonzero;"/>
        <path d="M148.383,60.965L154.228,60.965C154.228,59.206 153.881,57.2 151.307,57.2C148.912,57.2 148.434,59.44 148.383,60.965ZM151.986,70.897C147.518,70.897 145.062,68.313 145.062,63.622C145.062,62.795 145.258,55.563 152.059,55.563C154.096,55.563 155.834,56.399 156.691,57.791C157.555,59.174 157.67,60.598 157.67,61.813L157.67,62.598L148.348,62.598C148.357,63.36 148.406,63.95 148.498,64.473C149,67.34 150.6,68.731 153.4,68.731C154.975,68.731 155.975,68.395 156.928,67.856L157.369,68.596C156.328,69.954 154.303,70.897 151.986,70.897ZM103.31,56.448C104.064,56.508 105.199,56.432 106.31,56.239C107.246,56.077 107.587,55.942 108.283,55.59L108.578,55.764L108.578,56.946C109.328,56.393 110.833,55.514 112.889,55.514C115.559,55.514 117.309,56.768 117.801,59.038C117.941,59.602 117.998,60.96 117.998,61.694L117.998,66.028C117.998,68.475 118.094,69.157 118.553,69.6C118.787,69.803 119.331,70.028 119.994,70.028L119.994,70.721C119.037,70.674 117.344,70.579 116.318,70.579C114.959,70.579 113.428,70.639 112.602,70.733L112.602,70.055C113.338,69.975 113.841,69.76 114.1,69.508C114.529,69.081 114.604,68.223 114.666,66.379C114.684,65.829 114.701,64.665 114.701,63.811C114.701,62.704 114.701,61.553 114.572,60.422C114.352,58.497 113.342,57.604 111.423,57.604C110.086,57.604 109.267,57.913 108.639,58.231L108.639,66.028C108.639,68.475 108.738,69.157 109.203,69.6C109.43,69.803 110.012,70.032 110.637,70.028L110.637,70.721C109.406,70.655 107.935,70.579 106.986,70.579C105.016,70.579 104.391,70.616 103.247,70.733L103.247,70.032C103.887,70.024 104.514,69.793 104.859,69.399C105.309,68.887 105.338,67.618 105.338,65.094L105.338,60.854C105.338,59.014 105.303,58.241 105.045,57.84C104.842,57.53 104.328,57.288 103.31,57.299L103.31,56.448ZM136,55.835C135.703,55.835 135.033,55.874 134.635,55.897C133.877,55.932 133.018,55.973 132.468,55.973C131.382,55.973 129.764,55.876 129.264,55.827L129.264,56.706C129.432,56.711 130.285,56.633 130.722,57.575C130.897,57.948 131.057,58.319 131.104,58.442C131.18,58.635 131.274,58.874 131.315,58.961L136.093,70.991L137.566,70.737L142.822,58.913C142.859,58.832 142.928,58.702 143,58.544C143.066,58.397 143.139,58.213 143.475,57.602C143.812,56.997 144.471,56.684 145.016,56.725L145.047,55.827C144.443,55.868 143.135,55.973 142.168,55.973C141.66,55.973 141.143,55.936 140.646,55.903C140.289,55.881 139.65,55.844 139.291,55.835L139.291,56.67C139.768,56.659 140.316,56.864 140.541,57.081C140.666,57.182 140.801,57.45 140.801,57.647C140.801,57.979 140.748,58.247 140.398,59.141L137.533,66.237C137.397,65.811 137.201,65.223 136.922,64.485L134.881,59.151C134.582,58.34 134.51,58.016 134.51,57.663C134.51,57.46 134.552,57.303 134.703,57.128C134.978,56.821 135.475,56.67 135.984,56.665L136,55.835ZM203.664,69.215C203.213,69.764 202.059,70.911 199.646,70.911C197.35,70.911 196.072,70.096 195.512,68.256C195.279,67.526 195.279,66.096 195.279,65.233C195.279,62.856 195.299,60.956 195.326,58.751L195.336,57.719L193.377,57.719L193.377,57.137C194.178,56.831 194.715,56.508 195.24,56.112C196.385,55.219 197.121,54.102 198.002,52.541L198.654,52.541L198.654,55.874L203.695,55.874L203.695,57.719L198.654,57.719L198.654,65.51C198.654,67.842 199.078,69.17 201.277,69.17C202.309,69.17 202.984,68.836 203.414,68.61L203.664,69.215ZM172.262,70.182C172.256,68.655 172.174,67.065 172.072,66.26L173.053,66.26C173.08,67.096 173.283,67.719 173.693,68.209C174.285,68.93 174.996,69.194 176.31,69.194L176.49,69.194C178.131,69.194 178.969,68.502 178.969,67.143C178.969,66.028 178.256,65.579 177.076,64.832L174.957,63.522C173.836,62.832 172.543,61.788 172.543,59.754C172.543,58.016 173.258,56.791 174.67,56.094C175.588,55.635 176.922,55.563 177.635,55.563C178.853,55.563 180.566,55.723 181.559,55.936C181.49,56.336 181.467,57.383 181.467,57.721C181.467,58.028 181.486,59.442 181.519,59.698L180.543,59.698C180.543,59.067 180.377,58.489 179.988,57.989C179.631,57.528 178.732,57.139 177.635,57.139C176.133,57.139 175.363,57.778 175.363,59.038C175.363,60.077 176.162,60.563 176.869,60.991L176.943,61.036L178.935,62.219C180.275,63.001 181.947,63.973 181.947,66.362C181.947,70.276 178.387,70.864 176.262,70.864C174.912,70.864 173.646,70.686 172.262,70.182ZM188.049,52.95C186.891,52.95 186.111,52.207 186.111,51.102C186.111,49.961 186.912,49.19 188.111,49.19C189.268,49.19 190.055,49.934 190.055,51.04C190.055,52.182 189.25,52.95 188.049,52.95ZM184.367,70.014C185.199,69.922 185.703,69.831 186.092,69.391C186.549,68.87 186.578,67.663 186.578,65.106L186.578,60.866C186.578,59.034 186.547,58.129 186.281,57.725C186.043,57.379 185.641,57.241 184.584,57.169L184.584,56.315C185.217,56.411 186.75,56.262 187.996,56.02C188.641,55.913 189.25,55.7 189.637,55.501L189.969,55.827C189.875,56.78 189.838,58.934 189.838,61.71L189.838,66.045C189.838,68.004 189.9,68.909 190.164,69.297C190.424,69.702 191.098,69.959 191.98,70.004L191.98,70.711C191.092,70.659 189.564,70.573 188.238,70.573C186.756,70.573 185.174,70.631 184.367,70.725L184.367,70.014ZM124.824,52.95C123.663,52.95 122.889,52.207 122.889,51.102C122.889,49.961 123.686,49.19 124.884,49.19C126.044,49.19 126.828,49.934 126.828,51.04C126.828,52.182 126.021,52.95 124.824,52.95ZM121.137,70.014C121.975,69.922 122.477,69.831 122.865,69.391C123.328,68.87 123.353,67.663 123.353,65.106L123.353,60.866C123.353,59.034 123.323,58.129 123.059,57.725C122.818,57.379 122.416,57.241 121.361,57.169L121.361,56.315C121.988,56.411 123.523,56.262 124.771,56.02C125.414,55.913 126.021,55.7 126.41,55.501L126.742,55.827C126.65,56.78 126.61,58.934 126.61,61.71L126.61,66.045C126.61,68.004 126.672,68.909 126.939,69.297C127.201,69.702 127.871,69.959 128.761,70.004L128.761,70.711C127.863,70.659 126.337,70.573 125.012,70.573C123.53,70.573 121.951,70.631 121.137,70.725L121.137,70.014ZM92.615,70.926C88.388,70.926 85.962,69.616 84.984,66.801C84.497,65.352 84.497,63.651 84.497,62.157L84.497,54.2C84.497,51.776 84.386,51.415 83.939,51.016C83.747,50.844 83.208,50.598 82.505,50.563L82.505,49.743C83.513,49.852 85.158,49.895 86.191,49.895C87.929,49.895 88.851,49.848 89.968,49.741L89.968,50.592C89.298,50.563 88.744,50.751 88.372,51.178C87.906,51.696 87.882,52.604 87.882,55.135L87.882,62.186C87.882,66.342 88.238,69.071 93.02,69.071C97.773,69.071 98.13,66.266 98.13,62.001L98.13,54.2C98.13,51.776 98.015,51.415 97.574,51.016C97.302,50.778 96.726,50.594 96.136,50.563L96.136,49.756C97.072,49.786 98.271,49.895 99.414,49.895C100.514,49.895 101.621,49.866 102.948,49.741L102.948,50.592C102.248,50.563 101.719,50.762 101.348,51.178C100.88,51.7 100.853,52.604 100.853,55.135L100.853,61.094C100.853,62.989 100.853,65.141 100.25,66.805C99.228,69.62 96.804,70.926 92.615,70.926ZM159.287,56.385C160.297,56.442 161.385,56.319 162.531,56.118C163.414,55.961 163.975,55.77 164.291,55.622L164.562,55.754L164.562,57.041C165.277,56.374 166.398,55.665 167.994,55.665C169.154,55.665 169.928,55.991 170.578,56.579L170.578,57.049L169.332,59.342L168.721,59.342C168.326,58.649 167.582,57.999 166.248,57.999C165.619,57.999 165.1,58.157 164.625,58.471L164.625,65.957C164.625,67.911 164.689,68.834 164.945,69.219C165.355,69.844 166.586,69.911 167.295,69.889L167.295,70.707C166.275,70.653 164.518,70.567 163.252,70.567C161.82,70.567 160.4,70.594 159.225,70.725L159.225,69.975C160.051,69.934 160.516,69.706 160.834,69.346C161.295,68.827 161.314,67.608 161.314,65.082L161.314,60.842C161.314,59.006 161.303,58.213 161.027,57.831C160.781,57.495 160.244,57.299 159.287,57.29L159.287,56.385ZM212.172,56.649C211.76,56.649 211.287,56.788 210.967,57.028C210.709,57.221 210.65,57.544 210.65,57.745C210.65,58.118 210.783,58.485 211.045,59.2L213.223,64.989C213.555,65.854 213.787,66.573 213.943,67.079L216.602,59.161C216.92,58.247 216.973,58.03 216.973,57.692C216.973,57.497 216.853,57.264 216.711,57.114C216.451,56.864 216,56.725 215.467,56.686L215.467,55.835C215.785,55.835 216.486,55.878 216.807,55.903C217.111,55.928 217.748,55.973 218.256,55.973C219.246,55.973 220.615,55.887 221.213,55.827L221.213,56.696C220.812,56.747 219.887,56.622 219.158,58.874L213.469,74.077C212.639,76.27 211.607,79 207.619,79C206.029,79 204.877,78.612 204.059,77.813L204.059,77.403L205.461,75.694L205.857,75.688C206.279,76.61 207.053,76.995 208.119,76.995C209.926,76.995 210.715,75.442 211.963,72.161L212.303,71.264L207.461,58.887C207.42,58.799 207.357,58.628 207.279,58.432C207.144,58.096 206.883,57.516 206.883,57.516C206.605,56.932 206.057,56.68 205.434,56.706L205.434,55.827C206.353,55.901 207.922,55.973 208.74,55.973C209.281,55.973 210.086,55.932 210.799,55.897C211.197,55.874 211.859,55.844 212.172,55.835L212.172,56.649Z" style="fill:rgb(35,31,32);fill-rule:nonzero;"/>
        <path d="M45.197,23.414L30.948,23.428C30.035,22.726 29.008,22.111 28.176,21.859C26.437,21.334 26.637,20.828 26.723,20.701C26.887,20.618 27.129,20.54 27.477,20.473C28.039,20.366 28.838,20.562 28.838,20.562C30.086,20.779 30.615,20.163 29.618,19.436C29.081,19.046 28.747,18.931 27.232,18.261C26.24,17.823 26.378,16.713 26.764,16.673C27.363,16.611 28.979,17.117 27.843,15.843C27.843,15.843 26.963,14.976 26.326,14.735C25.688,14.491 26.322,14.11 26.551,13.99C26.781,13.87 27.587,13.648 26.457,12.79C26.457,12.79 24.474,11.585 25.251,11.019C26.052,10.434 26.362,9.981 25.619,9.93C25.093,9.893 24.58,9.703 24.712,9.172C24.744,8.984 25.195,8.676 25.345,8.488C25.544,8.241 25.373,8.155 25.264,8.126C25.205,8.112 25.137,8.105 25.053,8.105C24.661,8.107 24.433,7.88 24.232,7.35C23.991,6.385 23.825,5.519 23.825,5.519C23.815,5.519 23.804,5.516 23.791,5.516L23.79,5.516C23.619,5.517 23.612,5.626 23.494,6.14C23.107,7.845 22.914,8.499 22.248,8.497C22.161,8.497 22.092,8.504 22.034,8.515C21.923,8.546 21.757,8.632 21.954,8.879C22.228,9.221 22.874,9.523 22.887,9.77C22.899,9.985 22.719,10.179 22.464,10.415C22.202,10.678 21.55,11.114 21.55,11.114C21.55,11.114 20.742,11.613 20.6,11.889C20.421,12.303 21.344,12.28 21.344,12.28C22.988,12.342 22.298,12.947 22.03,13.042C21.605,13.191 21.252,13.286 20.821,13.53C20.28,13.877 19.738,14.41 19.738,14.41C18.601,15.685 20.216,15.178 20.816,15.24C21.202,15.28 21.341,16.39 20.347,16.828C19.713,17.109 19.286,17.292 18.964,17.438C18.801,17.525 18.223,17.848 17.87,18.356C17.492,18.899 18.634,18.723 19.416,18.784C19.925,18.824 20.526,18.407 20.893,18.444C21.352,18.491 21.494,18.587 21.567,18.88C21.646,19.197 21.414,19.513 21.073,19.791C20.973,19.92 20.798,20.025 20.679,20.077C20.671,20.081 20.661,20.085 20.652,20.09C20.172,20.388 19.649,20.614 19.436,20.7C17.874,21.537 15.557,22.94 14.597,24.015C13.882,24.816 14.469,25.252 14.777,25.115C15.086,24.976 15.616,24.666 16.445,24.83C17.114,24.962 17.992,24.742 18.679,24.561C19.285,24.431 19.871,23.417 20.108,23.807C20.679,24.74 19.7,25.837 19.309,26.218C18.548,27.232 16.439,28.153 15.592,28.839C14.607,29.636 14.203,30.679 13.935,32.731C13.67,34.783 14.736,33.318 14.736,33.318C15.002,32.998 15.616,32.272 17.188,32.272C18.761,32.272 19.06,31.82 19.612,31.506C20.615,30.938 20.093,32.272 20.093,32.272C19.426,33.753 18.233,33.764 16.9,34.601C16.781,34.688 16.672,34.799 16.419,35.05C15.858,35.601 16.036,35.829 16.344,35.782C16.648,35.736 17.136,35.926 17.644,35.909C18.175,35.891 18.622,35.784 19.218,35.525C19.813,35.266 20.117,34.783 20.497,35.027C20.751,35.189 20.701,35.603 20.639,35.861C20.622,36.162 20.243,36.701 20.03,36.939C19.671,37.344 17.676,38.647 16.978,38.968C16.883,39.011 16.791,39.056 16.701,39.103C16.675,39.122 16.646,39.141 16.612,39.159C15.693,39.681 15.082,40.47 15.082,40.47C14.921,40.703 14.088,42.042 15.227,41.463C16.369,40.884 17.889,41.864 18.642,41.491C19.086,41.272 18.933,42.166 18.918,42.251C18.915,42.55 18.865,42.854 18.816,42.954C18.482,43.617 18.228,43.575 17.019,44.092L9.965,44.092L2.456,36.574L2.456,12.072L11.281,3.591L36.37,3.591L45.197,12.086L45.197,23.414ZM27.383,37.111C28.311,37.354 28.785,37.999 30.37,37.572C30.37,37.572 31.028,37.443 31.428,37.65C31.832,37.857 32.883,37.57 30.921,36.194C29.491,35.193 28.194,35.275 27.486,33.706C27.486,33.706 27.225,33.234 27.35,33.001L27.349,33.001C27.407,32.864 27.771,32.501 28.272,32.679C28.763,32.853 30.56,33.626 31.312,33.804C31.715,33.896 32.022,34.044 32.257,34.201C32.591,34.401 33.627,34.776 33.623,34.006C33.447,32.727 33.209,31.854 32.796,31.185L37.686,31.187L45.197,38.693L45.197,62.076L36.37,70.57L33.89,70.569C32.595,70.554 30.656,69.787 30.062,69.076C28.771,67.533 28.077,67.705 27.163,66.791C26.048,65.676 25.79,64.364 25.73,62.985C25.73,58.35 25.73,56.838 25.73,56.838C25.73,56.838 25.632,55.593 26.62,56.362C27.605,57.129 28.16,57.043 29.824,56.914C31.489,56.782 33.313,58.281 34.271,58.866C35.228,59.452 37.178,60.911 35.163,55.815C34.774,54.83 33.612,54.147 33.013,53.849C32.645,53.652 32.106,52.983 32.605,52.417C32.605,52.417 33.604,51.534 33.062,50.931C32.884,50.715 32.438,50.504 31.455,50.382C30.329,50.244 29.15,49.553 28.692,48.451C28.604,47.731 29.587,47.462 30.077,47.793C30.585,48.13 31.656,48.502 32.25,48.583C34.109,48.838 33.897,48.673 33.692,48.093C33.564,47.734 33.279,46.88 32.064,46.243C29.507,44.906 29.206,45.264 28.764,44.388C28.638,44.137 28.517,42.608 29.13,43.067C29.139,43.074 29.143,43.077 29.15,43.08C29.267,43.204 29.403,43.352 29.57,43.479C30.209,43.974 30.716,44.038 31.613,44.017C32.508,43.998 32.611,44.361 32.973,44.527C33.334,44.693 33.817,44.99 33.373,43.643C32.903,42.216 32.116,41.094 30.601,40.402C29.904,40.081 27.909,38.777 27.55,38.373C27.216,37.996 26.457,36.866 27.383,37.111ZM21.851,55.392L21.851,55.985L21.85,55.986C21.85,56.208 21.85,56.504 21.85,56.876L21.844,56.838C21.844,56.838 21.844,57.805 21.844,60.561C21.822,62.347 21.693,63.991 20.969,64.713C20.283,65.399 19.204,66.203 18.593,67.15C17.784,68.401 16.787,70.428 14.119,70.557L11.281,70.556L2.456,62.06L2.46,51.984L13.637,51.984C13.638,51.984 13.638,51.984 13.639,51.983L15.322,51.983C15.142,52.157 14.939,52.247 14.939,52.247C14.939,52.247 12.951,53.033 12.418,54.381C12.036,55.346 11.797,56.076 11.666,56.622L11.673,56.623C11.399,57.828 12.073,58.333 12.55,57.719C13.319,56.733 16.008,55.36 16.939,55.277C17.874,55.196 19.491,55.277 20.452,54.262C21.412,53.247 21.851,53.276 21.851,53.647L21.851,55.252C21.853,55.316 21.853,55.368 21.851,55.392ZM46.425,11.564L36.863,2.363L10.789,2.363L1.227,11.549L1.227,37.081L9.456,45.319L14.763,45.321C14.167,45.845 13.983,46.391 13.888,46.659C13.682,47.24 13.471,47.406 15.331,47.151C15.924,47.069 16.997,46.697 17.502,46.36C17.993,46.028 18.976,46.297 18.888,47.019C18.429,48.12 17.253,48.81 16.126,48.949C13.541,49.268 14.656,50.214 14.656,50.214C14.943,50.408 15.147,50.59 15.292,50.758L14.034,50.758C14.034,50.757 14.033,50.757 14.033,50.756L1.233,50.756L1.227,62.583L10.787,71.799L36.863,71.799L46.425,62.598L46.425,38.184L38.194,29.959L31.546,29.959C31.016,29.616 30.301,29.227 29.651,28.808C29.65,28.806 29.648,28.806 29.645,28.804C29.396,28.661 29.15,28.484 28.919,28.287C28.721,28.13 28.544,27.97 28.399,27.808C27.822,27.222 27.391,26.606 27.277,26.325C27.065,25.804 27.114,25.146 27.596,25.419C28.825,26.115 30.845,26.247 31.594,26.27C31.679,26.269 32.285,26.336 32.426,26.381C32.576,26.439 32.81,26.55 32.81,26.55C33.112,26.677 33.662,26.264 33.029,25.504C32.861,25.243 32.614,24.948 32.318,24.641L46.425,24.642L46.425,11.564Z" style="fill:white;fill-rule:nonzero;"/>
        <path d="M27.55,38.373C27.909,38.777 29.904,40.081 30.601,40.402C32.116,41.094 32.903,42.216 33.373,43.643C33.817,44.99 33.334,44.693 32.973,44.527C32.611,44.361 32.508,43.998 31.613,44.017C30.716,44.038 30.209,43.974 29.57,43.479C29.403,43.352 29.267,43.204 29.15,43.08C29.143,43.077 29.139,43.074 29.13,43.067C28.517,42.608 28.638,44.137 28.764,44.388C29.206,45.264 29.507,44.906 32.064,46.243C33.279,46.88 33.564,47.734 33.692,48.093C33.897,48.673 34.109,48.838 32.25,48.583C31.656,48.502 30.585,48.13 30.077,47.793C29.587,47.462 28.604,47.731 28.692,48.451C29.15,49.553 30.329,50.244 31.455,50.382C32.438,50.504 32.884,50.715 33.062,50.931C33.604,51.534 32.605,52.417 32.605,52.417C32.106,52.983 32.645,53.652 33.013,53.849C33.612,54.147 34.774,54.83 35.163,55.815C37.178,60.911 35.228,59.452 34.271,58.866C33.313,58.281 31.489,56.782 29.824,56.914C28.16,57.043 27.605,57.129 26.62,56.362C25.632,55.593 25.73,56.838 25.73,56.838C25.73,56.838 25.73,58.35 25.73,62.985C25.79,64.364 26.048,65.676 27.163,66.791C28.077,67.705 28.771,67.533 30.062,69.076C30.656,69.787 32.595,70.554 33.89,70.569L36.37,70.57L45.197,62.076L45.197,38.693L37.686,31.187L32.796,31.185C33.209,31.854 33.447,32.727 33.623,34.006C33.627,34.776 32.591,34.401 32.257,34.201C32.022,34.044 31.715,33.896 31.312,33.804C30.56,33.626 28.763,32.853 28.272,32.679C27.771,32.501 27.407,32.864 27.349,33.001L27.35,33.001C27.225,33.234 27.486,33.706 27.486,33.706C28.194,35.275 29.491,35.193 30.921,36.194C32.883,37.57 31.832,37.857 31.428,37.65C31.028,37.443 30.37,37.572 30.37,37.572C28.785,37.999 28.311,37.354 27.383,37.111C26.457,36.866 27.216,37.996 27.55,38.373Z" style="fill:rgb(3,4,4);fill-rule:nonzero;"/>
        <path d="M18.593,67.15C19.204,66.203 20.283,65.399 20.969,64.713C21.693,63.991 21.822,62.347 21.844,60.561C21.844,57.805 21.844,56.838 21.844,56.838L21.85,56.876C21.85,56.504 21.85,56.208 21.85,55.986L21.851,55.985L21.851,55.392C21.853,55.368 21.853,55.316 21.851,55.252L21.851,53.647C21.851,53.276 21.412,53.247 20.452,54.262C19.491,55.277 17.874,55.196 16.939,55.277C16.008,55.36 13.319,56.733 12.55,57.719C12.073,58.333 11.399,57.828 11.673,56.623L11.666,56.622C11.797,56.076 12.036,55.346 12.418,54.381C12.951,53.033 14.939,52.247 14.939,52.247C14.939,52.247 15.142,52.157 15.322,51.983L13.639,51.983C13.638,51.984 13.638,51.984 13.637,51.984L2.46,51.984L2.456,62.06L11.281,70.556L14.119,70.557C16.787,70.428 17.784,68.401 18.593,67.15Z" style="fill:rgb(3,4,4);fill-rule:nonzero;"/>
        <path d="M11.281,3.591L2.456,12.072L2.456,36.574L9.965,44.092L17.019,44.092C18.228,43.575 18.482,43.617 18.816,42.954C18.865,42.854 18.915,42.55 18.918,42.251C18.933,42.166 19.086,41.272 18.642,41.491C17.889,41.864 16.369,40.884 15.227,41.463C14.088,42.042 14.921,40.703 15.082,40.47C15.082,40.47 15.693,39.681 16.612,39.159C16.646,39.141 16.675,39.122 16.701,39.103C16.791,39.056 16.883,39.011 16.978,38.968C17.676,38.647 19.671,37.344 20.03,36.939C20.243,36.701 20.622,36.162 20.639,35.861C20.701,35.603 20.751,35.189 20.497,35.027C20.117,34.783 19.813,35.266 19.218,35.525C18.622,35.784 18.175,35.891 17.644,35.909C17.136,35.926 16.648,35.736 16.344,35.782C16.036,35.829 15.858,35.601 16.419,35.05C16.672,34.799 16.781,34.688 16.9,34.601C18.233,33.764 19.426,33.753 20.093,32.272C20.093,32.272 20.615,30.938 19.612,31.506C19.06,31.82 18.761,32.272 17.188,32.272C15.616,32.272 15.002,32.998 14.736,33.318C14.736,33.318 13.67,34.783 13.935,32.731C14.203,30.679 14.607,29.636 15.592,28.839C16.439,28.153 18.548,27.232 19.309,26.218C19.7,25.837 20.679,24.74 20.108,23.807C19.871,23.417 19.285,24.431 18.679,24.561C17.992,24.742 17.114,24.962 16.445,24.83C15.616,24.666 15.086,24.976 14.777,25.115C14.469,25.252 13.882,24.816 14.597,24.015C15.557,22.94 17.874,21.537 19.436,20.7C19.649,20.614 20.172,20.388 20.652,20.09C20.661,20.085 20.671,20.081 20.679,20.077C20.798,20.025 20.973,19.92 21.073,19.791C21.414,19.513 21.646,19.197 21.567,18.88C21.494,18.587 21.352,18.491 20.893,18.444C20.526,18.407 19.925,18.824 19.416,18.784C18.634,18.723 17.492,18.899 17.87,18.356C18.223,17.848 18.801,17.525 18.964,17.438C19.286,17.292 19.713,17.109 20.347,16.828C21.341,16.39 21.202,15.28 20.816,15.24C20.216,15.178 18.601,15.685 19.738,14.41C19.738,14.41 20.28,13.877 20.821,13.53C21.252,13.286 21.605,13.191 22.03,13.042C22.298,12.947 22.988,12.342 21.344,12.28C21.344,12.28 20.421,12.303 20.6,11.889C20.742,11.613 21.55,11.114 21.55,11.114C21.55,11.114 22.202,10.678 22.464,10.415C22.719,10.179 22.899,9.985 22.887,9.77C22.874,9.523 22.228,9.221 21.954,8.879C21.757,8.632 21.923,8.546 22.034,8.515C22.092,8.504 22.161,8.497 22.248,8.497C22.914,8.499 23.107,7.845 23.494,6.14C23.612,5.626 23.619,5.517 23.79,5.516L23.791,5.516C23.804,5.516 23.815,5.519 23.825,5.519C23.825,5.519 23.991,6.385 24.232,7.35C24.433,7.88 24.661,8.107 25.053,8.105C25.137,8.105 25.205,8.112 25.264,8.126C25.373,8.155 25.544,8.241 25.345,8.488C25.195,8.676 24.744,8.984 24.712,9.172C24.58,9.703 25.093,9.893 25.619,9.93C26.362,9.981 26.052,10.434 25.251,11.019C24.474,11.585 26.457,12.79 26.457,12.79C27.587,13.648 26.781,13.87 26.551,13.99C26.322,14.11 25.688,14.491 26.326,14.735C26.963,14.976 27.843,15.843 27.843,15.843C28.979,17.117 27.363,16.611 26.764,16.673C26.378,16.713 26.24,17.823 27.232,18.261C28.747,18.931 29.081,19.046 29.618,19.436C30.615,20.163 30.086,20.779 28.838,20.562C28.838,20.562 28.039,20.366 27.477,20.473C27.129,20.54 26.887,20.618 26.723,20.701C26.637,20.828 26.437,21.334 28.176,21.859C29.008,22.111 30.035,22.726 30.948,23.428L45.197,23.414L45.197,12.086L36.37,3.591L11.281,3.591Z" style="fill:rgb(3,4,4);fill-rule:nonzero;"/>
        <path d="M46.425,24.642L32.318,24.641C32.614,24.948 32.861,25.243 33.029,25.504C33.662,26.264 33.112,26.677 32.81,26.55C32.81,26.55 32.576,26.439 32.426,26.381C32.285,26.336 31.679,26.269 31.594,26.27C30.845,26.247 28.825,26.115 27.596,25.419C27.114,25.146 27.065,25.804 27.277,26.325C27.391,26.606 27.822,27.222 28.399,27.808C28.544,27.97 28.721,28.13 28.919,28.287C29.15,28.484 29.396,28.661 29.645,28.804C29.648,28.806 29.65,28.806 29.651,28.808C30.301,29.227 31.016,29.616 31.546,29.959L38.194,29.959L46.425,38.184L46.425,62.598L36.863,71.799L10.787,71.799L1.227,62.583L1.233,50.756L14.033,50.756C14.033,50.757 14.034,50.757 14.034,50.758L15.292,50.758C15.147,50.59 14.943,50.408 14.656,50.214C14.656,50.214 13.541,49.268 16.126,48.949C17.253,48.81 18.429,48.12 18.888,47.019C18.976,46.297 17.993,46.028 17.502,46.36C16.997,46.697 15.924,47.069 15.331,47.151C13.471,47.406 13.682,47.24 13.888,46.659C13.983,46.391 14.167,45.845 14.763,45.321L9.456,45.319L1.227,37.081L1.227,11.549L10.789,2.363L36.863,2.363L46.425,11.564L46.425,24.642ZM47.652,11.042L37.359,1.136L10.293,1.136L0,11.026L0,37.589L8.947,46.546L13.051,46.546C12.951,46.816 12.82,47.234 13.104,47.641C13.414,48.09 13.95,48.09 14.151,48.09C14.396,48.09 14.729,48.061 15.245,47.994C15.246,47.995 15.248,47.996 15.248,47.996C15.248,47.996 15.462,48.179 14.808,48.39C14.269,48.578 13.801,48.886 13.643,49.416C13.632,49.454 13.627,49.491 13.621,49.528L0.005,49.528L0,63.105L10.29,73.026L37.359,73.026L47.652,63.121L47.652,37.676L38.703,28.73L31.113,28.73C31.109,28.728 31.105,28.727 31.103,28.724C30.768,28.527 30.424,28.325 30.109,28.119L29.996,28.047L29.973,28.04C29.807,27.937 29.627,27.806 29.43,27.642C29.261,27.507 29.12,27.378 29.016,27.259L28.987,27.23C28.785,27.024 28.614,26.827 28.477,26.654C29.663,26.992 30.95,27.074 31.568,27.095L31.645,27.095C31.685,27.095 31.725,27.096 31.762,27.097L31.817,27.102C31.964,27.113 32.079,27.139 32.154,27.16C32.233,27.192 32.305,27.226 32.368,27.255L32.69,27.373C32.766,27.39 32.845,27.398 32.926,27.398C33.393,27.398 33.825,27.12 34.025,26.692C34.094,26.544 34.191,26.249 34.115,25.864L47.652,25.871L47.652,11.042Z" style="fill:rgb(3,4,4);fill-rule:nonzero;"/>
    </g>
</svg>
