<?xml version="1.0" encoding="UTF-8" standalone="no"?>
<!DOCTYPE svg PUBLIC "-//W3C//DTD SVG 1.1//EN" "http://www.w3.org/Graphics/SVG/1.1/DTD/svg11.dtd">
<svg width="100%" height="100%" viewBox="0 0 1009 330" version="1.1" xmlns="http://www.w3.org/2000/svg" xmlns:xlink="http://www.w3.org/1999/xlink" xml:space="preserve" style="fill-rule:evenodd;clip-rule:evenodd;stroke-linejoin:round;stroke-miterlimit:1.41421;">
    <g transform="matrix(4.16667,0,0,4.16667,0,0)">
        <path d="M101.964,34.811C101.263,35.664 99.447,37.463 95.664,37.463C92.069,37.463 90.063,36.182 89.183,33.303C88.822,32.161 88.822,29.916 88.822,28.567C88.822,24.842 88.861,21.862 88.899,18.411L88.913,16.788L85.844,16.788L85.844,15.875C87.092,15.395 87.936,14.895 88.759,14.266C90.56,12.872 91.71,11.127 93.091,8.674L94.114,8.674L94.114,13.899L102.014,13.899L102.014,16.788L94.114,16.788L94.114,29.002C94.114,32.657 94.776,34.735 98.228,34.735C99.837,34.735 100.901,34.209 101.572,33.86L101.964,34.811ZM229.179,34.149C230.767,34.149 231.845,33.899 233.001,33.209L233.001,17.625C232.623,17.256 231.212,16.069 228.361,16.069C223.832,16.069 221.634,19.17 221.634,25.551C221.634,28.225 222.435,34.149 229.179,34.149ZM229.992,1.823C231.398,1.823 233.228,1.561 235.458,1.17C236.724,0.952 237.576,0.719 237.986,0.557L238.392,0.792C238.193,2.713 238.191,7.038 238.191,10.102L238.191,29.073C238.191,31.905 238.238,33.657 238.64,34.223C239.005,34.752 239.861,35.11 241.322,35.112L241.322,36.356C239.853,36.356 238.119,36.545 236.322,36.838C235.128,37.034 234.187,37.227 233.74,37.473L233.103,37.256L233.103,35.297C231.953,36.153 229.656,37.485 226.611,37.485C220.222,37.485 216.105,33.053 216.105,26.198C216.105,23.911 216.542,21.748 217.347,19.924C219.308,15.702 223.357,13.284 228.466,13.284C230.333,13.284 232.003,13.518 233.001,13.731L233.001,8.782C233.001,5.881 232.958,4.34 232.539,3.717C232.214,3.241 231.738,3.006 229.992,2.879L229.992,1.823ZM197.257,14.663C198.837,14.75 200.552,14.561 202.343,14.245C203.726,14 204.607,13.7 205.103,13.467L205.527,13.674L205.527,15.694C206.646,14.643 208.404,13.536 210.9,13.536C212.722,13.536 213.931,14.047 214.953,14.971L214.953,15.705L212.998,19.297L212.044,19.297C211.423,18.213 210.261,17.196 208.169,17.196C207.183,17.196 206.363,17.438 205.623,17.932L205.623,29.664C205.623,32.721 205.722,34.17 206.123,34.778C206.769,35.76 208.703,35.862 209.81,35.825L209.81,37.114C208.212,37.026 205.457,36.889 203.478,36.889C201.228,36.889 199.009,36.93 197.156,37.135L197.156,35.963C198.453,35.899 199.181,35.539 199.685,34.973C200.408,34.159 200.443,32.252 200.443,28.295L200.443,21.647C200.443,18.77 200.421,17.528 199.982,16.926C199.599,16.401 198.757,16.094 197.257,16.077L197.257,14.663ZM183.382,15.928C181.999,15.928 180.9,16.286 180.078,16.985C178.218,18.553 177.269,21.391 177.269,25.454C177.269,27.02 177.56,34.842 183.287,34.842C184.648,34.842 185.765,34.489 186.568,33.791C188.449,32.223 189.392,29.366 189.392,25.305C189.392,23.752 189.099,15.928 183.382,15.928ZM183.091,37.538C175.988,37.538 171.742,33.106 171.742,25.707C171.742,19.942 174.845,13.241 183.58,13.241C190.679,13.241 194.91,17.653 194.91,25.067C194.91,30.805 191.816,37.538 183.091,37.538ZM156.32,36.01C157.273,36.024 158.285,35.663 158.851,35.026C159.57,34.215 159.613,32.252 159.613,28.295L159.613,16.756L156.576,16.756L156.576,15.45C157.855,14.955 158.978,14.375 159.613,13.877C159.617,11.827 159.683,9.163 159.964,7.713C160.861,2.92 164.013,0.473 169.281,0.473C171.607,0.473 173.816,1.266 175.15,2.405L175.224,2.895L172.916,6.092L172.349,6.102C171.564,4.174 170.384,3.069 168.298,3.069C167.578,3.069 166.574,3.293 165.953,3.905C164.958,4.907 164.783,6.401 164.783,9.372L164.783,13.868L169.972,13.868L169.972,16.756L164.783,16.756L164.783,29.664C164.783,32.721 164.888,34.223 165.289,34.829C165.935,35.803 167.982,35.92 168.988,35.881L168.988,37.114C167.277,37.01 164.624,36.889 162.64,36.889C159.755,36.889 157.874,36.973 156.32,37.135L156.32,36.01ZM127.413,14.745C128.595,14.838 130.373,14.717 132.115,14.416C133.582,14.163 134.113,13.955 135.211,13.403L135.669,13.678L135.669,15.526C136.845,14.659 139.205,13.284 142.421,13.284C146.607,13.284 149.349,15.243 150.126,18.805C150.347,19.688 150.431,21.819 150.431,22.965L150.431,29.752C150.431,33.596 150.583,34.664 151.3,35.352C151.666,35.672 152.521,36.024 153.556,36.024L153.556,37.112C152.064,37.039 149.404,36.889 147.8,36.889C145.667,36.889 143.271,36.991 141.976,37.135L141.976,36.067C143.13,35.948 143.917,35.612 144.324,35.217C144.996,34.543 145.111,33.2 145.21,30.309C145.24,29.448 145.263,27.623 145.263,26.288C145.263,24.551 145.263,22.745 145.062,20.971C144.718,17.959 143.134,16.561 140.129,16.561C138.029,16.561 136.746,17.039 135.766,17.536L135.766,29.752C135.766,33.596 135.917,34.664 136.652,35.352C137.006,35.672 137.917,36.032 138.896,36.024L138.896,37.114C136.97,37.014 134.659,36.889 133.175,36.889C130.082,36.889 129.108,36.952 127.312,37.135L127.312,36.03C128.317,36.018 129.294,35.659 129.839,35.038C130.548,34.239 130.59,32.252 130.59,28.295L130.59,21.649C130.59,18.77 130.535,17.551 130.129,16.928C129.813,16.444 129.011,16.057 127.413,16.077L127.413,14.745ZM64.554,36.08C64.554,33.743 64.571,31.758 64.38,29.36L65.762,29.36C65.778,30.842 66.192,31.938 66.835,32.666C67.823,33.778 70.106,34.455 72.226,34.455C76.653,34.455 78.72,32.774 78.72,29.172C78.72,26.082 76.811,24.803 74.171,23.018L73.763,22.735L70.981,20.879C67.109,18.317 65.128,16.262 65.128,12.161C65.128,10.157 65.895,3.606 75.641,3.606C78.1,3.606 81.333,3.866 83.284,4.231C83.263,4.542 83.232,6.042 83.232,7.299C83.232,8.762 83.232,9.247 83.289,11.036L82.106,11.036C82.069,9.461 81.638,8.448 80.952,7.768C80.011,6.833 77.937,6.395 75.745,6.395C70.577,6.395 69.97,9.043 69.97,11.036C69.97,13.782 71.374,14.705 74.435,16.737L77.972,19.071C80.975,21.071 83.805,22.965 83.805,27.948C83.805,36.383 75.946,37.289 72.567,37.289C69.502,37.289 67.04,36.911 64.554,36.08ZM116.669,25.112C113.58,26.043 112.517,26.553 111.569,27.049C110.213,27.715 109.535,29.086 109.535,30.7C109.535,31.957 109.985,34.073 113.003,34.073C114.001,34.073 115.433,33.881 116.669,32.995L116.669,25.112ZM111.101,37.338C104.784,37.338 104.302,32.565 104.302,31.088C104.302,29.36 104.751,26.307 108.775,24.832C112.924,23.311 113.812,23.133 116.669,22.239L116.669,21.491C116.669,20.11 116.669,19.78 116.391,18.913C115.848,17.284 114.267,16.243 112.13,16.243C109.99,16.243 108.226,17.422 107.429,19.133L106.263,18.448C107.007,15.815 109.651,13.198 114.216,13.198C117.464,13.198 119.587,14.116 120.88,16.104C121.869,17.676 121.955,19.866 121.955,22.137C121.955,24.145 121.896,26.37 121.858,28.172C121.824,29.414 121.796,30.483 121.796,31.139C121.796,32.774 122.056,34.047 123.423,34.047C123.987,34.047 124.099,33.897 124.582,33.508L125.329,34.372C124.099,35.977 122.747,37.299 120.473,37.299C118.63,37.299 117.346,36.416 116.919,34.94C115.884,36.01 114.027,37.338 111.101,37.338Z" style="fill:rgb(169,4,51);fill-rule:nonzero;"/>
        <path d="M149.039,60.965L154.884,60.965C154.884,59.205 154.537,57.2 151.962,57.2C149.568,57.2 149.089,59.44 149.039,60.965ZM152.642,70.897C148.173,70.897 145.718,68.313 145.718,63.622C145.718,62.795 145.914,55.563 152.714,55.563C154.751,55.563 156.49,56.399 157.347,57.791C158.21,59.174 158.326,60.598 158.326,61.813L158.326,62.598L149.003,62.598C149.013,63.36 149.062,63.95 149.154,64.473C149.656,67.34 151.255,68.731 154.056,68.731C155.63,68.731 156.63,68.395 157.583,67.856L158.025,68.596C156.984,69.954 154.958,70.897 152.642,70.897ZM103.967,56.448C104.72,56.508 105.855,56.432 106.966,56.239C107.902,56.077 108.243,55.942 108.939,55.59L109.235,55.764L109.235,56.946C109.984,56.393 111.489,55.514 113.544,55.514C116.215,55.514 117.964,56.768 118.457,59.038C118.597,59.602 118.654,60.959 118.654,61.694L118.654,66.028C118.654,68.475 118.749,69.157 119.208,69.6C119.443,69.803 119.987,70.028 120.65,70.028L120.65,70.721C119.693,70.674 117.999,70.579 116.974,70.579C115.615,70.579 114.083,70.639 113.257,70.733L113.257,70.055C113.994,69.975 114.497,69.76 114.755,69.508C115.185,69.08 115.26,68.223 115.322,66.379C115.339,65.829 115.356,64.664 115.356,63.811C115.356,62.704 115.356,61.553 115.228,60.422C115.007,58.497 113.998,57.604 112.079,57.604C110.742,57.604 109.922,57.913 109.294,58.231L109.294,66.028C109.294,68.475 109.394,69.157 109.859,69.6C110.085,69.803 110.667,70.032 111.292,70.028L111.292,70.721C110.062,70.655 108.591,70.579 107.642,70.579C105.671,70.579 105.046,70.616 103.903,70.733L103.903,70.032C104.542,70.024 105.169,69.793 105.515,69.399C105.964,68.887 105.994,67.618 105.994,65.094L105.994,60.854C105.994,59.014 105.958,58.241 105.701,57.84C105.498,57.53 104.985,57.288 103.967,57.299L103.967,56.448ZM136.656,55.834C136.359,55.834 135.689,55.873 135.291,55.897C134.533,55.932 133.673,55.973 133.124,55.973C132.038,55.973 130.419,55.875 129.919,55.827L129.919,56.705C130.087,56.711 130.94,56.633 131.377,57.575C131.554,57.948 131.712,58.319 131.76,58.442C131.835,58.635 131.93,58.873 131.971,58.961L136.749,70.991L138.222,70.737L143.478,58.913C143.515,58.832 143.583,58.702 143.656,58.543C143.722,58.397 143.794,58.213 144.13,57.602C144.468,56.997 145.126,56.684 145.671,56.725L145.703,55.827C145.099,55.868 143.791,55.973 142.824,55.973C142.316,55.973 141.798,55.936 141.302,55.903C140.945,55.881 140.306,55.844 139.947,55.834L139.947,56.67C140.423,56.659 140.972,56.864 141.197,57.08C141.322,57.182 141.457,57.45 141.457,57.647C141.457,57.979 141.404,58.247 141.054,59.141L138.189,66.237C138.053,65.811 137.857,65.223 137.578,64.485L135.537,59.151C135.238,58.34 135.166,58.016 135.166,57.663C135.166,57.459 135.207,57.303 135.359,57.127C135.635,56.821 136.13,56.67 136.64,56.664L136.656,55.834ZM204.32,69.215C203.869,69.764 202.714,70.911 200.302,70.911C198.005,70.911 196.728,70.096 196.167,68.256C195.935,67.526 195.935,66.096 195.935,65.233C195.935,62.856 195.955,60.955 195.982,58.75L195.992,57.719L194.033,57.719L194.033,57.137C194.833,56.83 195.371,56.508 195.896,56.112C197.041,55.219 197.777,54.102 198.658,52.541L199.31,52.541L199.31,55.873L204.351,55.873L204.351,57.719L199.31,57.719L199.31,65.51C199.31,67.842 199.734,69.17 201.933,69.17C202.964,69.17 203.64,68.836 204.07,68.61L204.32,69.215ZM172.917,70.182C172.912,68.655 172.83,67.065 172.728,66.26L173.708,66.26C173.736,67.096 173.939,67.719 174.349,68.209C174.941,68.93 175.652,69.194 176.966,69.194L177.146,69.194C178.787,69.194 179.624,68.502 179.624,67.143C179.624,66.028 178.912,65.579 177.732,64.832L175.613,63.522C174.492,62.832 173.199,61.788 173.199,59.754C173.199,58.016 173.914,56.791 175.326,56.094C176.244,55.635 177.578,55.563 178.291,55.563C179.509,55.563 181.222,55.723 182.214,55.936C182.146,56.336 182.123,57.383 182.123,57.721C182.123,58.028 182.142,59.442 182.175,59.698L181.199,59.698C181.199,59.067 181.033,58.489 180.644,57.989C180.287,57.528 179.388,57.139 178.291,57.139C176.789,57.139 176.019,57.778 176.019,59.038C176.019,60.077 176.818,60.563 177.525,60.991L177.599,61.036L179.591,62.219C180.931,63 182.603,63.973 182.603,66.362C182.603,70.276 179.042,70.864 176.917,70.864C175.568,70.864 174.302,70.686 172.917,70.182ZM188.705,52.95C187.546,52.95 186.767,52.207 186.767,51.102C186.767,49.961 187.568,49.19 188.767,49.19C189.923,49.19 190.71,49.934 190.71,51.039C190.71,52.182 189.906,52.95 188.705,52.95ZM185.023,70.014C185.855,69.922 186.359,69.83 186.748,69.391C187.205,68.87 187.234,67.663 187.234,65.106L187.234,60.866C187.234,59.034 187.203,58.129 186.937,57.725C186.699,57.379 186.296,57.241 185.24,57.168L185.24,56.315C185.873,56.411 187.406,56.262 188.652,56.02C189.296,55.913 189.906,55.7 190.292,55.5L190.624,55.827C190.531,56.78 190.494,58.934 190.494,61.709L190.494,66.045C190.494,68.004 190.556,68.909 190.82,69.297C191.08,69.702 191.753,69.959 192.636,70.004L192.636,70.711C191.748,70.659 190.22,70.573 188.894,70.573C187.412,70.573 185.83,70.631 185.023,70.725L185.023,70.014ZM125.48,52.95C124.319,52.95 123.544,52.207 123.544,51.102C123.544,49.961 124.342,49.19 125.54,49.19C126.7,49.19 127.485,49.934 127.485,51.039C127.485,52.182 126.677,52.95 125.48,52.95ZM121.792,70.014C122.631,69.922 123.132,69.83 123.521,69.391C123.984,68.87 124.009,67.663 124.009,65.106L124.009,60.866C124.009,59.034 123.979,58.129 123.714,57.725C123.474,57.379 123.072,57.241 122.017,57.168L122.017,56.315C122.644,56.411 124.179,56.262 125.427,56.02C126.07,55.913 126.677,55.7 127.067,55.5L127.397,55.827C127.306,56.78 127.266,58.934 127.266,61.709L127.266,66.045C127.266,68.004 127.328,68.909 127.595,69.297C127.857,69.702 128.526,69.959 129.416,70.004L129.416,70.711C128.519,70.659 126.993,70.573 125.667,70.573C124.186,70.573 122.607,70.631 121.792,70.725L121.792,70.014ZM93.27,70.926C89.044,70.926 86.618,69.616 85.64,66.801C85.152,65.352 85.152,63.651 85.152,62.157L85.152,54.2C85.152,51.776 85.042,51.414 84.595,51.016C84.402,50.844 83.864,50.598 83.161,50.563L83.161,49.743C84.169,49.852 85.813,49.895 86.847,49.895C88.585,49.895 89.507,49.848 90.624,49.741L90.624,50.592C89.954,50.563 89.4,50.75 89.028,51.178C88.561,51.696 88.538,52.604 88.538,55.135L88.538,62.186C88.538,66.342 88.894,69.071 93.676,69.071C98.429,69.071 98.786,66.266 98.786,62L98.786,54.2C98.786,51.776 98.671,51.414 98.229,51.016C97.958,50.778 97.382,50.594 96.792,50.563L96.792,49.756C97.728,49.786 98.927,49.895 100.071,49.895C101.169,49.895 102.277,49.866 103.604,49.741L103.604,50.592C102.904,50.563 102.374,50.762 102.003,51.178C101.536,51.7 101.509,52.604 101.509,55.135L101.509,61.094C101.509,62.989 101.509,65.141 100.906,66.805C99.884,69.62 97.46,70.926 93.27,70.926ZM159.943,56.385C160.953,56.442 162.041,56.319 163.187,56.118C164.07,55.961 164.63,55.77 164.947,55.622L165.218,55.754L165.218,57.041C165.933,56.373 167.054,55.664 168.65,55.664C169.81,55.664 170.583,55.991 171.234,56.579L171.234,57.049L169.988,59.342L169.376,59.342C168.982,58.649 168.238,57.998 166.904,57.998C166.275,57.998 165.755,58.157 165.281,58.471L165.281,65.957C165.281,67.911 165.345,68.834 165.601,69.219C166.011,69.844 167.242,69.911 167.951,69.889L167.951,70.707C166.931,70.653 165.173,70.567 163.908,70.567C162.476,70.567 161.056,70.594 159.88,70.725L159.88,69.975C160.707,69.934 161.171,69.705 161.49,69.346C161.951,68.827 161.97,67.608 161.97,65.082L161.97,60.842C161.97,59.006 161.958,58.213 161.683,57.83C161.437,57.495 160.9,57.299 159.943,57.289L159.943,56.385ZM212.828,56.649C212.416,56.649 211.943,56.788 211.623,57.028C211.365,57.221 211.306,57.543 211.306,57.745C211.306,58.118 211.439,58.485 211.701,59.2L213.878,64.989C214.21,65.854 214.443,66.573 214.599,67.079L217.257,59.161C217.576,58.247 217.628,58.03 217.628,57.692C217.628,57.497 217.509,57.264 217.367,57.114C217.107,56.864 216.656,56.725 216.123,56.686L216.123,55.834C216.441,55.834 217.142,55.877 217.462,55.903C217.767,55.928 218.404,55.973 218.912,55.973C219.902,55.973 221.271,55.887 221.869,55.827L221.869,56.696C221.468,56.747 220.542,56.622 219.814,58.873L214.124,74.077C213.294,76.27 212.263,79 208.275,79C206.685,79 205.533,78.612 204.714,77.813L204.714,77.403L206.117,75.694L206.513,75.688C206.935,76.61 207.708,76.995 208.775,76.995C210.582,76.995 211.371,75.442 212.619,72.161L212.958,71.264L208.117,58.887C208.076,58.799 208.013,58.627 207.935,58.432C207.8,58.096 207.539,57.516 207.539,57.516C207.261,56.932 206.712,56.68 206.089,56.705L206.089,55.827C207.009,55.901 208.578,55.973 209.396,55.973C209.937,55.973 210.742,55.932 211.455,55.897C211.853,55.873 212.515,55.844 212.828,55.834L212.828,56.649Z" style="fill:rgb(169,4,51);fill-rule:nonzero;"/>
        <path d="M30.78,27.904C31.057,28.08 31.348,28.255 31.636,28.424C31.64,28.425 31.643,28.428 31.647,28.429L39.259,28.429L48.236,37.402L48.236,62.925L37.912,72.862L10.76,72.862L0.438,62.91L0.443,49.291L14.1,49.291C14.108,49.253 14.112,49.216 14.123,49.179C14.17,49.02 14.252,48.886 14.349,48.764L0.005,48.764L0,63.196L10.664,73.476L38.273,73.476L48.938,63.212L48.938,37.211L39.629,27.904L30.78,27.904Z" style="fill:white;fill-rule:nonzero;"/>
        <path d="M38.274,0.224L10.665,0.224L0.001,10.472L0.001,37.596L9.308,46.915L13.414,46.915C13.399,46.679 13.468,46.463 13.529,46.3L9.413,46.3L0.438,37.316L0.438,10.671L10.763,0.751L37.912,0.751L48.236,10.687L48.236,25.561L34.657,25.555C34.706,25.804 34.683,26.011 34.64,26.169L48.938,26.169L48.938,10.488L38.274,0.224Z" style="fill:white;fill-rule:nonzero;"/>
        <path d="M21.663,45.069L9.923,45.069L1.67,36.806L1.67,11.196L11.26,1.982L37.414,1.982L47.005,11.211L47.005,24.329L26.072,24.329L26.072,29.662L38.75,29.662L47.005,37.912L47.005,62.401L37.414,71.629L11.259,71.629L1.67,62.385L1.675,50.529L21.634,50.529L21.663,45.069Z" style="fill:white;fill-rule:nonzero;"/>
        <path d="M21.438,46.3L9.413,46.3L0.438,37.316L0.438,10.671L10.763,0.751L37.912,0.751L48.236,10.687L48.236,25.561L26.072,25.561L26.072,28.429L39.259,28.429L48.236,37.402L48.236,62.925L37.912,72.862L10.76,72.862L0.438,62.91L0.443,49.291L21.641,49.291L21.438,46.3Z" style="fill:white;fill-rule:nonzero;"/>
        <path d="M24.479,26.169L48.938,26.169L48.938,10.488L38.274,0.224L10.665,0.224L0.001,10.472L0.001,37.596L9.308,46.915L21.479,46.915L21.714,48.764L0.005,48.764L0,63.196L10.664,73.476L38.273,73.476L48.938,63.212L48.938,37.211L39.629,27.904L23.875,27.904L24.479,26.169Z" style="fill:white;fill-rule:nonzero;"/>
        <path d="M28.072,38.102C28.433,38.507 30.433,39.815 31.132,40.136C32.653,40.831 33.442,41.956 33.913,43.387C34.359,44.738 33.875,44.442 33.512,44.275C33.15,44.108 33.047,43.745 32.148,43.763C31.248,43.785 30.74,43.72 30.099,43.224C29.932,43.095 29.795,42.947 29.677,42.823C29.67,42.82 29.666,42.816 29.657,42.81C29.042,42.35 29.164,43.883 29.29,44.134C29.734,45.014 30.036,44.655 32.6,45.996C33.819,46.634 34.105,47.491 34.234,47.85C34.439,48.433 34.652,48.599 32.787,48.343C32.191,48.262 31.116,47.889 30.608,47.551C30.115,47.218 29.129,47.487 29.218,48.211C29.677,49.316 30.859,50.008 31.989,50.147C32.975,50.269 33.423,50.481 33.602,50.698C34.145,51.304 33.143,52.188 33.143,52.188C32.642,52.756 33.183,53.427 33.553,53.625C34.154,53.924 35.318,54.609 35.709,55.596C37.73,60.708 35.774,59.245 34.814,58.658C33.853,58.069 32.023,56.567 30.353,56.699C28.684,56.829 28.128,56.915 27.139,56.145C26.149,55.373 26.248,56.622 26.248,56.622C26.248,56.622 26.248,58.139 26.248,62.789C26.308,64.172 26.566,65.488 27.684,66.606C28.601,67.523 29.297,67.35 30.592,68.898C31.188,69.612 33.132,70.381 34.432,70.396L36.919,70.397L45.773,61.877L45.773,38.423L38.239,30.892L33.335,30.891C33.75,31.562 33.989,32.44 34.163,33.722C34.169,34.493 33.129,34.118 32.794,33.918C32.557,33.759 32.251,33.61 31.846,33.519C31.093,33.34 29.288,32.565 28.797,32.39C28.295,32.212 27.929,32.576 27.871,32.712L27.872,32.714C27.747,32.947 28.009,33.42 28.009,33.42C28.719,34.994 30.019,34.911 31.454,35.915C33.421,37.296 32.367,37.585 31.963,37.377C31.561,37.169 30.902,37.298 30.902,37.298C29.312,37.726 28.835,37.08 27.905,36.836C26.976,36.591 27.738,37.724 28.072,38.102Z" style="fill:rgb(169,4,50);fill-rule:nonzero;"/>
        <path d="M19.088,66.966C19.701,66.016 20.783,65.21 21.471,64.522C22.197,63.798 22.327,62.149 22.349,60.357C22.349,57.594 22.349,56.622 22.349,56.622L22.355,56.661C22.355,56.288 22.355,55.991 22.355,55.768L22.356,55.767L22.356,55.172C22.357,55.149 22.357,55.095 22.356,55.032L22.356,53.422C22.356,53.05 21.916,53.02 20.953,54.039C19.989,55.057 18.367,54.976 17.429,55.057C16.495,55.14 13.798,56.517 13.027,57.506C12.549,58.122 11.872,57.616 12.148,56.407L12.141,56.407C12.271,55.858 12.511,55.127 12.895,54.157C13.43,52.806 15.422,52.018 15.422,52.018C15.422,52.018 15.627,51.928 15.808,51.753L14.119,51.753C14.119,51.754 14.117,51.754 14.117,51.754L2.906,51.754L2.902,61.86L11.754,70.383L14.601,70.384C17.277,70.254 18.277,68.222 19.088,66.966Z" style="fill:rgb(169,4,50);fill-rule:nonzero;"/>
        <path d="M11.754,3.213L2.902,11.72L2.902,36.297L10.434,43.839L17.509,43.839C18.722,43.319 18.977,43.362 19.311,42.697C19.362,42.596 19.411,42.292 19.414,41.991C19.43,41.906 19.583,41.009 19.138,41.229C18.382,41.603 16.857,40.621 15.712,41.201C14.569,41.781 15.405,40.438 15.566,40.205C15.566,40.205 16.179,39.413 17.101,38.891C17.135,38.872 17.164,38.852 17.191,38.834C17.281,38.786 17.374,38.741 17.469,38.698C18.168,38.377 20.17,37.07 20.529,36.663C20.742,36.425 21.122,35.884 21.141,35.582C21.203,35.322 21.252,34.909 20.998,34.746C20.616,34.501 20.312,34.985 19.715,35.245C19.117,35.505 18.669,35.612 18.137,35.63C17.627,35.647 17.138,35.456 16.832,35.502C16.523,35.55 16.344,35.322 16.907,34.768C17.162,34.517 17.27,34.405 17.39,34.319C18.726,33.479 19.924,33.467 20.593,31.982C20.593,31.982 21.116,30.643 20.11,31.213C19.557,31.528 19.257,31.982 17.678,31.982C16.102,31.982 15.487,32.71 15.22,33.03C15.22,33.03 14.15,34.501 14.417,32.442C14.686,30.384 15.09,29.338 16.078,28.539C16.928,27.851 19.044,26.926 19.806,25.91C20.199,25.527 21.181,24.428 20.608,23.491C20.37,23.1 19.782,24.117 19.175,24.247L19.174,24.247C18.486,24.429 17.605,24.65 16.934,24.517C16.102,24.352 15.57,24.663 15.261,24.804C14.952,24.941 14.362,24.503 15.08,23.699C16.042,22.622 18.367,21.215 19.933,20.375C20.148,20.289 20.672,20.062 21.153,19.763C21.162,19.758 21.173,19.754 21.181,19.75C21.3,19.698 21.475,19.592 21.576,19.464C21.919,19.184 22.151,18.868 22.071,18.55C21.998,18.255 21.856,18.16 21.396,18.112C21.027,18.075 20.424,18.494 19.913,18.454C19.129,18.392 17.983,18.568 18.363,18.024C18.717,17.515 19.297,17.19 19.46,17.103C19.783,16.957 20.211,16.773 20.848,16.491C21.844,16.053 21.705,14.938 21.319,14.898C20.716,14.836 19.096,15.345 20.236,14.066C20.236,14.066 20.781,13.531 21.323,13.184C21.755,12.939 22.11,12.844 22.535,12.693C22.805,12.599 23.497,11.992 21.847,11.929C21.847,11.929 20.921,11.952 21.101,11.537C21.245,11.26 22.054,10.76 22.054,10.76C22.054,10.76 22.708,10.322 22.972,10.059C23.228,9.821 23.406,9.627 23.395,9.412C23.383,9.164 22.735,8.861 22.459,8.518C22.262,8.27 22.429,8.184 22.54,8.153C22.598,8.142 22.667,8.134 22.755,8.135C23.422,8.136 23.616,7.481 24.004,5.77C24.122,5.255 24.13,5.146 24.301,5.145L24.302,5.145C24.315,5.145 24.326,5.148 24.336,5.148C24.336,5.148 24.503,6.017 24.744,6.983C24.946,7.516 25.175,7.743 25.567,7.742C25.652,7.742 25.721,7.749 25.781,7.762C25.889,7.791 26.06,7.878 25.861,8.126C25.71,8.314 25.258,8.623 25.227,8.812C25.093,9.345 25.608,9.535 26.135,9.572C26.881,9.623 26.57,10.077 25.767,10.664C24.988,11.232 26.976,12.441 26.976,12.441C28.11,13.301 27.301,13.525 27.071,13.645C26.84,13.764 26.204,14.147 26.844,14.392C27.484,14.633 28.366,15.504 28.366,15.504C29.506,16.781 27.886,16.274 27.284,16.336C26.897,16.376 26.758,17.49 27.754,17.93C29.272,18.601 29.608,18.715 30.146,19.107C31.147,19.837 30.616,20.455 29.365,20.237C29.365,20.237 28.562,20.04 28,20.147C27.651,20.215 27.407,20.293 27.243,20.375C27.157,20.503 26.957,21.011 28.7,21.538C29.535,21.79 30.565,22.407 31.482,23.112L45.773,23.096L45.773,11.735L36.919,3.213L11.754,3.213Z" style="fill:rgb(169,4,50);fill-rule:nonzero;"/>
        <path d="M47.005,24.329L32.856,24.328C33.153,24.636 33.4,24.931 33.568,25.193C34.203,25.956 33.652,26.37 33.349,26.243C33.349,26.243 33.115,26.131 32.963,26.073C32.822,26.027 32.215,25.96 32.128,25.961C31.378,25.938 29.351,25.807 28.12,25.108C27.635,24.834 27.586,25.495 27.799,26.017C27.914,26.298 28.345,26.917 28.924,27.505C29.07,27.666 29.247,27.828 29.446,27.984C29.677,28.182 29.924,28.361 30.175,28.504C30.177,28.505 30.178,28.505 30.18,28.508C30.833,28.928 31.55,29.317 32.081,29.663L38.75,29.662L47.005,37.912L47.005,62.401L37.414,71.629L11.259,71.629L1.67,62.385L1.675,50.522L14.514,50.522C14.514,50.524 14.515,50.524 14.516,50.525L15.777,50.525C15.631,50.355 15.426,50.174 15.14,49.979C15.14,49.979 14.021,49.031 16.613,48.71C17.743,48.571 18.924,47.878 19.384,46.773C19.472,46.05 18.486,45.779 17.994,46.114C17.488,46.452 16.411,46.825 15.816,46.906C13.951,47.162 14.162,46.996 14.369,46.413C14.464,46.144 14.649,45.597 15.246,45.071L9.923,45.069L1.67,36.806L1.67,11.196L11.26,1.982L37.414,1.982L47.005,11.211L47.005,24.329ZM48.236,10.687L37.912,0.751L10.763,0.751L0.438,10.671L0.438,37.316L9.413,46.3L13.529,46.3C13.428,46.571 13.297,46.989 13.582,47.398C13.894,47.849 14.431,47.849 14.633,47.849C14.878,47.849 15.213,47.82 15.731,47.753L15.732,47.754C15.732,47.754 15.948,47.937 15.291,48.148L15.291,48.15C14.752,48.338 14.281,48.647 14.123,49.179C14.112,49.216 14.108,49.253 14.1,49.291L0.443,49.291L0.438,62.91L10.76,72.862L37.912,72.862L48.236,62.925L48.236,37.402L39.259,28.429L31.647,28.429C31.643,28.428 31.64,28.425 31.636,28.424C31.301,28.226 30.955,28.023 30.64,27.816L30.526,27.745L30.503,27.737C30.336,27.633 30.156,27.502 29.958,27.338C29.789,27.203 29.648,27.073 29.542,26.954L29.514,26.925C29.312,26.718 29.14,26.521 29.002,26.347C30.192,26.686 31.482,26.768 32.102,26.79L32.18,26.79C32.221,26.79 32.261,26.791 32.297,26.791L32.353,26.796C32.501,26.808 32.616,26.833 32.691,26.854C32.77,26.887 32.842,26.921 32.905,26.95L33.228,27.069C33.305,27.085 33.385,27.093 33.465,27.093C33.934,27.093 34.367,26.815 34.567,26.385C34.637,26.237 34.734,25.94 34.657,25.555L48.236,25.561L48.236,10.687Z" style="fill:rgb(169,4,50);fill-rule:nonzero;"/>
        <path d="M36.919,70.75L34.435,70.748C33.187,70.734 31.254,69.891 30.672,69.194C29.898,68.27 29.322,67.943 28.813,67.654C28.459,67.454 28.125,67.264 27.758,66.896C26.615,65.751 26.406,64.419 26.351,63.152L26.351,56.625C26.342,56.514 26.347,56.197 26.471,56.063C26.507,56.024 26.551,56.006 26.607,56.006C26.688,56.006 26.835,56.045 27.079,56.236C27.713,56.73 28.185,56.897 28.948,56.897C29.278,56.897 29.656,56.868 30.134,56.829L30.364,56.812C31.698,56.702 33.139,57.673 34.173,58.369C34.393,58.517 34.591,58.65 34.763,58.756L34.938,58.865C35.334,59.113 35.827,59.422 36.19,59.422C36.357,59.422 36.489,59.355 36.576,59.23C36.759,58.96 36.879,58.287 35.806,55.57C35.408,54.566 34.254,53.869 33.602,53.547C33.379,53.426 33.112,53.132 33.055,52.822C33.018,52.619 33.075,52.432 33.213,52.275C33.238,52.253 33.834,51.719 33.865,51.168C33.877,50.97 33.814,50.791 33.683,50.644C33.448,50.361 32.899,50.169 32.004,50.057C31.006,49.934 29.791,49.311 29.32,48.196C29.303,48.036 29.347,47.897 29.448,47.783C29.59,47.622 29.841,47.521 30.102,47.521C30.274,47.521 30.435,47.565 30.553,47.646C31.094,48.005 32.191,48.376 32.775,48.454C33.376,48.536 33.733,48.572 33.972,48.572C34.224,48.572 34.359,48.531 34.427,48.433C34.512,48.311 34.453,48.154 34.379,47.955C34.363,47.915 34.348,47.873 34.324,47.806C34.191,47.434 33.881,46.561 32.649,45.916C31.606,45.37 30.927,45.101 30.477,44.924C29.809,44.659 29.629,44.589 29.382,44.1C29.301,43.937 29.226,43.144 29.381,42.89C29.415,42.836 29.443,42.836 29.456,42.836C29.477,42.836 29.522,42.845 29.604,42.906L29.616,42.914C29.73,43.036 29.871,43.185 30.039,43.316C30.724,43.844 31.268,43.895 32.152,43.876L32.215,43.875C32.775,43.875 32.981,44.035 33.181,44.188C33.268,44.256 33.357,44.325 33.471,44.377L33.533,44.406C33.668,44.469 33.808,44.535 33.93,44.535C34.039,44.535 34.101,44.482 34.134,44.438C34.213,44.329 34.26,44.117 34.012,43.366C33.479,41.747 32.578,40.694 31.177,40.054C30.491,39.739 28.505,38.444 28.15,38.044C27.83,37.682 27.501,37.114 27.573,36.954C27.578,36.945 27.591,36.915 27.685,36.915C27.737,36.915 27.803,36.924 27.882,36.945C28.132,37.011 28.355,37.109 28.57,37.205C28.957,37.377 29.359,37.554 29.937,37.554C30.239,37.554 30.564,37.507 30.924,37.41C30.926,37.408 31.121,37.372 31.358,37.372C31.59,37.372 31.784,37.407 31.918,37.477C32.008,37.524 32.122,37.549 32.238,37.549C32.469,37.549 32.644,37.447 32.697,37.284C32.802,36.951 32.404,36.467 31.515,35.843C31.008,35.488 30.509,35.264 30.069,35.065C29.22,34.682 28.551,34.38 28.099,33.382C28.009,33.217 27.891,32.907 27.964,32.772L27.985,32.732C28.047,32.642 28.244,32.455 28.528,32.455C28.606,32.455 28.686,32.468 28.765,32.498C28.911,32.549 29.176,32.655 29.494,32.783C30.251,33.086 31.29,33.502 31.826,33.629C32.168,33.707 32.476,33.836 32.743,34.016C32.935,34.13 33.343,34.299 33.687,34.299C33.875,34.299 34.022,34.248 34.123,34.147C34.22,34.049 34.268,33.91 34.266,33.719C34.091,32.433 33.75,31.276 33.419,30.84C33.21,30.566 32.667,29.895 32.133,29.585C31.877,29.436 30.983,28.913 30.254,28.445L30.227,28.427C29.992,28.292 29.751,28.121 29.511,27.917C29.308,27.755 29.136,27.598 28.998,27.444C28.431,26.866 28.007,26.264 27.895,25.989C27.771,25.684 27.745,25.339 27.836,25.204C27.884,25.135 27.96,25.144 28.072,25.208C29.314,25.914 31.322,26.049 32.133,26.075C32.217,26.075 32.805,26.14 32.929,26.179C33.077,26.237 33.306,26.346 33.311,26.348C33.524,26.436 33.807,26.316 33.913,26.089C33.984,25.938 34.044,25.613 33.656,25.149C33.489,24.891 33.246,24.594 32.93,24.267C32.923,24.26 32.226,23.553 31.545,23.04C30.971,22.61 29.556,21.7 28.731,21.451C27.623,21.116 27.363,20.803 27.308,20.648C27.28,20.568 27.295,20.506 27.316,20.464C27.481,20.386 27.717,20.317 28.021,20.257C28.125,20.237 28.247,20.227 28.385,20.227C28.853,20.227 29.338,20.344 29.35,20.347C30.084,20.476 30.636,20.322 30.752,19.968C30.805,19.807 30.804,19.47 30.209,19.036C29.754,18.704 29.436,18.565 28.489,18.151C28.289,18.063 28.061,17.964 27.797,17.846C27.159,17.565 27.063,17.019 27.107,16.741C27.132,16.577 27.21,16.456 27.297,16.447C27.432,16.431 27.623,16.45 27.828,16.468C27.989,16.482 28.157,16.496 28.306,16.496C28.513,16.496 28.761,16.474 28.842,16.291C28.924,16.107 28.801,15.847 28.44,15.442C28.403,15.406 27.534,14.554 26.883,14.307C26.752,14.257 26.674,14.197 26.671,14.144C26.666,14.05 26.85,13.886 27.12,13.746C27.14,13.735 27.166,13.723 27.195,13.711C27.36,13.634 27.639,13.508 27.667,13.244C27.694,12.997 27.49,12.711 27.032,12.365C26.665,12.141 25.709,11.464 25.69,11.01C25.686,10.91 25.729,10.829 25.829,10.757C26.656,10.153 26.695,9.887 26.653,9.739C26.587,9.511 26.254,9.489 26.145,9.481C25.763,9.454 25.489,9.353 25.374,9.195C25.307,9.103 25.292,8.989 25.328,8.839C25.343,8.755 25.544,8.576 25.678,8.457C25.783,8.364 25.882,8.276 25.943,8.2C26.043,8.075 26.078,7.961 26.045,7.862C26.015,7.772 25.933,7.707 25.805,7.674C25.739,7.658 25.662,7.65 25.567,7.65C25.229,7.65 25.033,7.463 24.846,6.97C24.607,6.017 24.439,5.148 24.438,5.139L24.419,5.056L24.303,5.053C24.066,5.055 24.03,5.212 23.936,5.631L23.907,5.758C23.523,7.451 23.337,8.043 22.746,8.043C22.669,8.043 22.598,8.05 22.514,8.065C22.356,8.11 22.299,8.195 22.279,8.257C22.248,8.354 22.282,8.468 22.382,8.592C22.509,8.751 22.7,8.894 22.886,9.032C23.066,9.167 23.291,9.335 23.296,9.428C23.305,9.59 23.165,9.752 22.901,9.998C22.649,10.251 22.006,10.681 22.003,10.683C21.917,10.736 21.164,11.208 21.011,11.507C20.952,11.643 20.985,11.74 21.024,11.799C21.168,12.018 21.631,12.042 21.824,12.042L21.846,12.041C22.732,12.075 22.805,12.261 22.81,12.298C22.826,12.4 22.63,12.563 22.504,12.607C22.418,12.638 22.336,12.666 22.255,12.693C21.933,12.803 21.629,12.906 21.27,13.109C20.724,13.458 20.19,13.982 20.163,14.009C19.805,14.41 19.682,14.67 19.765,14.854C19.846,15.036 20.093,15.06 20.299,15.06C20.449,15.06 20.616,15.046 20.778,15.031C20.983,15.013 21.174,14.995 21.309,15.01C21.396,15.019 21.474,15.141 21.5,15.306C21.544,15.583 21.447,16.128 20.809,16.409C20.507,16.543 20.251,16.654 20.032,16.75C19.789,16.856 19.591,16.944 19.414,17.023C19.135,17.173 18.615,17.498 18.281,17.976C18.186,18.112 18.164,18.23 18.214,18.328C18.327,18.545 18.754,18.547 19.293,18.55C19.502,18.55 19.717,18.551 19.908,18.565C20.198,18.587 20.521,18.473 20.8,18.371C21.027,18.287 21.243,18.208 21.386,18.224C21.828,18.27 21.917,18.349 21.975,18.584C22.035,18.824 21.88,19.097 21.498,19.41C21.415,19.518 21.26,19.616 21.143,19.666L21.102,19.688C20.595,20.003 20.052,20.229 19.887,20.295C18.131,21.237 15.927,22.611 15.006,23.643C14.562,24.14 14.615,24.482 14.687,24.641C14.792,24.875 15.088,25.002 15.305,24.907L15.406,24.859C15.654,24.743 15.993,24.584 16.469,24.584C16.614,24.584 16.764,24.598 16.915,24.629C17.057,24.657 17.215,24.671 17.386,24.671C18.008,24.671 18.727,24.482 19.198,24.358C19.498,24.294 19.778,24.046 20.025,23.827C20.19,23.68 20.377,23.515 20.47,23.515C20.48,23.515 20.499,23.515 20.523,23.556C21.051,24.417 20.15,25.445 19.727,25.86C19.255,26.489 18.237,27.09 17.338,27.62C16.821,27.926 16.333,28.215 16.016,28.471C15.042,29.259 14.597,30.297 14.317,32.441C14.238,33.049 14.266,33.405 14.403,33.561C14.455,33.621 14.523,33.652 14.601,33.652C14.889,33.652 15.237,33.193 15.3,33.106C15.552,32.804 16.141,32.095 17.681,32.095C18.99,32.095 19.457,31.779 19.869,31.5C19.965,31.435 20.059,31.372 20.162,31.313C20.523,31.109 20.571,31.184 20.596,31.221C20.68,31.344 20.591,31.724 20.503,31.951C20.056,32.943 19.386,33.245 18.538,33.628C18.154,33.801 17.757,33.98 17.333,34.248C17.214,34.332 17.111,34.436 16.885,34.661L16.839,34.706C16.516,35.024 16.389,35.276 16.462,35.455C16.514,35.582 16.663,35.642 16.85,35.614C16.989,35.592 17.175,35.628 17.381,35.664C17.59,35.701 17.827,35.743 18.072,35.743L18.141,35.742C18.694,35.725 19.147,35.614 19.757,35.35C19.977,35.253 20.155,35.131 20.313,35.023C20.576,34.843 20.754,34.721 20.945,34.843C21.151,34.974 21.096,35.354 21.041,35.587C21.027,35.838 20.686,36.349 20.456,36.606C20.1,37.007 18.113,38.303 17.428,38.615C17.331,38.66 17.238,38.707 17.127,38.766C17.105,38.781 17.082,38.797 17.053,38.813C16.124,39.338 15.514,40.121 15.486,40.157C15.461,40.193 14.888,41.018 15.052,41.334C15.076,41.38 15.139,41.458 15.282,41.458C15.398,41.458 15.555,41.407 15.761,41.302C15.996,41.183 16.265,41.126 16.585,41.126C16.972,41.126 17.367,41.208 17.75,41.289C18.326,41.409 18.857,41.491 19.185,41.331C19.268,41.289 19.279,41.299 19.298,41.323C19.378,41.42 19.357,41.767 19.314,42.001C19.311,42.311 19.259,42.59 19.224,42.662C18.977,43.152 18.798,43.221 18.129,43.487C17.946,43.559 17.73,43.644 17.47,43.757C17.398,43.789 15.708,44.552 15.182,45.005C14.661,45.454 14.39,46.066 14.274,46.39L14.228,46.516C14.153,46.715 14.094,46.873 14.179,46.996C14.247,47.094 14.382,47.135 14.635,47.135C14.874,47.135 15.231,47.099 15.832,47.017C16.419,46.937 17.517,46.566 18.053,46.207C18.171,46.128 18.331,46.084 18.504,46.084C18.765,46.084 19.016,46.184 19.157,46.344C19.259,46.459 19.303,46.598 19.286,46.759C18.815,47.874 17.601,48.497 16.603,48.62C15.52,48.754 14.937,49.008 14.82,49.397C14.713,49.755 15.06,50.055 15.084,50.074C15.374,50.27 15.568,50.461 15.706,50.606C15.858,50.766 16.012,51.027 15.99,51.28C15.977,51.436 15.893,51.697 15.387,51.935C14.881,52.17 15.387,51.935 15.388,51.935C15.304,51.968 13.346,52.754 12.801,54.131C12.436,55.055 12.181,55.817 12.044,56.394L12.019,56.519L12.024,56.519C11.935,57.011 11.994,57.428 12.193,57.676C12.428,57.97 12.834,57.934 13.108,57.579C13.871,56.601 16.569,55.248 17.44,55.169C17.58,55.157 17.733,55.149 17.898,55.14C18.861,55.087 20.181,55.015 21.029,54.12C21.751,53.357 22.073,53.298 22.155,53.298C22.191,53.298 22.257,53.298 22.257,53.433L22.257,55.045C22.258,55.104 22.259,55.155 22.257,55.182L22.25,60.719C22.229,62.426 22.111,64.105 21.401,64.812C21.201,65.014 20.966,65.224 20.718,65.448C20.121,65.984 19.445,66.592 19.005,67.274C18.928,67.393 18.85,67.517 18.769,67.648C18.009,68.865 16.968,70.621 14.599,70.737L11.754,70.735L36.919,70.75Z" style="fill:rgb(0,118,98);fill-rule:nonzero;"/>
        <path d="M16.562,70.466L32.199,70.475C31.455,70.165 30.79,69.759 30.464,69.369C29.722,68.483 29.168,68.168 28.68,67.891C28.325,67.69 27.959,67.481 27.566,67.088C26.356,65.877 26.137,64.487 26.081,63.164L26.079,56.625C26.076,56.594 26.047,56.124 26.271,55.879C26.477,55.656 26.818,55.687 27.246,56.021C28.099,56.688 28.604,56.678 30.113,56.559L30.342,56.542C31.74,56.422 33.255,57.424 34.323,58.142C34.561,58.303 34.743,58.426 34.904,58.523L35.081,58.633C35.43,58.852 35.905,59.15 36.19,59.15C36.288,59.15 36.328,59.11 36.351,59.077C36.48,58.887 36.549,58.189 35.554,55.669C35.188,54.747 34.099,54.095 33.482,53.789C33.187,53.632 32.861,53.269 32.788,52.871C32.737,52.586 32.813,52.319 33.009,52.096C33.218,51.907 33.575,51.5 33.594,51.153C33.602,51.027 33.564,50.919 33.48,50.825C33.345,50.663 32.981,50.452 31.971,50.327C30.897,50.194 29.583,49.517 29.07,48.302L29.05,48.224C29.025,47.989 29.092,47.775 29.244,47.603C29.569,47.237 30.298,47.145 30.705,47.421C31.207,47.755 32.268,48.112 32.811,48.186C33.903,48.336 34.207,48.274 34.211,48.271C34.202,48.257 34.157,48.138 34.125,48.052L34.068,47.895C33.946,47.553 33.66,46.752 32.523,46.156C31.493,45.618 30.821,45.352 30.378,45.176C29.69,44.904 29.434,44.802 29.14,44.222C29.027,43.995 28.934,43.098 29.151,42.748C29.282,42.537 29.513,42.501 29.765,42.688C29.928,42.85 30.055,42.985 30.205,43.101C30.76,43.529 31.204,43.608 31.879,43.608L32.215,43.603C32.866,43.603 33.132,43.808 33.347,43.974C33.427,44.036 33.5,44.092 33.583,44.13L33.649,44.163C33.74,44.205 33.866,44.263 33.928,44.264C33.926,44.252 33.968,44.098 33.754,43.451C33.247,41.908 32.393,40.907 31.064,40.302C30.406,39.998 28.352,38.681 27.947,38.225C27.939,38.215 27.126,37.287 27.327,36.843C27.373,36.741 27.559,36.575 27.952,36.684C28.221,36.754 28.454,36.856 28.678,36.957C29.059,37.125 29.417,37.283 29.937,37.283C30.216,37.283 30.516,37.239 30.853,37.148C30.885,37.137 31.118,37.1 31.358,37.1C31.638,37.1 31.868,37.146 32.044,37.238C32.173,37.304 32.418,37.264 32.439,37.201C32.442,37.19 32.523,36.881 31.359,36.065C30.877,35.728 30.394,35.51 29.968,35.317C29.092,34.922 28.345,34.584 27.852,33.494C27.81,33.42 27.563,32.943 27.724,32.644L27.762,32.579C27.863,32.432 28.138,32.184 28.528,32.184C28.639,32.184 28.748,32.204 28.856,32.242C28.998,32.292 29.252,32.393 29.559,32.517C30.347,32.831 31.373,33.242 31.889,33.364C32.262,33.45 32.601,33.593 32.894,33.791C33.101,33.913 33.767,34.125 33.93,33.955C33.947,33.939 33.996,33.889 33.994,33.722C33.831,32.531 33.503,31.4 33.202,31.005C33.003,30.744 32.488,30.104 31.997,29.819C31.664,29.626 30.812,29.125 30.108,28.675C29.841,28.518 29.586,28.337 29.335,28.123C29.128,27.959 28.944,27.79 28.797,27.625C28.207,27.025 27.768,26.397 27.643,26.091C27.506,25.755 27.443,25.302 27.611,25.051C27.737,24.87 27.951,24.828 28.206,24.971C29.396,25.647 31.355,25.779 32.141,25.804C32.237,25.804 32.854,25.871 33.009,25.92C33.184,25.988 33.427,26.102 33.432,26.106L33.433,26.106C33.533,26.106 33.628,26.059 33.667,25.975C33.703,25.899 33.751,25.686 33.448,25.324C33.271,25.051 33.037,24.769 32.735,24.455C32.665,24.384 32.016,23.734 31.382,23.258C30.839,22.85 29.436,21.947 28.653,21.71C27.707,21.426 27.184,21.108 27.052,20.739C27.004,20.602 27.013,20.461 27.075,20.339L27.117,20.258L27.2,20.219C27.385,20.131 27.643,20.054 27.969,19.991C28.436,19.902 29.238,20.042 29.409,20.082C29.552,20.107 29.7,20.121 29.834,20.121C30.237,20.121 30.456,20.001 30.494,19.885C30.532,19.766 30.436,19.538 30.049,19.254C29.618,18.942 29.306,18.804 28.38,18.398L27.687,18.094C26.899,17.747 26.782,17.054 26.838,16.699C26.885,16.403 27.054,16.199 27.269,16.177C27.394,16.164 27.593,16.176 27.803,16.194C28.009,16.211 28.167,16.225 28.306,16.225C28.546,16.225 28.591,16.184 28.595,16.18C28.595,16.178 28.624,16.055 28.237,15.623C28.031,15.416 27.297,14.754 26.787,14.561C26.539,14.466 26.409,14.331 26.401,14.158C26.385,13.882 26.715,13.65 26.995,13.505L27.084,13.462C27.196,13.411 27.385,13.324 27.398,13.214C27.403,13.164 27.381,12.969 26.868,12.581C26.743,12.506 25.447,11.699 25.419,11.021C25.413,10.887 25.452,10.695 25.669,10.538C26.406,10 26.393,9.815 26.392,9.814C26.39,9.812 26.347,9.767 26.127,9.752C25.655,9.718 25.319,9.58 25.154,9.353C25.04,9.195 25.009,9 25.064,8.775C25.087,8.639 25.212,8.508 25.498,8.254C25.599,8.164 25.681,8.094 25.731,8.031C25.774,7.978 25.785,7.945 25.786,7.936C25.696,7.927 25.639,7.922 25.567,7.922C24.994,7.922 24.753,7.489 24.592,7.066C24.438,6.459 24.312,5.878 24.239,5.525C24.226,5.578 24.213,5.636 24.201,5.69L24.172,5.818C23.818,7.375 23.605,8.315 22.746,8.315C22.685,8.315 22.629,8.32 22.561,8.332C22.54,8.336 22.551,8.369 22.594,8.421C22.7,8.555 22.876,8.687 23.048,8.815C23.362,9.049 23.555,9.203 23.567,9.412C23.583,9.709 23.358,9.942 23.086,10.197C22.814,10.47 22.148,10.913 22.142,10.916C21.705,11.187 21.321,11.495 21.252,11.631C21.276,11.688 21.455,11.77 21.824,11.77C22.354,11.789 23.022,11.861 23.079,12.259C23.124,12.549 22.785,12.796 22.594,12.864L22.341,12.95C22.033,13.055 21.741,13.153 21.404,13.345C20.883,13.678 20.36,14.196 20.355,14.201C19.983,14.619 20.012,14.742 20.013,14.743C20.013,14.744 20.056,14.788 20.299,14.788C20.442,14.788 20.6,14.774 20.754,14.76C21.011,14.739 21.193,14.723 21.34,14.74C21.552,14.762 21.722,14.967 21.768,15.264C21.824,15.618 21.707,16.309 20.918,16.656L20.023,17.05C19.834,17.133 19.673,17.205 19.527,17.271C19.284,17.401 18.806,17.698 18.504,18.131C18.461,18.192 18.459,18.22 18.459,18.22C18.531,18.275 18.989,18.277 19.293,18.278C19.51,18.278 19.732,18.279 19.93,18.295C19.932,18.295 19.934,18.295 19.936,18.295C20.215,18.295 20.499,18.192 20.707,18.115C20.937,18.03 21.154,17.951 21.347,17.951L21.416,17.955C21.88,18.003 22.135,18.103 22.239,18.519C22.369,19.044 21.843,19.478 21.671,19.62C21.591,19.733 21.395,19.853 21.25,19.915C20.762,20.219 20.251,20.441 19.989,20.547C18.28,21.465 16.106,22.819 15.207,23.823C14.854,24.221 14.899,24.45 14.935,24.531C14.973,24.616 15.073,24.667 15.147,24.667L15.292,24.613C15.547,24.494 15.933,24.312 16.469,24.312C16.633,24.312 16.801,24.329 16.969,24.363C17.56,24.48 18.548,24.247 19.129,24.096C19.371,24.043 19.62,23.822 19.842,23.627C20.11,23.389 20.283,23.243 20.47,23.243L20.623,23.243L20.755,23.415C21.197,24.136 20.892,25.098 19.917,26.053C19.44,26.695 18.397,27.31 17.477,27.853C16.966,28.155 16.487,28.439 16.187,28.681C15.274,29.419 14.856,30.413 14.586,32.475C14.491,33.209 14.586,33.359 14.606,33.382C14.67,33.38 14.886,33.216 15.08,32.947C15.368,32.601 16.014,31.823 17.681,31.823C18.906,31.823 19.318,31.545 19.717,31.275C19.818,31.206 19.919,31.139 20.029,31.076C20.238,30.958 20.387,30.905 20.511,30.905C20.603,30.905 20.732,30.935 20.823,31.071C21.008,31.341 20.818,31.888 20.756,32.048C20.261,33.147 19.516,33.483 18.652,33.874C18.275,34.044 17.887,34.219 17.477,34.477C17.389,34.542 17.291,34.638 17.076,34.853L17.027,34.901C16.704,35.22 16.713,35.351 16.713,35.353L16.808,35.346C16.968,35.319 17.169,35.351 17.401,35.392C17.626,35.432 17.849,35.472 18.072,35.472L18.139,35.47C18.647,35.455 19.072,35.351 19.65,35.101C19.848,35.013 20.014,34.899 20.16,34.8C20.481,34.579 20.799,34.428 21.092,34.615C21.354,34.78 21.427,35.129 21.305,35.648C21.291,35.969 20.862,36.558 20.658,36.787C20.252,37.245 18.198,38.562 17.541,38.863C17.45,38.904 17.361,38.948 17.257,39.005C17.244,39.014 17.214,39.034 17.179,39.053C16.299,39.552 15.707,40.315 15.701,40.323C15.437,40.701 15.267,41.109 15.296,41.215C15.314,41.187 15.414,41.175 15.637,41.061C16.227,40.761 17.101,40.874 17.806,41.023C18.298,41.127 18.839,41.198 19.065,41.088C19.121,41.058 19.187,41.03 19.264,41.03L19.392,41.03L19.507,41.15C19.677,41.355 19.626,41.802 19.581,42.049C19.583,42.314 19.532,42.648 19.467,42.78C19.173,43.365 18.917,43.466 18.23,43.739C18.049,43.811 17.835,43.894 17.576,44.006C16.936,44.296 15.746,44.878 15.359,45.21C14.885,45.618 14.636,46.181 14.53,46.48L14.482,46.611C14.451,46.695 14.409,46.805 14.408,46.85C14.421,46.843 14.477,46.864 14.635,46.864C14.86,46.864 15.207,46.829 15.796,46.748C16.342,46.674 17.403,46.317 17.902,45.982C18.311,45.707 19.037,45.799 19.361,46.165C19.513,46.338 19.581,46.552 19.556,46.786L19.536,46.864C19.023,48.079 17.71,48.756 16.636,48.89C15.343,49.049 15.117,49.352 15.08,49.476C15.025,49.66 15.254,49.863 15.256,49.864C15.545,50.059 15.755,50.264 15.902,50.419C15.996,50.517 16.298,50.872 16.261,51.303C16.23,51.664 15.975,51.958 15.502,52.179L15.47,52.114L15.499,52.181L15.231,52.3C14.69,52.557 13.447,53.237 13.053,54.232C12.7,55.126 12.452,55.864 12.316,56.423L12.291,56.568C12.217,56.975 12.259,57.326 12.404,57.506C12.531,57.665 12.739,57.615 12.894,57.414C13.707,56.369 16.482,54.983 17.416,54.899C17.559,54.887 17.716,54.878 17.884,54.869C18.804,54.819 20.059,54.749 20.832,53.934C21.394,53.34 21.851,53.026 22.155,53.026C22.382,53.026 22.528,53.186 22.528,53.433L22.528,55.045C22.53,55.11 22.53,55.168 22.528,55.201L22.521,60.719C22.496,62.762 22.328,64.27 21.593,65.004C21.391,65.209 21.152,65.423 20.9,65.65C20.315,66.174 19.654,66.77 19.233,67.421C19.157,67.539 19.079,67.663 18.999,67.792L18.945,67.878C18.432,68.7 17.739,69.812 16.562,70.466ZM36.919,71.021L14.612,71.008L14.599,71.008L11.754,71.007L11.755,70.463L14.599,70.465C16.762,70.353 17.757,68.757 18.484,67.591L18.539,67.504C18.621,67.373 18.7,67.246 18.777,67.127C19.237,66.415 19.927,65.794 20.536,65.245C20.781,65.025 21.013,64.819 21.209,64.622C21.853,63.979 21.959,62.286 21.978,60.715L21.985,55.182C21.988,55.14 21.986,55.1 21.986,55.05L21.985,53.647C21.838,53.734 21.592,53.919 21.226,54.307C20.305,55.28 18.924,55.355 17.917,55.411C17.751,55.42 17.6,55.428 17.464,55.44C16.653,55.512 14.036,56.831 13.322,57.746C12.957,58.219 12.313,58.261 11.981,57.845C11.779,57.594 11.689,57.227 11.718,56.791L11.697,56.791L11.777,56.343C11.92,55.743 12.179,54.969 12.549,54.031C13.116,52.599 15.024,51.789 15.275,51.687C15.559,51.552 15.707,51.408 15.72,51.257C15.733,51.104 15.624,50.913 15.51,50.793C15.372,50.65 15.196,50.477 14.932,50.298C14.893,50.268 14.398,49.863 14.56,49.321C14.713,48.808 15.352,48.501 16.57,48.351C17.476,48.239 18.577,47.683 19.019,46.693C19.019,46.628 18.998,46.575 18.954,46.524C18.806,46.357 18.392,46.305 18.205,46.433C17.629,46.818 16.496,47.202 15.869,47.286C15.255,47.371 14.886,47.406 14.635,47.406C14.387,47.406 14.112,47.376 13.956,47.151C13.79,46.911 13.888,46.651 13.973,46.422L14.02,46.296C14.143,45.949 14.437,45.289 15.006,44.799C15.527,44.349 17.054,43.646 17.354,43.51C17.627,43.394 17.845,43.308 18.03,43.235C18.682,42.977 18.782,42.937 18.981,42.541C18.995,42.502 19.041,42.276 19.043,41.999C19.065,41.865 19.076,41.744 19.079,41.652C18.747,41.738 18.189,41.658 17.694,41.555C17.044,41.418 16.335,41.315 15.883,41.545C15.324,41.83 14.972,41.763 14.812,41.46C14.602,41.055 15.004,40.373 15.263,40.002C15.298,39.957 15.937,39.133 16.919,38.577L16.997,38.528C17.114,38.466 17.211,38.417 17.314,38.369C18.021,38.046 19.944,36.775 20.252,36.426C20.518,36.13 20.763,35.701 20.77,35.571C20.848,35.22 20.814,35.09 20.796,35.069C20.72,35.062 20.584,35.166 20.467,35.247C20.309,35.355 20.113,35.49 19.866,35.598C19.219,35.879 18.738,35.995 18.15,36.014L18.074,36.015C17.801,36.015 17.542,35.969 17.334,35.931C17.171,35.902 17.047,35.879 16.943,35.879C16.846,35.889 16.803,35.892 16.761,35.892C16.501,35.892 16.296,35.767 16.21,35.555C16.032,35.121 16.495,34.662 16.647,34.513C16.922,34.241 17.036,34.126 17.174,34.028C17.63,33.74 18.035,33.558 18.426,33.38C19.255,33.007 19.851,32.736 20.255,31.839C20.297,31.732 20.326,31.617 20.343,31.523C20.328,31.531 20.313,31.54 20.296,31.549C20.198,31.603 20.111,31.663 20.022,31.724C19.598,32.01 19.073,32.367 17.681,32.367C16.269,32.367 15.755,32.983 15.509,33.279C15.376,33.463 15,33.923 14.601,33.923C14.445,33.923 14.303,33.858 14.199,33.74C14.001,33.517 13.956,33.116 14.048,32.405C14.338,30.183 14.809,29.098 15.846,28.26C16.177,27.992 16.672,27.698 17.197,27.388C18.077,26.869 19.071,26.282 19.51,25.696C19.872,25.337 20.582,24.541 20.375,23.879C20.319,23.929 20.251,23.989 20.205,24.03C19.93,24.274 19.623,24.545 19.255,24.623C18.643,24.784 17.572,25.035 16.863,24.895C16.292,24.78 15.832,24.959 15.522,25.106L15.419,25.153C15.054,25.314 14.602,25.112 14.439,24.752C14.341,24.533 14.258,24.074 14.803,23.463C15.748,22.405 17.983,21.01 19.759,20.057C19.983,19.964 20.493,19.746 20.959,19.457L21.022,19.424C21.131,19.376 21.241,19.299 21.284,19.244C21.602,18.973 21.743,18.773 21.712,18.65C21.686,18.548 21.682,18.527 21.358,18.494L21.357,18.494C21.25,18.494 21.052,18.567 20.894,18.625C20.585,18.738 20.282,18.839 19.978,18.839L19.889,18.837C19.702,18.821 19.494,18.821 19.293,18.821C18.66,18.818 18.162,18.816 17.974,18.453C17.904,18.319 17.863,18.102 18.058,17.821C18.426,17.295 18.985,16.945 19.286,16.785C19.449,16.709 19.613,16.638 19.805,16.553L20.699,16.161C21.31,15.891 21.236,15.37 21.232,15.349C21.227,15.317 21.22,15.293 21.214,15.276C21.101,15.271 20.97,15.285 20.829,15.299C20.632,15.316 20.456,15.332 20.299,15.332C20.13,15.332 19.681,15.332 19.517,14.964C19.349,14.589 19.647,14.18 19.96,13.829C19.977,13.812 20.542,13.252 21.124,12.881C21.519,12.656 21.849,12.544 22.169,12.436L22.371,12.367C22.257,12.343 22.086,12.322 21.835,12.312C21.833,12.312 21.831,12.312 21.828,12.312C21.458,12.312 20.994,12.248 20.797,11.948C20.691,11.787 20.679,11.592 20.761,11.4C20.941,11.048 21.589,10.62 21.86,10.453C21.975,10.377 22.506,10.01 22.709,9.806C22.907,9.622 22.983,9.528 23.01,9.479C22.94,9.411 22.798,9.306 22.723,9.25C22.525,9.101 22.319,8.947 22.171,8.761C21.971,8.514 21.979,8.306 22.021,8.175C22.053,8.071 22.151,7.886 22.439,7.804C22.568,7.78 22.653,7.772 22.746,7.772C23.097,7.772 23.255,7.403 23.643,5.698L23.672,5.57C23.766,5.15 23.848,4.786 24.301,4.782L24.638,4.79L24.703,5.079C24.706,5.098 24.87,5.95 25.109,6.903C25.292,7.379 25.438,7.379 25.567,7.379C25.682,7.379 25.781,7.39 25.869,7.411C26.089,7.466 26.241,7.596 26.302,7.776C26.346,7.91 26.356,8.119 26.155,8.37C26.089,8.451 25.986,8.546 25.875,8.645C25.792,8.72 25.614,8.877 25.58,8.935C25.569,9 25.587,9.026 25.594,9.035C25.632,9.088 25.796,9.185 26.164,9.211C26.583,9.239 26.835,9.391 26.914,9.664C27.021,10.038 26.753,10.418 25.989,10.976C25.97,11.212 26.547,11.753 27.173,12.133C27.538,12.408 27.989,12.807 27.937,13.274C27.891,13.69 27.498,13.87 27.309,13.956L27.12,13.746L27.245,13.987C27.174,14.023 27.116,14.058 27.069,14.09C27.777,14.401 28.623,15.242 28.632,15.249C28.957,15.614 29.257,16.026 29.089,16.401C28.926,16.768 28.476,16.768 28.306,16.768C28.152,16.768 27.978,16.753 27.81,16.739C27.618,16.721 27.5,16.714 27.392,16.712C27.386,16.729 27.379,16.753 27.375,16.784C27.371,16.806 27.296,17.329 27.907,17.598L28.539,17.876C29.564,18.326 29.889,18.467 30.368,18.816C31.103,19.352 31.086,19.821 31.009,20.053C30.848,20.545 30.175,20.764 29.303,20.615C29.176,20.584 28.467,20.451 28.071,20.523C27.87,20.563 27.721,20.603 27.612,20.638C27.715,20.734 28.002,20.947 28.81,21.191C29.718,21.465 31.18,22.427 31.708,22.824C32.374,23.324 33.047,23.999 33.122,24.075C33.453,24.417 33.708,24.728 33.884,25.004C34.35,25.556 34.257,25.995 34.158,26.204C33.998,26.549 33.55,26.739 33.208,26.599C33.178,26.584 32.967,26.485 32.83,26.432C32.758,26.412 32.226,26.348 32.131,26.347C31.322,26.32 29.354,26.187 28.054,25.507C28.062,25.608 28.089,25.745 28.146,25.886C28.234,26.102 28.615,26.668 29.192,27.253C29.327,27.404 29.489,27.552 29.679,27.703C29.913,27.902 30.14,28.064 30.362,28.191C31.096,28.663 31.94,29.158 32.27,29.35C32.824,29.672 33.363,30.32 33.634,30.676C33.997,31.152 34.351,32.332 34.535,33.682C34.541,33.977 34.465,34.187 34.316,34.338C34.162,34.493 33.951,34.571 33.687,34.571C33.258,34.571 32.792,34.36 32.605,34.249C32.354,34.081 32.076,33.964 31.766,33.893C31.209,33.762 30.162,33.342 29.397,33.035C29.06,32.9 28.813,32.802 28.675,32.753C28.439,32.669 28.237,32.843 28.208,32.887C28.206,32.922 28.252,33.098 28.337,33.25C28.755,34.175 29.353,34.444 30.18,34.818C30.64,35.025 31.147,35.255 31.671,35.622C32.695,36.34 33.104,36.895 32.956,37.365C32.866,37.647 32.591,37.82 32.238,37.82C32.077,37.82 31.924,37.786 31.795,37.718C31.739,37.69 31.609,37.643 31.358,37.643C31.163,37.643 30.999,37.671 30.978,37.675C30.61,37.775 30.264,37.826 29.937,37.826C29.302,37.826 28.856,37.629 28.462,37.454C28.283,37.374 28.101,37.294 27.909,37.235C28.004,37.4 28.166,37.653 28.354,37.866C28.661,38.212 30.582,39.483 31.29,39.808C32.764,40.48 33.712,41.585 34.27,43.281C34.506,43.999 34.529,44.355 34.353,44.598C34.153,44.872 33.721,44.794 33.418,44.652C33.218,44.561 33.113,44.478 33.019,44.407C32.829,44.26 32.682,44.146 32.215,44.146L31.879,44.15C31.117,44.15 30.545,44.049 29.873,43.53C29.757,43.442 29.656,43.346 29.567,43.256C29.55,43.506 29.581,43.874 29.627,43.982C29.825,44.374 29.925,44.414 30.577,44.671C31.032,44.851 31.719,45.124 32.775,45.675C34.099,46.369 34.435,47.311 34.579,47.714L34.632,47.858C34.718,48.09 34.816,48.35 34.649,48.588C34.495,48.813 34.22,48.843 33.972,48.843C33.721,48.843 33.352,48.808 32.739,48.723C32.114,48.64 30.982,48.257 30.403,47.871C30.214,47.744 29.798,47.796 29.652,47.961C29.608,48.012 29.587,48.065 29.587,48.131C30.03,49.121 31.131,49.677 32.037,49.789C33.017,49.909 33.607,50.126 33.892,50.472C34.065,50.666 34.152,50.914 34.137,51.185C34.1,51.816 33.512,52.372 33.394,52.476C33.332,52.551 33.301,52.655 33.322,52.774C33.361,52.989 33.564,53.218 33.731,53.307C34.41,53.645 35.625,54.378 36.058,55.469C37.16,58.259 37.051,59.013 36.799,59.382C36.663,59.584 36.446,59.693 36.19,59.693C35.749,59.693 35.219,59.361 34.793,59.095L34.619,58.986C34.455,58.886 34.265,58.757 34.053,58.616C33.017,57.917 31.637,56.992 30.385,57.082L30.155,57.1C28.504,57.231 27.875,57.2 26.913,56.449C26.782,56.348 26.698,56.306 26.651,56.289C26.628,56.363 26.613,56.501 26.621,56.604L26.623,63.152C26.674,64.354 26.871,65.625 27.95,66.704C28.292,67.046 28.595,67.218 28.946,67.418C29.477,67.718 30.076,68.059 30.88,69.021C31.388,69.627 33.233,70.458 34.429,70.477L36.919,70.478L36.919,71.021Z" style="fill:white;fill-rule:nonzero;"/>
    </g>
</svg>
