<?xml version="1.0" encoding="utf-8"?>
<!-- Generator: Adobe Illustrator 21.1.0, SVG Export Plug-In . SVG Version: 6.00 Build 0)  -->
<svg version="1.1" id="Layer_1" xmlns="http://www.w3.org/2000/svg" xmlns:xlink="http://www.w3.org/1999/xlink" x="0px" y="0px"
	 viewBox="0 0 255 255" style="enable-background:new 0 0 255 255;" xml:space="preserve">
<style type="text/css">
	.st0{clip-path:url(#SVGID_2_);fill:#7CAD3E;}
	.st1{clip-path:url(#SVGID_4_);fill:#FFFFFF;}
</style>
<g>
	<defs>
		<path id="SVGID_1_" d="M23,3h209c11,0,20,9,20,20v209c0,11-9,20-20,20H23c-11,0-20-9-20-20V23C3,12,12,3,23,3z"/>
	</defs>
	<clipPath id="SVGID_2_">
		<use xlink:href="#SVGID_1_"  style="overflow:visible;"/>
	</clipPath>
	<rect x="-2" y="-2" class="st0" width="259" height="259"/>
</g>
<g>
	<defs>
		<path id="SVGID_3_" d="M42.5,166.9c-1.9,0.1-3.7,1.6-4.1,3.5c-0.4,1.9,0.7,4,2.4,4.8c2,1.1,4.3,2.2,6.4,2.7h161.3
			c2.3-0.2,4.1-1.6,6.2-2.7c2.1-1,3.1-3.9,2.1-5.9s-4-3-6-1.8l-3.3,1.7H48.3C46.5,168.1,44.4,167.3,42.5,166.9z M116,97.2l-4.4,2.3
			l-5.6,27l-8.7,4.5h-24l-8.7-4.5l-6.5-18l-4.4-4.5L45,97.2c-4.4,0-6.5,4.4-6.5,6.7v14.3c3.9,0,7.9,0,11.9,0c2.3,0,4.4,2.1,4.4,4.4
			c0,2.3-2.1,4.4-4.4,4.4c-3.9,0-8,0.1-11.9-0.1V158c0,2.5,4.4,9,10.9,9h65.7l10.8-40.4l8.4,2.3L124.1,167h9.5l8.5-31.8l8.4,2.3
			l-7.9,29.6h9.5l6.3-23.3l8.4,2.3l-5.6,21h41.3c7-0.1,14.6-1.5,14.6-13c0-10.9-10.8-14.3-10.8-14.3l-30.6-9.8L116,97.2z"/>
	</defs>
	<clipPath id="SVGID_4_">
		<use xlink:href="#SVGID_3_"  style="overflow:visible;"/>
	</clipPath>
	<rect x="33.3" y="92.2" class="st1" width="188.9" height="90.7"/>
</g>
</svg>
