<?xml version="1.0" encoding="UTF-8"?>
<svg width="222px" height="222px" viewBox="0 0 222 222" version="1.1" xmlns="http://www.w3.org/2000/svg" xmlns:xlink="http://www.w3.org/1999/xlink">
    <!-- Generator: Sketch 45.2 (43514) - http://www.bohemiancoding.com/sketch -->
    <title>Why Not</title>
    <desc>Created with Sketch.</desc>
    <defs></defs>
    <g id="Duolingo-Nudge-Icons" stroke="none" stroke-width="1" fill="none" fill-rule="evenodd">
        <g id="Why-Not">
            <rect id="Rectangle" fill="#5B80CF" x="0.550439995" y="0.280275516" width="221.425627" height="220.852739"></rect>
            <g id="noun_759832_cc" transform="translate(15.000000, 50.000000)" fill-rule="nonzero" fill="#FFFFFF">
                <g id="Group" transform="translate(0.133043, 0.000000)">
                    <path d="M160.739972,103.235162 C157.67401,98.1271075 150.926635,99.0926314 147.380734,100.481631 L120.30654,109.865846 C120.317833,109.679517 120.323479,109.496952 120.323479,109.30874 C120.323479,103.570178 115.653957,98.902538 109.915395,98.902538 C109.909748,98.902538 109.904102,98.902538 109.900338,98.902538 L86.6317756,98.902538 C69.7398122,82.7427165 44.3802227,83.6423664 36.0104665,84.4554392 C35.8504869,81.1805627 33.1440085,78.5625437 29.8277256,78.5625437 L4.32509549,78.5625437 C3.23158788,78.5625437 2.27735663,79.3078604 2.01197871,80.36749 C-5.71221271,111.260491 11.5655839,136.322707 12.3052543,137.374808 C12.751315,138.010962 13.4796927,138.387385 14.2551233,138.387385 L29.4305997,138.387385 C32.0617936,138.387385 33.5938335,137.327755 34.4163169,136.437516 C36.0198771,134.70409 36.0481088,132.486961 36.0236413,131.894095 L36.0236413,129.565922 C45.3589214,132.742928 72.4971076,141.906936 82.4741882,144.43085 C84.804244,145.019951 87.1775884,145.262743 89.5076442,145.262743 C99.8253872,145.262743 109.249127,140.514173 109.757297,140.252559 C114.174616,137.907446 152.957435,117.296428 154.732267,116.165278 L154.90354,116.056115 C163.006036,110.925475 162.548682,106.250307 160.739972,103.235162 Z M152.353277,112.030276 L152.174476,112.145085 C150.785477,113.010856 124.710684,126.912142 107.555225,136.027215 C107.427241,136.093089 94.5686458,142.576968 83.6467445,139.810262 C73.3609974,137.205418 43.3262394,127.017541 36.0255234,124.527505 L36.0255234,89.2567093 C43.2622476,88.5452706 68.3771624,87.3708321 83.9742322,102.971666 C84.422175,103.417727 85.0300975,103.66993 85.6606053,103.66993 L109.915395,103.66993 C109.919159,103.66993 109.921041,103.668048 109.924805,103.668048 C113.030291,103.673694 115.556087,106.203254 115.556087,109.30874 C115.556087,112.419873 113.024645,114.949433 109.915395,114.949433 L73.3685259,114.949433 C72.0529289,114.949433 70.9838888,116.016591 70.9838888,117.33407 C70.9838888,118.651549 72.0510468,119.718707 73.3685259,119.718707 L109.915395,119.718707 C113.265556,119.718707 116.248705,118.124557 118.155285,115.658989 L148.989941,104.97047 C149.021937,104.957295 149.053933,104.946003 149.087811,104.932828 C149.144274,104.910242 154.91295,102.787219 156.653905,105.687555 C157.327701,106.813059 157.615664,108.695172 152.353277,112.030276 Z" id="Shape"></path>
                    <path d="M81.3827574,25.4235813 C82.6983544,25.4235813 83.7655124,24.3564233 83.7655124,23.0389443 C83.7655124,12.9621117 91.9621142,4.76550991 102.038947,4.76550991 C112.115779,4.76550991 120.312381,12.9621117 120.312381,23.0389443 C120.312381,33.1157768 112.115779,41.3123786 102.038947,41.3123786 C100.72335,41.3123786 99.6543097,42.3795366 99.6543097,43.6951336 L99.6543097,58.3135046 C99.6543097,59.6309837 100.721468,60.6981417 102.038947,60.6981417 C103.356426,60.6981417 104.423584,59.6309837 104.423584,58.3135046 L104.423584,45.9593154 C116.011753,44.7622916 125.079773,34.9414264 125.079773,23.0408264 C125.079773,10.3365642 114.745091,0 102.040829,0 C89.3365666,0 79.0000025,10.3365642 79.0000025,23.0408264 C78.9981204,24.3564233 80.0652784,25.4235813 81.3827574,25.4235813 Z" id="Shape" stroke="#FFFFFF" stroke-width="4"></path>
                    <circle id="Oval" cx="101.814695" cy="78.8146953" r="7.81469532"></circle>
                </g>
            </g>
        </g>
    </g>
</svg>