<?xml version="1.0" encoding="UTF-8"?>
<svg width="222px" height="221px" viewBox="0 0 222 221" version="1.1" xmlns="http://www.w3.org/2000/svg" xmlns:xlink="http://www.w3.org/1999/xlink">
    <!-- Generator: Sketch 45.2 (43514) - http://www.bohemiancoding.com/sketch -->
    <title>Friendly Reminder</title>
    <desc>Created with Sketch.</desc>
    <defs></defs>
    <g id="Duolingo-Nudge-Icons" stroke="none" stroke-width="1" fill="none" fill-rule="evenodd">
        <g id="Friendly-Reminder">
            <rect id="Rectangle" fill="#5B80CF" x="0" y="0" width="221.425627" height="220.852739"></rect>
            <g id="noun_980093_cc" transform="translate(57.000000, 28.000000)">
                <g id="Group" transform="translate(0.000000, 0.128247)">
                    <path d="M53.3513726,0.871753051 L83.2341643,16.6007749 C94.5854766,28.9002246 100.261133,40.0000649 100.261133,49.9002959 C100.261133,55.0728771 100.999031,66.9037825 92.6034318,82.4468915 C88.4313072,90.1709126 74.2734109,95.4597231 71.9683599,107.946599 C70.6787382,114.932711 70.6787382,127.296992 71.9683599,145.039442 L32.892768,143.227502 L30.7925027,114.039691 C9.71911268,82.0766723 0.429845854,59.8373641 2.92470222,47.3217659 C5.41955859,34.8061678 22.2284487,19.3228302 53.3513726,0.871753051 Z" id="Polygon-3" fill="#FFFFFF"></path>
                    <path d="M53.0533076,1 C26.0415108,1 0,22.0193471 0,51.7813488 C0,70.3117884 7.34002335,82.3203457 13.8773698,91.5714671 C20.4147163,100.822392 25.5441851,107.089363 25.5441851,116.931341 L25.5441851,140.510589 C25.5441851,148.257354 31.9826952,154.26515 39.2987464,154.26515 C40.4517716,160.878343 46.1992132,166.054774 53.0537006,166.054774 C59.9081879,166.054774 65.6556296,160.878343 66.6239507,154.26515 C74.1247059,154.26515 80.563216,148.257354 80.563216,140.510589 L80.563216,116.931341 C80.563216,107.089363 85.6926849,100.822392 92.2300314,91.5714671 C98.7673778,82.3203457 106.107401,70.3117884 106.107401,51.7813488 C106.106615,22.0193471 80.0651044,1 53.0533076,1 Z M94.3169913,51.7813488 C94.3169913,67.3696878 88.8849221,75.9326881 82.650176,84.7554925 C77.334431,92.277862 71.017354,100.173766 69.2640405,111.036529 L36.8425747,111.036529 C35.0892611,100.173766 28.7721842,92.277862 23.4564392,84.7554925 C17.2216931,75.9326881 11.7896239,67.3696878 11.7896239,51.7813488 C11.7896239,28.9525892 32.1394972,12.7896239 53.0533076,12.7896239 C73.9671179,12.7896239 94.3169913,28.9525892 94.3169913,51.7813488 Z M43.7811614,18.6844359 C42.9423296,18.6541758 42.0455322,18.7677492 41.1408751,18.9914573 C28.3518841,23.813944 18.7779235,35.0780062 16.3335415,48.8339428 C15.8026154,51.8885165 18.0685811,55.1806707 21.1230762,55.7112235 C24.1777677,56.2417762 27.4702167,53.915035 28.0003568,50.8602845 C29.7126032,41.2236424 36.3841548,33.3509835 45.3163669,29.9828254 C47.8774662,29.0306365 49.5394102,26.1029585 49.0621269,23.4125663 C48.3535705,20.1130632 46.2978531,18.7750195 43.7811614,18.6844359 Z M68.7728061,122.826153 L68.7728061,126.756028 L37.333809,126.756028 L37.333809,122.826153 L68.7728061,122.826153 Z M37.333809,138.545652 L68.7728061,138.545652 L68.7728061,140.510589 C68.7728061,141.795068 67.7858181,142.475526 66.8078688,142.475526 L39.2987464,142.475526 C38.3207971,142.475526 37.333809,141.795068 37.333809,140.510589 L37.333809,138.545652 Z" id="Shape" stroke="#FFFFFF" stroke-width="4" fill="#527AC6" fill-rule="nonzero"></path>
                </g>
            </g>
        </g>
    </g>
</svg>