<?xml version="1.0" encoding="UTF-8" standalone="no"?>
<!-- Generator: Adobe Illustrator 21.1.0, SVG Export Plug-In . SVG Version: 6.00 Build 0)  -->

<svg
   xmlns:osb="http://www.openswatchbook.org/uri/2009/osb"
   xmlns:dc="http://purl.org/dc/elements/1.1/"
   xmlns:cc="http://creativecommons.org/ns#"
   xmlns:rdf="http://www.w3.org/1999/02/22-rdf-syntax-ns#"
   xmlns:svg="http://www.w3.org/2000/svg"
   xmlns="http://www.w3.org/2000/svg"
   xmlns:xlink="http://www.w3.org/1999/xlink"
   xmlns:sodipodi="http://sodipodi.sourceforge.net/DTD/sodipodi-0.dtd"
   xmlns:inkscape="http://www.inkscape.org/namespaces/inkscape"
   version="1.1"
   id="Layer_1"
   x="0px"
   y="0px"
   viewBox="0 0 255 255"
   style="enable-background:new 0 0 255 255;"
   xml:space="preserve"
   sodipodi:docname="icon2.svg"
   inkscape:version="0.92.2 5c3e80d, 2017-08-06"><metadata
     id="metadata69"><rdf:RDF><cc:Work
         rdf:about=""><dc:format>image/svg+xml</dc:format><dc:type
           rdf:resource="http://purl.org/dc/dcmitype/StillImage" /><dc:title></dc:title></cc:Work></rdf:RDF></metadata><defs
     id="defs67"><linearGradient
       id="linearGradient4745"
       osb:paint="solid"><stop
         style="stop-color:#ffffff;stop-opacity:1;"
         offset="0"
         id="stop4743" /></linearGradient></defs><sodipodi:namedview
     pagecolor="#ffffff"
     bordercolor="#666666"
     borderopacity="1"
     objecttolerance="10"
     gridtolerance="10"
     guidetolerance="10"
     inkscape:pageopacity="0"
     inkscape:pageshadow="2"
     inkscape:window-width="1033"
     inkscape:window-height="632"
     id="namedview65"
     showgrid="false"
     inkscape:zoom="1.676"
     inkscape:cx="127.5"
     inkscape:cy="127.5"
     inkscape:window-x="0"
     inkscape:window-y="0"
     inkscape:window-maximized="0"
     inkscape:current-layer="Layer_1" /><style
     type="text/css"
     id="style2">
	.st0{clip-path:url(#SVGID_2_);fill:#5B80CF;}
	.st1{clip-path:url(#SVGID_4_);fill:#FFFFFF;}
	.st2{clip-path:url(#SVGID_6_);fill:#FFFFFF;}
	.st3{clip-path:url(#SVGID_8_);fill:#FFFFFF;}
	.st4{clip-path:url(#SVGID_10_);fill:#FFFFFF;}
	.st5{clip-path:url(#SVGID_12_);fill:#FFFFFF;}
</style><g
     id="g12"><defs
       id="defs5"><path
         id="SVGID_1_"
         d="M22.5,2.5h210c11,0,20,9,20,20v210c0,11-9,20-20,20h-210c-11,0-20-9-20-20v-210C2.5,11.5,11.5,2.5,22.5,2.5    z" /></defs><clipPath
       id="SVGID_2_"><use
         xlink:href="#SVGID_1_"
         style="overflow:visible;"
         id="use7" /></clipPath><rect
       x="-2.5"
       y="-2.5"
       class="st0"
       width="260"
       height="260"
       clip-path="url(#SVGID_2_)"
       id="rect10" /></g><ellipse
     style="fill:#5b80cf;fill-opacity:1;stroke-width:0.9279564"
     id="path3778"
     cx="125.87924"
     cy="129.66103"
     rx="58.887711"
     ry="59.427967" /><path
     style="fill:#ffffff;fill-opacity:1;stroke-width:0.29832935"
     d=""
     id="path3922"
     inkscape:connector-curvature="0" /><path
     style="fill:#ffffff;fill-opacity:1;stroke:#ffffff;stroke-width:0.83267546;stroke-miterlimit:4;stroke-dasharray:none;stroke-opacity:1"
     d="m 176.84426,151.51804 c -9.28612,-0.92154 -17.24822,-4.96442 -24.49043,-12.43541 -7.48722,-7.72375 -13.25601,-19.08437 -15.99878,-31.50676 -0.51593,-2.33676 -0.40075,-7.04316 0.228,-9.31544 1.01271,-3.65996 3.26622,-6.66431 6.3863,-8.51413 12.69928,-3.990778 15.70319,-6.201223 25.34183,-4.741443 l 3.51847,0.301345 c 11.86393,1.016108 23.8737,3.681358 30.78918,6.832848 4.53525,2.06677 7.54892,4.74719 8.52295,7.58044 0.38485,1.11947 0.71602,1.21715 4.23369,1.2487 1.51798,0.0137 3.29179,0.0977 3.94181,0.18676 l 1.18184,0.16199 -0.16765,2.50843 c -0.24935,3.7308 0.19352,3.37787 -4.2387,3.37787 h -3.81742 l 0.13869,3.53987 c 0.27485,7.01554 -0.98586,12.95552 -4.13703,19.49211 -4.96844,10.30628 -13.80465,18.30426 -22.72168,20.56625 -2.28059,0.57852 -6.55722,0.93031 -8.71107,0.71657 z m 9.17298,-1.44329 c 4.71047,-1.41219 9.4371,-4.39661 13.56085,-8.56243 6.38738,-6.45253 10.52153,-14.60127 11.92403,-23.50317 0.34384,-2.18237 0.43132,-7.4142 0.16096,-9.62595 l -0.20496,-1.67678 h 3.97648 3.97648 l 0.15092,-1.42836 c 0.083,-0.78561 0.20968,-1.90346 0.28151,-2.48412 l 0.13059,-1.05575 h -1.21828 c -0.67005,0 -2.60519,-0.0714 -4.30032,-0.15877 -1.69512,-0.0873 -2.99687,-0.0674 -2.89278,0.0444 0.10409,0.11171 1.85606,0.26767 3.89326,0.34656 2.0372,0.0789 3.78594,0.22537 3.88608,0.32552 0.10015,0.10014 0.0809,1.04965 -0.0429,2.11002 l -0.22496,1.92793 -3.91249,0.0684 -3.91248,0.0684 -0.002,4.89981 c -0.002,8.02588 -0.99428,12.643 -4.01169,18.67398 -2.01686,4.03117 -4.23362,7.17973 -7.39999,10.51059 -6.59565,6.93826 -12.93567,9.93389 -21.00456,9.92455 -4.68867,-0.005 -8.87402,-1.00997 -13.77315,-3.30579 -9.78707,-4.58638 -18.90664,-15.09049 -23.81077,-27.42574 -1.44706,-3.63976 -3.2052,-9.25018 -3.80274,-12.13496 -0.98538,-4.75711 -0.23118,-9.82738 1.96682,-13.22249 1.20376,-1.85936 2.35235,-2.86447 4.52184,-3.95701 3.80629,-1.91682 7.00578,-2.59564 16.98207,-3.60302 8.42968,-0.851203 11.91058,-0.720415 20.8969,0.78514 16.53276,2.76986 25.68559,6.66616 28.09174,11.95844 0.71194,1.56592 1.19332,1.46444 0.51875,-0.10936 -1.81715,-4.23951 -8.30369,-7.75936 -19.17085,-10.40285 -8.47113,-2.06064 -21.41429,-3.772911 -24.42927,-3.231789 -0.77304,0.138741 -3.19845,0.313453 -6.20424,0.591849 -6.3027,0.58376 -11.16449,1.40518 -13.44914,2.16178 -6.93893,2.29792 -10.01976,6.38443 -10.57267,14.02387 -0.18197,2.51428 0.0891,4.16725 1.52318,9.28844 5.39634,19.27049 17.69654,33.67704 32.26557,37.79089 3.36365,0.94978 5.69097,1.22231 9.68805,1.13447 3.16975,-0.0697 4.0573,-0.18116 5.94364,-0.74668 z M 161.66669,85.465418 c 2.85569,-0.203939 5.40387,-0.370799 5.66262,-0.370799 -5.66262,0.370799 -6.19403,-1.366712 -5.66262,0.370799 z"
     id="path3924"
     inkscape:connector-curvature="0"
     sodipodi:nodetypes="csccccsscccccscsccccsccccccccscccscccccsccscsscssccssssssccccccc" /><path
     style="fill:#ffffff;fill-opacity:1;stroke:#ffffff;stroke-width:2.74782896;stroke-miterlimit:4;stroke-dasharray:none;stroke-opacity:1"
     d="m 79.821928,150.90722 c 7.459698,-1.01178 14.616128,-4.66693 20.805392,-10.62634 6.72438,-6.47468 11.58284,-14.54181 14.92035,-24.77422 1.90426,-5.8382 2.2052,-7.18322 2.3398,-10.45726 0.15242,-3.70753 -0.27816,-5.92936 -1.69933,-8.76878 -1.21394,-2.42541 -2.76202,-3.88437 -5.54217,-5.22316 -3.44522,-1.65907 -7.17656,-2.42663 -16.416175,-3.37693 -8.158579,-0.83912 -13.718461,-0.5331 -23.474887,1.29206 -14.893158,2.78608 -22.966505,6.4096 -25.388608,11.39501 -0.299855,0.6172 -0.634707,1.12218 -0.744104,1.12218 -0.350881,0 -0.213306,-0.86036 0.297907,-1.86309 0.575412,-1.12862 0.593039,-1.20662 0.220684,-0.9765 -0.15188,0.0939 -0.54049,0.76838 -0.863568,1.49892 -0.411567,0.93063 -0.756494,1.36384 -1.152223,1.44712 -0.310638,0.0654 -2.196506,0.19072 -4.190813,0.27854 -1.994308,0.0878 -3.737656,0.23276 -3.874098,0.32206 -0.347126,0.22722 -0.0058,4.92769 0.386095,5.32029 0.206603,0.20685 1.47904,0.33504 3.896705,0.39255 l 3.589929,0.0854 8.33e-4,4.51021 c 8.33e-4,4.89023 0.351522,7.81193 1.362307,11.35799 0.654841,2.29733 2.349552,6.53837 2.537579,6.35034 0.06337,-0.0634 -0.296516,-1.14445 -0.799802,-2.40236 -2.046083,-5.11402 -3.078718,-11.50286 -2.741451,-16.96125 0.09135,-1.47825 0.227429,-2.84762 0.30242,-3.04303 0.114767,-0.29908 -0.496941,-0.35531 -3.864821,-0.35531 -2.200636,0 -4.009699,-0.028 -4.020141,-0.0621 -0.01041,-0.0341 -0.153462,-1.13936 -0.317832,-2.456 l -0.298847,-2.3939 1.249371,-0.15016 c 1.855767,-0.22304 7.550592,-0.15967 6.96284,0.0774 -0.273251,0.11025 -2.033868,0.28229 -3.912483,0.38232 l -3.415651,0.18186 0.0033,1.40291 c 0.0067,2.61904 -0.118498,2.52038 3.192828,2.52351 1.589427,0.002 3.290141,0.0689 3.77938,0.14989 l 0.889505,0.14715 0.281844,6.24671 c 0.167301,3.70802 0.444041,7.00388 0.680954,8.1098 1.273261,5.94374 4.413072,12.245 8.608932,17.27717 6.63888,7.96213 13.535556,11.81008 21.75562,12.13841 1.602317,0.064 3.695797,0.0102 4.652183,-0.11948 z"
     id="path3926"
     inkscape:connector-curvature="0" /><path
     style="fill:#ffffff;fill-opacity:1;stroke-width:0.29832935"
     d=""
     id="path3928"
     inkscape:connector-curvature="0" /><path
     style="fill:none;stroke:#ffffff;stroke-width:2.99763155;stroke-linecap:butt;stroke-linejoin:miter;stroke-miterlimit:4;stroke-dasharray:none;stroke-opacity:1"
     d="m 118.49334,108.52551 c 1.4353,-0.63041 3.05027,-1.01636 4.12519,-1.43528 5.26776,-2.05296 7.30241,-1.57971 13.80176,1.28935"
     id="path4841"
     inkscape:connector-curvature="0"
     sodipodi:nodetypes="csc" /><rect
     style="fill:#ffffff;fill-opacity:1;stroke:#ffffff;stroke-width:2.98634839;stroke-miterlimit:4;stroke-dasharray:none;stroke-opacity:1"
     id="rect4845"
     width="92.97142"
     height="0.66491461"
     x="80.105385"
     y="86.140274" /></svg>