<?xml version="1.0" encoding="utf-8"?>
<!-- Generator: Adobe Illustrator 21.1.0, SVG Export Plug-In . SVG Version: 6.00 Build 0)  -->
<svg version="1.1" id="Layer_1" xmlns="http://www.w3.org/2000/svg" xmlns:xlink="http://www.w3.org/1999/xlink" x="0px" y="0px"
	 viewBox="0 0 255 255" style="enable-background:new 0 0 255 255;" xml:space="preserve">
<style type="text/css">
	.st0{clip-path:url(#SVGID_2_);}
	.st1{clip-path:url(#SVGID_4_);fill:#D0001B;}
	.st2{font-family:'Arial-BoldMT';}
	.st3{font-size:55px;}
</style>
<g>
	<defs>
		<path id="SVGID_1_" d="M22.5,2.5h210c11,0,20,9,20,20v210c0,11-9,20-20,20h-210c-11,0-20-9-20-20v-210C2.5,11.5,11.5,2.5,22.5,2.5
			z"/>
	</defs>
	<clipPath id="SVGID_2_">
		<use xlink:href="#SVGID_1_"  style="overflow:visible;"/>
	</clipPath>
	<rect x="-2.5" y="-2.5" class="st0" width="260" height="260"/>
</g>
<g>
	<defs>
		<path id="SVGID_3_" d="M182.4,132.7c4-13.7,5.4-31.4,0.1-44.9c-5-12.8-16.4-23.5-29.3-28.2c-14.2-5.1-31.6-5.1-46.2-1.4
			c-13.8,3.5-23.6,11.9-30.1,24.3c-3.4,6.4-5.2,13.9-3.9,21.3c1,6,1.4,11.7-2,16.9c-2.4,3.7-6.6,7.7-8,12.1c-2.8,3.7,6.9,7,8.9,8.4
			c4.4,3.7-1.8,7.7-1.5,11.5c0.2,2.6,4.6,0.9,2.3,3.4c-0.8,0.9-1.2,1.7-0.9,2.6c0.1,0.3,1.5,1.5,1.8,1.9c1,1.5,0.7,4.1,0.4,5.6
			c0,4.2-1.5,8.5,4.2,10.7c5.3,2,10.8-0.3,16.2-0.1c0,0,0,0,0,0h0h0h0c2.5,0.1,4.5,0.5,6.6,2.1c2.6,2,4.9,7.5,5.8,11.6
			c0.4,1.8,0.9,11.4,2.8,11.4c6,0,12-0.1,18.1-0.1c13.6-0.1,27.2-0.1,40.8-0.2c-4-9.7-7.9-23.2-4.7-33.7
			C167.4,155,178.6,145.6,182.4,132.7z"/>
	</defs>
	<clipPath id="SVGID_4_">
		<use xlink:href="#SVGID_3_"  style="overflow:visible;"/>
	</clipPath>
	<rect x="57.5" y="50.5" class="st1" width="133.5" height="156.2"/>
</g>
<text transform="matrix(1 0 0 1 133.7056 123.5)" class="st2 st3">2</text>
</svg>
