<?xml version="1.0" encoding="utf-8"?>
<!-- Generator: Adobe Illustrator 21.1.0, SVG Export Plug-In . SVG Version: 6.00 Build 0)  -->
<svg version="1.1" id="Layer_1" xmlns="http://www.w3.org/2000/svg" xmlns:xlink="http://www.w3.org/1999/xlink" x="0px" y="0px"
	 viewBox="0 0 350 350" style="enable-background:new 0 0 350 350;" xml:space="preserve">
<style type="text/css">
	.st0{clip-path:url(#SVGID_2_);}
	.st1{clip-path:url(#SVGID_4_);}
	.st2{clip-path:url(#SVGID_6_);}
	.st3{clip-path:url(#SVGID_8_);fill:#5B80CF;}
	.st4{enable-background:new    ;}
	.st5{clip-path:url(#SVGID_10_);}
	.st6{clip-path:url(#SVGID_12_);}
	.st7{clip-path:url(#SVGID_14_);fill:#FFFFFF;}
</style>
<g>
	<g>
		<defs>
			<rect id="SVGID_1_" x="7.5" y="10.5" width="333" height="333"/>
		</defs>
		<clipPath id="SVGID_2_">
			<use xlink:href="#SVGID_1_"  style="overflow:visible;"/>
		</clipPath>
		<g class="st0">
		</g>
	</g>
</g>
<g>
	<g>
		<g>
			<defs>
				<rect id="SVGID_3_" x="12.5" y="12.5" width="325" height="325"/>
			</defs>
			<clipPath id="SVGID_4_">
				<use xlink:href="#SVGID_3_"  style="overflow:visible;"/>
			</clipPath>
			<g class="st1">
				<g>
					<defs>
						<path id="SVGID_5_" d="M32.5,12.5h285c11,0,20,9,20,20v285c0,11-9,20-20,20h-285c-11,0-20-9-20-20v-285
							C12.5,21.4,21.5,12.5,32.5,12.5z"/>
					</defs>
					<clipPath id="SVGID_6_">
						<use xlink:href="#SVGID_5_"  style="overflow:visible;"/>
					</clipPath>
					<g class="st2">
						<g>
							<defs>
								<rect id="SVGID_7_" x="4.5" y="4.5" width="341" height="345"/>
							</defs>
							<clipPath id="SVGID_8_">
								<use xlink:href="#SVGID_7_"  style="overflow:visible;"/>
							</clipPath>
							<rect x="7.5" y="7.5" class="st3" width="335" height="335"/>
						</g>
					</g>
				</g>
				<g class="st4">
					<defs>
						<rect id="SVGID_9_" x="12.5" y="12.5" class="st4" width="325" height="325"/>
					</defs>
					<clipPath id="SVGID_10_">
						<use xlink:href="#SVGID_9_"  style="overflow:visible;"/>
					</clipPath>
					<g class="st5">
						<g>
							<defs>
								<path id="SVGID_11_" d="M194.3,195.8l-17.2-12.5l-17.3,12.5l6.6-20.3L149.1,163h21.4l6.6-20.3l6.6,20.3H205l-17.3,12.5
									L194.3,195.8z M177.1,103.9c-37.7,0-68.2,30.5-68.2,68.2s30.5,68.2,68.2,68.2s68.2-30.5,68.2-68.2S214.7,103.9,177.1,103.9z
									"/>
							</defs>
							<clipPath id="SVGID_12_">
								<use xlink:href="#SVGID_11_"  style="overflow:visible;"/>
							</clipPath>
							<g class="st6">
								<g>
									<defs>
										<rect id="SVGID_13_" x="4.5" y="4.5" width="341" height="345"/>
									</defs>
									<clipPath id="SVGID_14_">
										<use xlink:href="#SVGID_13_"  style="overflow:visible;"/>
									</clipPath>
									<rect x="103.8" y="98.9" class="st7" width="146.5" height="146.5"/>
								</g>
							</g>
						</g>
					</g>
				</g>
			</g>
		</g>
	</g>
</g>
</svg>
