<?xml version="1.0" encoding="UTF-8"?>
<svg width="220px" height="220px" viewBox="0 0 220 220" version="1.1" xmlns="http://www.w3.org/2000/svg" xmlns:xlink="http://www.w3.org/1999/xlink" style="background: #4DB8EC;">
    <!-- Generator: Sketch 45.2 (43514) - http://www.bohemiancoding.com/sketch -->
    <title>Artboard</title>
    <desc>Created with Sketch.</desc>
    <defs>
        <path d="M9,1.77635684e-15 L135.005071,1.77635684e-15 C139.975634,-1.85720638e-14 144.005071,4.02943725 144.005071,9 L144.005071,111.596014 C144.005071,116.566577 139.975634,120.596014 135.005071,120.596014 L9,120.596014 C4.02943725,120.596014 6.08718376e-16,116.566577 0,111.596014 L0,9 C-6.08718376e-16,4.02943725 4.02943725,9.13077564e-16 9,1.77635684e-15 Z" id="path-1"></path>
        <path d="M9,0.496084761 L32.7916631,0.496084761 C37.7622258,0.496084761 41.7916631,4.52552201 41.7916631,9.49608476 L41.7916631,32.4960848 C41.7916631,37.4666475 37.7622258,41.4960848 32.7916631,41.4960848 L9,41.4960848 C4.02943725,41.4960848 6.08718376e-16,37.4666475 0,32.4960848 L0,9.49608476 C-6.08718376e-16,4.52552201 4.02943725,0.496084761 9,0.496084761 Z" id="path-3"></path>
    </defs>
    <g id="Duolingo-Nudge-icons-to-export" stroke="none" stroke-width="1" fill="none" fill-rule="evenodd">
        <g id="Artboard">
            <g id="Group-11" transform="translate(24.000000, 40.000000)">
                <g id="Group-18">
                    <g id="Group-2" transform="translate(21.000000, 21.000000)">
                        <mask id="mask-2" fill="white">
                            <use xlink:href="#path-1"></use>
                        </mask>
                        <use id="Rectangle-11" stroke="#FFFFFF" stroke-width="4" fill="#FFFFFF" xlink:href="#path-1"></use>
                        <g id="Duolingo-owl" mask="url(#mask-2)">
                            <g transform="translate(-40.000000, 18.000000)">
                                <g transform="translate(0.000000, 0.060328)">
                                    <g id="Group" transform="translate(0.713300, 0.000000)" fill-rule="nonzero">
                                        <path d="M58.4882494,0 C74.4181845,0 78.2447168,21.2350778 109.635895,21.2350778 C129.470478,21.2350778 130.564092,13.0073082 139.703578,13.0073082 C143.453111,13.0073082 145.551064,20.2173474 145.551064,24.9968859 C145.551064,43.8818101 140.719077,65.0387726 143.843687,65.0387726 C147.972637,65.0387726 164.689305,54.2253876 168.985645,54.2253876 C173.125754,54.2253876 172.969523,57.438157 172.969523,59.2403878 C172.969523,61.0426187 174.219368,92.3858122 131.970167,117.072469 C130.0954,118.166083 121.19026,157.34647 89.566967,157.34647 C68.483656,157.34647 52.3974903,145.908162 46.3067312,118.478544 C45.0568869,112.843085 0,94.9725436 0,55.7140414 C-1.58585155e-14,47.0945795 2.18644637,42.3931563 5.46617172,42.3931563 C13.7438235,42.3931563 31.547744,56.4193107 39.2008084,56.4193107 C45.8383744,56.4193107 44.7447606,41.9222328 44.7447606,37.5343866 C44.9009912,33.0673091 44.5104148,7.92917666e-15 58.4885842,7.92917666e-15 L58.4882494,0 Z" id="Shape" fill="#78C800"></path>
                                        <path d="M127.316728,31.9313023 C126.859196,31.4637266 129.336566,30.3712288 129.336566,29.9036531 C129.336566,29.6693073 128.957149,29.7474226 128.488458,29.7474226 C125.453121,29.7474226 119.549839,34.115182 118.768686,34.115182 C118.389269,34.115182 117.842462,34.1932973 117.842462,33.6476064 C117.842462,32.398878 122.038368,31.3074961 119.159263,31.3074961 C116.291316,31.3074961 111.93918,35.0514493 107.506696,35.0514493 C98.2600804,35.0514493 90.8793035,27.7978887 90.8793035,29.5911921 C90.8793035,30.2149983 91.9662216,31.2293808 92.6659113,32.5551085 C92.6659113,32.5551085 93.0542557,34.5046425 92.2775668,33.7246057 C83.8076398,25.2234326 75.3388288,23.1957834 75.3388288,23.1957834 C75.3388288,23.1957834 74.7172544,23.1957834 74.7172544,23.5082445 C74.7172544,24.4433959 76.5819775,25.7691236 76.5819775,26.1596999 C76.5819775,26.5491603 76.3487476,26.7835061 75.9604031,26.7835061 C74.1726794,26.7835061 72.8525314,23.352014 65.6257531,23.352014 C54.6695287,23.352014 51.7178875,40.5887059 51.7178875,54.7833662 C51.7178875,74.82886 64.6158342,81.2242687 75.2607135,81.2242687 C83.7306405,81.2242687 92.7440265,76.232703 96.550472,68.9010271 L107.818042,69.7591791 C107.818042,69.7591791 113.334095,80.2098861 123.198938,80.2098861 C132.528133,80.2098861 140.607483,74.2831691 140.607483,53.8482148 C140.373138,32.3207627 134.782316,31.3856114 131.903211,31.3856114 C129.035264,31.3856114 128.332227,32.8675696 127.316728,31.9313023 L127.316728,31.9313023 Z" id="Shape" fill="#8EE000"></path>
                                        <path d="M73.651539,74.5286742 C81.6639337,74.5286742 88.1586603,66.5352504 88.1586603,56.6737557 C88.1586603,46.812261 81.6639337,38.8188371 73.651539,38.8188371 C65.6391443,38.8188371 59.1444176,46.812261 59.1444176,56.6737557 C59.1444176,66.5352504 65.6391443,74.5286742 73.651539,74.5286742 Z M134.994343,58.1836122 C134.54797,66.7818714 128.94599,73.6437398 122.518219,73.4071622 C116.090448,73.1705845 111.168071,65.9929072 111.626719,57.395764 C112.073092,48.7975047 117.675072,41.9356364 124.102843,42.172214 C130.608729,42.3306764 135.451876,49.5083537 134.994343,58.1836122 L134.994343,58.1836122 Z" id="Shape" fill="#FFFFFF"></path>
                                        <path d="M73.651539,66.7171474 C77.9657336,66.7171474 81.4630658,62.2210557 81.4630658,56.6737557 C81.4630658,51.1264557 77.9657336,46.630364 73.651539,46.630364 C69.3373443,46.630364 65.8400121,51.1264557 65.8400121,56.6737557 C65.8400121,62.2210557 69.3373443,66.7171474 73.651539,66.7171474 Z M129.425841,58.1345112 C129.046424,63.0368023 125.765582,66.8655664 122.105324,66.7126836 C118.456225,66.5598009 115.711031,62.4230395 116.090448,57.444865 C116.469865,52.5425739 119.750707,48.7138098 123.410965,48.8666926 C127.060064,49.0195753 129.727142,53.1563367 129.425841,58.1345112 Z" id="Shape" fill="#3F3F3F"></path>
                                        <path d="M92.7016211,75.177031 C92.7016211,83.7317688 91.7809769,94.3878074 96.6542537,94.3788799 C102.673593,94.3688365 101.603414,85.1445392 101.526415,85.066424 C101.526415,84.9883087 92.7016211,75.177031 92.7016211,75.177031 L92.7016211,75.177031 Z" id="Shape" fill="#71B200"></path>
                                        <path d="M67.5139107,53.3259585 C69.6710081,53.3259585 71.4196741,51.5772924 71.4196741,49.420195 C71.4196741,47.2630977 69.6710081,45.5144316 67.5139107,45.5144316 C65.3568134,45.5144316 63.6081473,47.2630977 63.6081473,49.420195 C63.6081473,51.5772924 65.3568134,53.3259585 67.5139107,53.3259585 Z M121.636633,52.6452397 C121.714748,54.7811343 120.297514,56.5889448 118.411588,56.6704079 C116.592618,56.7529869 115.019153,55.0277554 114.941038,52.8907448 C114.862923,50.7548502 116.280157,48.9470397 118.166083,48.8655766 C119.985053,48.7829976 121.558517,50.5082291 121.636633,52.6452397 Z" id="Shape" fill="#FFFFFF"></path>
                                        <path d="M166.273929,87.922095 C157.904436,100.101381 140.373138,109.705096 137.482873,109.705096 C134.202031,109.705096 136.467374,106.270256 134.123916,106.270256 C132.003645,106.270256 131.613068,142.734463 94.140058,142.734463 C52.0482035,142.734463 52.9867026,99.3213445 48.9972443,99.3213445 C46.0244003,99.3213445 47.9795139,105.645333 44.7723242,105.645333 C34.1319086,105.645333 5.81066005,84.173678 1.11593241,68.9490122 C7.68788155,101.351226 45.3983622,116.577007 46.5712072,121.732615 C52.7523568,149.05064 68.7905374,160.45547 89.9151379,160.45547 C121.525039,160.45547 130.519454,121.420154 132.394221,120.32654 C149.925519,110.173787 160.247894,98.3839613 166.273929,87.922095 Z" id="Shape" fill="#71B200"></path>
                                        <path d="M92.6357811,72.9630211 C92.6357811,77.9735576 91.9372074,88.0861371 98.0246187,88.0861371 C104.422259,88.0861371 106.695414,80.0503078 106.695414,75.0330757 C106.695414,70.0158436 92.6357811,72.9630211 92.6357811,72.9630211 L92.6357811,72.9630211 Z" id="Shape" fill="#F49000"></path>
                                        <path d="M112.709173,77.2794476 C112.709173,83.0789483 107.81023,89.0357955 106.176505,89.0357955 C104.543896,89.0357955 92.6223899,78.3764092 92.6223899,73.8312165 C92.6223899,69.2849078 97.1129019,65.601215 103.482644,65.601215 C108.708556,65.601215 112.709173,71.4799469 112.709173,77.2794476 Z" id="Shape" fill="#FFC200"></path>
                                        <path d="M102.7651,67.845355 C100.917115,67.7181387 99.373781,68.6097687 99.3191003,69.8350625 C99.2644196,71.0614722 100.71848,72.1584338 102.566464,72.2845341 C104.414448,72.4117504 105.957782,71.5201204 106.012463,70.2948267 C106.067144,69.0684169 104.613084,67.9714554 102.7651,67.845355 Z" id="Shape" fill="#FFF3B8"></path>
                                        <path d="M83.7306405,164.963837 C89.0346672,164.640216 92.8790544,165.834264 93.1089364,170.755526 C93.3399344,175.676788 86.8820336,176.948951 83.4226431,177.183296 C79.9632527,177.339527 76.0429821,175.754903 75.8889834,172.183919 C75.7349848,168.691051 78.8874938,165.276298 83.7306405,164.963837 Z M116.40291,154.886967 C121.480402,154.641462 121.558517,160.27692 121.625473,160.756771 C121.625473,161.236622 122.17228,166.704691 113.25598,167.184542 C107.638376,167.497003 107.792375,164.885721 107.715376,163.613558 C107.715376,162.26328 109.945009,155.277543 116.40291,154.886967 Z" id="Shape" fill="#D98500"></path>
                                        <ellipse id="Oval" fill="#E0E0E0" cx="89.8325589" cy="192.81751" rx="46.311195" ry="4.46372963"></ellipse>
                                    </g>
                                </g>
                            </g>
                        </g>
                    </g>
                    <g id="Rectangle-12">
                        <use fill="#FFFFFF" fill-rule="evenodd" xlink:href="#path-3"></use>
                        <path stroke="#4DB8EC" stroke-width="6" d="M9,3.49608476 C5.6862915,3.49608476 3,6.18237626 3,9.49608476 L3,32.4960848 C3,35.8097933 5.6862915,38.4960848 9,38.4960848 L32.7916631,38.4960848 C36.1053716,38.4960848 38.7916631,35.8097933 38.7916631,32.4960848 L38.7916631,9.49608476 C38.7916631,6.18237626 36.1053716,3.49608476 32.7916631,3.49608476 L9,3.49608476 Z"></path>
                    </g>
                    <text id="+" fill="#4DB8EC" font-family="GillSans, Gill Sans" font-size="36" font-weight="normal">
                        <tspan x="10.4241086" y="33">+</tspan>
                    </text>
                </g>
            </g>
        </g>
    </g>
</svg>