<?xml version="1.0" encoding="utf-8"?>
<!-- Generator: Adobe Illustrator 21.1.0, SVG Export Plug-In . SVG Version: 6.00 Build 0)  -->
<svg version="1.1" id="Layer_1" xmlns="http://www.w3.org/2000/svg" xmlns:xlink="http://www.w3.org/1999/xlink" x="0px" y="0px"
	 viewBox="0 0 255 255" style="enable-background:new 0 0 255 255;" xml:space="preserve">
<style type="text/css">
	.st0{clip-path:url(#SVGID_2_);fill:#5B80CF;}
	.st1{clip-path:url(#SVGID_4_);enable-background:new    ;}
	.st2{clip-path:url(#SVGID_6_);}
	.st3{clip-path:url(#SVGID_8_);}
	.st4{clip-path:url(#SVGID_10_);fill:#FFFFFF;}
	.st5{clip-path:url(#SVGID_12_);fill:#FFFFFF;}
	.st6{clip-path:url(#SVGID_14_);enable-background:new    ;}
	.st7{clip-path:url(#SVGID_16_);}
	.st8{clip-path:url(#SVGID_18_);}
	.st9{clip-path:url(#SVGID_20_);fill:#FFFFFF;}
	.st10{clip-path:url(#SVGID_22_);fill:#FFFFFF;}
	.st11{clip-path:url(#SVGID_24_);fill:#FFFFFF;}
	.st12{clip-path:url(#SVGID_26_);fill:#FFFFFF;}
	.st13{clip-path:url(#SVGID_28_);enable-background:new    ;}
	.st14{clip-path:url(#SVGID_30_);}
	.st15{clip-path:url(#SVGID_32_);}
	.st16{clip-path:url(#SVGID_34_);fill:#FFFFFF;}
</style>
<g>
	<defs>
		<path id="SVGID_1_" d="M22.4,2.5h210c11,0,20,9,20,20v210c0,11-9,20-20,20h-210c-11,0-20-9-20-20v-210C2.4,11.5,11.3,2.5,22.4,2.5
			z"/>
	</defs>
	<clipPath id="SVGID_2_">
		<use xlink:href="#SVGID_1_"  style="overflow:visible;"/>
	</clipPath>
	<rect x="-2.6" y="-2.5" class="st0" width="260" height="260"/>
</g>
<g>
	<defs>
		<rect id="SVGID_3_" x="55.4" y="92.5" width="110.9" height="110.9"/>
	</defs>
	<clipPath id="SVGID_4_">
		<use xlink:href="#SVGID_3_"  style="overflow:visible;"/>
	</clipPath>
	<g class="st1">
		<g>
			<defs>
				<rect id="SVGID_5_" x="55.4" y="92.5" width="111" height="111"/>
			</defs>
			<clipPath id="SVGID_6_">
				<use xlink:href="#SVGID_5_"  style="overflow:visible;"/>
			</clipPath>
			<g class="st2">
				<defs>
					<path id="SVGID_7_" d="M143.6,155.7c-1.7-0.6-3.2-2.1-3.8-3.8c-2.4-6.3-6.2-12.2-9.2-18.4c-4-7.8-7-16-9.3-24.6
						c-0.2-0.6,0.5-1.1,1.1-0.8c1.4,1,2.4,2.4,2.7,4.1c0.2,0.5,0.8,0.8,1.1,0.5c0.8-0.8,1.1-2.4,1-3.6c-0.2-1.3-0.3-2.9,0.3-3.8
						c0.3-0.5,0.9-0.5,1.3,0c1.3,2.5,2.2,5.2,3,7.9c1.1,4,1.7,8.1,3.8,11.4c2.1,3.5,6.3,6,10.1,4.8c0.5-1.3-0.8-2.5-1.7-3.5
						c-3.6-3.6-4.3-9.2-5.2-14.1c-1.3-5.7-3.3-11.2-6.3-16.2c-0.5-1-1.1-1.7-1.9-2.4c-1-0.8-13.2-1.7-17,1c-1.3,1-2.2,2.1-3.2,3.3
						c-4.8,6.3-8.4,13.5-11.9,20.6c-5.1,10.8-9.8,21.9-14.3,33.1c-0.6,1.7-2.2,3.2-4,3.8c-15,4.6-24.9,12.7-24.9,21.9
						c0,14.6,24.9,26.5,55.4,26.5c30.6,0,55.4-11.9,55.4-26.5C166.3,168.3,157.4,160.5,143.6,155.7"/>
				</defs>
				<clipPath id="SVGID_8_">
					<use xlink:href="#SVGID_7_"  style="overflow:visible;"/>
				</clipPath>
				<g class="st3">
					<defs>
						<rect id="SVGID_9_" x="55.4" y="92.5" width="111" height="111"/>
					</defs>
					<clipPath id="SVGID_10_">
						<use xlink:href="#SVGID_9_"  style="overflow:visible;"/>
					</clipPath>
					<rect x="50.4" y="87.5" class="st4" width="120.9" height="120.9"/>
				</g>
			</g>
		</g>
	</g>
</g>
<g>
	<defs>
		<path id="SVGID_11_" d="M173.5,67.1L164,54.3c-0.7-0.9-2-1.1-3-0.5l-4.7,3.5c-0.9,0.7-1.1,2-0.5,3l9.5,12.8
			C166.5,72.7,171.3,70.9,173.5,67.1"/>
	</defs>
	<clipPath id="SVGID_12_">
		<use xlink:href="#SVGID_11_"  style="overflow:visible;"/>
	</clipPath>
	
		<rect x="151.3" y="48.2" transform="matrix(0.9848 -0.1736 0.1736 0.9848 -8.4643 29.5205)" class="st5" width="26.4" height="29.9"/>
</g>
<g>
	<defs>
		
			<rect id="SVGID_13_" x="171.7" y="68.3" transform="matrix(0.9848 -0.1736 0.1736 0.9848 -14.1161 34.4342)" width="36" height="59.2"/>
	</defs>
	<clipPath id="SVGID_14_">
		<use xlink:href="#SVGID_13_"  style="overflow:visible;"/>
	</clipPath>
	<g class="st6">
		<g>
			<defs>
				<rect id="SVGID_15_" x="167.4" y="69.5" width="45" height="57"/>
			</defs>
			<clipPath id="SVGID_16_">
				<use xlink:href="#SVGID_15_"  style="overflow:visible;"/>
			</clipPath>
			<g class="st7">
				<defs>
					<path id="SVGID_17_" d="M211.4,118.4l-35.5-48.1c-0.5,0.8-2.7,3.5-8.2,5.9l35.6,48.3c0.7,0.9,2,1.1,3,0.5l4.7-3.5
						C211.9,120.6,212.1,119.3,211.4,118.4"/>
				</defs>
				<clipPath id="SVGID_18_">
					<use xlink:href="#SVGID_17_"  style="overflow:visible;"/>
				</clipPath>
				<g class="st8">
					<defs>
						<rect id="SVGID_19_" x="166.4" y="65.5" width="47" height="65"/>
					</defs>
					<clipPath id="SVGID_20_">
						<use xlink:href="#SVGID_19_"  style="overflow:visible;"/>
					</clipPath>
					
						<rect x="166.7" y="63.3" transform="matrix(0.9848 -0.1736 0.1736 0.9848 -14.1162 34.4343)" class="st9" width="46" height="69.2"/>
				</g>
			</g>
		</g>
	</g>
</g>
<g>
	<defs>
		<path id="SVGID_21_" d="M151.2,68.4l-2.4,0c0,0-0.1,0-0.1,0l-1.3,2c0,0.1-0.1,0.1-0.2,0c0,0,0,0-0.1-0.1l-0.8-2.3
			c0,0,0-0.1-0.1-0.1l-2.3-0.7c-0.1,0-0.1-0.1-0.1-0.2c0,0,0-0.1,0-0.1l1.9-1.4c0,0,0.1-0.1,0.1-0.1l-0.1-2.4c0-0.1,0.1-0.1,0.1-0.1
			c0,0,0.1,0,0.1,0l2,1.4c0,0,0.1,0,0.1,0l2.2-0.8c0.1,0,0.2,0,0.2,0.1c0,0,0,0.1,0,0.1l-0.7,2.3c0,0,0,0.1,0,0.1l1.4,1.9
			c0.1,0,0.1,0.1,0.1,0.2C151.4,68.4,151.3,68.4,151.2,68.4"/>
	</defs>
	<clipPath id="SVGID_22_">
		<use xlink:href="#SVGID_21_"  style="overflow:visible;"/>
	</clipPath>
	
		<rect x="138.8" y="57.8" transform="matrix(0.9848 -0.1737 0.1737 0.9848 -9.3277 26.6161)" class="st10" width="17.3" height="17.6"/>
</g>
<g>
	<defs>
		<path id="SVGID_23_" d="M153.4,53.4l-4.1,0c-0.1,0-0.1,0-0.2,0.1l-2.3,3.4c-0.1,0.1-0.2,0.1-0.3,0.1c0,0-0.1-0.1-0.1-0.1l-1.3-3.9
			c0-0.1-0.1-0.1-0.2-0.2l-3.9-1.1c-0.1,0-0.2-0.2-0.2-0.3c0,0,0-0.1,0.1-0.1l3.3-2.5c0.1,0,0.1-0.1,0.1-0.2l-0.2-4.1
			c0-0.1,0.1-0.2,0.2-0.2c0,0,0.1,0,0.1,0l3.3,2.4c0.1,0,0.1,0.1,0.2,0l3.8-1.4c0.1,0,0.3,0,0.3,0.1c0,0,0,0.1,0,0.2l-1.2,3.9
			c0,0.1,0,0.2,0,0.2l2.5,3.2c0.1,0.1,0,0.3-0.1,0.3C153.5,53.4,153.5,53.4,153.4,53.4"/>
	</defs>
	<clipPath id="SVGID_24_">
		<use xlink:href="#SVGID_23_"  style="overflow:visible;"/>
	</clipPath>
	
		<rect x="135.8" y="39" transform="matrix(0.9848 -0.1736 0.1736 0.9848 -6.5259 26.2835)" class="st11" width="22.3" height="22.9"/>
</g>
<g>
	<defs>
		<path id="SVGID_25_" d="M142.8,77.9l-1.5,0c0,0-0.1,0-0.1,0l-0.9,1.3c0,0-0.1,0.1-0.1,0.1c0,0,0,0,0,0l-0.5-1.5c0,0,0,0,0-0.1
			l-1.5-0.4c0,0-0.1-0.1-0.1-0.1c0,0,0,0,0-0.1l1.2-0.9c0,0,0,0,0-0.1l-0.1-1.5c0,0,0.1-0.1,0.1-0.1c0,0,0,0,0,0l1.3,0.9
			c0,0,0.1,0,0.1,0l1.5-0.5c0,0,0.1,0,0.1,0c0,0,0,0,0,0.1l-0.5,1.5c0,0,0,0.1,0,0.1l0.9,1.2C142.9,77.8,142.9,77.8,142.8,77.9
			C142.8,77.9,142.8,77.9,142.8,77.9"/>
	</defs>
	<clipPath id="SVGID_26_">
		<use xlink:href="#SVGID_25_"  style="overflow:visible;"/>
	</clipPath>
	
		<rect x="133.1" y="69.4" transform="matrix(0.9848 -0.1736 0.1736 0.9848 -11.1961 25.541)" class="st12" width="14.6" height="14.8"/>
</g>
<g>
	<defs>
		
			<rect id="SVGID_27_" x="156.4" y="33.6" transform="matrix(0.9848 -0.1736 0.1736 0.9848 -4.8089 29.2135)" width="16.2" height="17"/>
	</defs>
	<clipPath id="SVGID_28_">
		<use xlink:href="#SVGID_27_"  style="overflow:visible;"/>
	</clipPath>
	<g class="st13">
		<g>
			<defs>
				<rect id="SVGID_29_" x="156.4" y="33.5" width="18" height="18"/>
			</defs>
			<clipPath id="SVGID_30_">
				<use xlink:href="#SVGID_29_"  style="overflow:visible;"/>
			</clipPath>
			<g class="st14">
				<defs>
					<path id="SVGID_31_" d="M173.1,46l-5.4,0c-0.1,0-0.2,0-0.3,0.1l-3,4.5c-0.1,0.1-0.3,0.2-0.4,0.1c-0.1,0-0.1-0.1-0.1-0.2
						l-1.7-5.1c0-0.1-0.1-0.2-0.2-0.2l-5.2-1.5c-0.2,0-0.3-0.2-0.2-0.4c0-0.1,0.1-0.1,0.1-0.2L161,40c0.1-0.1,0.1-0.2,0.1-0.3
						l-0.2-5.4c0-0.2,0.1-0.3,0.3-0.3c0.1,0,0.1,0,0.2,0.1l4.4,3.1c0.1,0.1,0.2,0.1,0.3,0l5-1.9c0.2-0.1,0.3,0,0.4,0.2
						c0,0.1,0,0.1,0,0.2l-1.6,5.1c0,0.1,0,0.2,0.1,0.3l3.3,4.2c0.1,0.1,0.1,0.3,0,0.4C173.3,46,173.2,46,173.1,46"/>
				</defs>
				<clipPath id="SVGID_32_">
					<use xlink:href="#SVGID_31_"  style="overflow:visible;"/>
				</clipPath>
				<g class="st15">
					<defs>
						<rect id="SVGID_33_" x="154.4" y="31.5" width="20" height="21"/>
					</defs>
					<clipPath id="SVGID_34_">
						<use xlink:href="#SVGID_33_"  style="overflow:visible;"/>
					</clipPath>
					
						<rect x="151.4" y="28.6" transform="matrix(0.9848 -0.1736 0.1736 0.9848 -4.8089 29.2136)" class="st16" width="26.2" height="27"/>
				</g>
			</g>
		</g>
	</g>
</g>
</svg>
