<?xml version="1.0" encoding="utf-8"?>
<!-- Generator: Adobe Illustrator 21.1.0, SVG Export Plug-In . SVG Version: 6.00 Build 0)  -->
<svg version="1.1" id="Layer_1" xmlns="http://www.w3.org/2000/svg" xmlns:xlink="http://www.w3.org/1999/xlink" x="0px" y="0px"
	 viewBox="0 0 255 255" style="enable-background:new 0 0 255 255;" xml:space="preserve">
<style type="text/css">
	.st0{clip-path:url(#SVGID_2_);fill:#3B5998;}
	.st1{clip-path:url(#SVGID_4_);fill:#FFFFFF;}
	.st2{fill:none;stroke:#FFFFFF;stroke-width:2;stroke-miterlimit:10;}
	.st3{clip-path:url(#SVGID_6_);fill:#FFFFFF;}
	.st4{clip-path:url(#SVGID_8_);fill:#FFFFFF;}
	.st5{clip-path:url(#SVGID_10_);fill:#FFFFFF;}
	.st6{clip-path:url(#SVGID_12_);fill:#FFFFFF;}
	.st7{clip-path:url(#SVGID_14_);fill:#FFFFFF;}
	.st8{clip-path:url(#SVGID_16_);fill:#FFFFFF;}
</style>
<g>
	<defs>
		<path id="SVGID_1_" d="M22.5,2.5h210c11,0,20,9,20,20v210c0,11-9,20-20,20h-210c-11,0-20-9-20-20v-210C2.5,11.5,11.5,2.5,22.5,2.5
			z"/>
	</defs>
	<clipPath id="SVGID_2_">
		<use xlink:href="#SVGID_1_"  style="overflow:visible;"/>
	</clipPath>
	<rect x="-2.5" y="-2.5" class="st0" width="260" height="260"/>
</g>
<g>
	<defs>
		<path id="SVGID_3_" d="M105.9,77.2V46.3c0-1.1-0.7-1.9-1.9-1.9c-1.1,0-1.9,0.7-1.9,1.9v30.9c0,1.1,0.7,1.9,1.9,1.9
			C105.1,79.1,105.9,78.3,105.9,77.2z"/>
	</defs>
	<clipPath id="SVGID_4_">
		<use xlink:href="#SVGID_3_"  style="overflow:visible;"/>
	</clipPath>
	<rect x="97.1" y="39.4" class="st1" width="13.7" height="44.6"/>
</g>
<path class="st2" d="M105.9,77.2V46.3c0-1.1-0.7-1.9-1.9-1.9s-1.9,0.7-1.9,1.9v30.9c0,1.1,0.7,1.9,1.9,1.9S105.9,78.3,105.9,77.2z"
	/>
<g>
	<defs>
		<path id="SVGID_5_" d="M79.7,102.8c0-1.1-0.7-1.9-1.9-1.9H46.9c-1.1,0-1.9,0.7-1.9,1.9c0,1.1,0.7,1.9,1.9,1.9h30.9
			C78.9,104.7,79.7,103.9,79.7,102.8z"/>
	</defs>
	<clipPath id="SVGID_6_">
		<use xlink:href="#SVGID_5_"  style="overflow:visible;"/>
	</clipPath>
	<rect x="40.1" y="95.9" class="st3" width="44.6" height="13.7"/>
</g>
<path class="st2" d="M79.7,102.8c0-1.1-0.7-1.9-1.9-1.9H46.9c-1.1,0-1.9,0.7-1.9,1.9c0,1.1,0.7,1.9,1.9,1.9h30.9
	C78.9,104.7,79.7,103.9,79.7,102.8z"/>
<g>
	<defs>
		<path id="SVGID_7_" d="M71.8,68.2c-0.7-0.7-1.9-0.7-2.6,0c-0.7,0.7-0.7,1.9,0,2.6l9.9,9.9c0.4,0.4,0.9,0.6,1.3,0.6
			c0.4,0,0.9-0.2,1.3-0.6c0.7-0.7,0.7-1.9,0-2.6L71.8,68.2z"/>
	</defs>
	<clipPath id="SVGID_8_">
		<use xlink:href="#SVGID_7_"  style="overflow:visible;"/>
	</clipPath>
	<rect x="63.6" y="62.6" class="st4" width="23.7" height="23.7"/>
</g>
<path class="st2" d="M71.8,68.2c-0.7-0.7-1.9-0.7-2.6,0c-0.7,0.7-0.7,1.9,0,2.6l9.9,9.9c0.4,0.4,0.9,0.6,1.3,0.6
	c0.4,0,0.9-0.2,1.3-0.6c0.7-0.7,0.7-1.9,0-2.6L71.8,68.2z"/>
<g>
	<defs>
		<path id="SVGID_9_" d="M128.1,80.9l9.9-9.9c0.7-0.7,0.7-1.9,0-2.6c-0.7-0.7-1.9-0.7-2.6,0l-9.9,9.9c-0.7,0.7-0.7,1.9,0,2.6
			c0.4,0.4,0.9,0.6,1.3,0.6S127.8,81.3,128.1,80.9z"/>
	</defs>
	<clipPath id="SVGID_10_">
		<use xlink:href="#SVGID_9_"  style="overflow:visible;"/>
	</clipPath>
	<rect x="120" y="62.8" class="st5" width="23.7" height="23.7"/>
</g>
<path class="st2" d="M128.1,80.9l9.9-9.9c0.7-0.7,0.7-1.9,0-2.6c-0.7-0.7-1.9-0.7-2.6,0l-9.9,9.9c-0.7,0.7-0.7,1.9,0,2.6
	c0.4,0.4,0.9,0.6,1.3,0.6S127.8,81.3,128.1,80.9z"/>
<g>
	<defs>
		<path id="SVGID_11_" d="M78.7,125.1l-9.9,9.9c-0.7,0.7-0.7,1.9,0,2.6c0.4,0.4,0.9,0.6,1.3,0.6c0.4,0,0.9-0.2,1.3-0.6l9.9-9.9
			c0.7-0.7,0.7-1.9,0-2.6C80.6,124.3,79.5,124.3,78.7,125.1z"/>
	</defs>
	<clipPath id="SVGID_12_">
		<use xlink:href="#SVGID_11_"  style="overflow:visible;"/>
	</clipPath>
	<rect x="63.3" y="119.5" class="st6" width="23.7" height="23.7"/>
</g>
<path class="st2" d="M78.7,125.1l-9.9,9.9c-0.7,0.7-0.7,1.9,0,2.6c0.4,0.4,0.9,0.6,1.3,0.6s0.9-0.2,1.3-0.6l9.9-9.9
	c0.7-0.7,0.7-1.9,0-2.6C80.6,124.3,79.5,124.3,78.7,125.1z"/>
<g>
	<defs>
		<path id="SVGID_13_" d="M184.1,124.9l-78.2-22.1c-0.6-0.2-1.3,0-1.9,0.6c-0.6,0.6-0.7,1.1-0.6,1.9L125,184
			c0.2,0.7,0.9,1.3,1.7,1.3c0,0,0,0,0.2,0c0.7,0,1.5-0.6,1.7-1.1l15.7-40.6l40-15.2c0.7-0.4,1.3-0.9,1.1-1.9
			C185.2,125.7,184.8,125.1,184.1,124.9z"/>
	</defs>
	<clipPath id="SVGID_14_">
		<use xlink:href="#SVGID_13_"  style="overflow:visible;"/>
	</clipPath>
	<rect x="98.4" y="97.8" class="st7" width="92.1" height="92.6"/>
</g>
<g>
	<defs>
		<path id="SVGID_15_" d="M221.3,211.2c0,1.1-0.9,2.1-2.1,2.1h-44.9c-1.1,0-2.1-0.9-2.1-2.1v-44.9c0-1.1,0.9-2.1,2.1-2.1h44.9
			c1.1,0,2.1,0.9,2.1,2.1V211.2z M219.2,161.5h-44.9c-2.7,0-4.9,2.2-4.9,4.9v44.9c0,2.7,2.2,4.9,4.9,4.9h44.9c2.7,0,4.9-2.2,4.9-4.9
			v-44.9C224.1,163.7,221.9,161.5,219.2,161.5z M196.8,198.9c-1.9,0-3.4,1.5-3.4,3.4c0,1.9,1.5,3.4,3.4,3.4c1.9,0,3.4-1.5,3.4-3.4
			C200.2,200.4,198.7,198.9,196.8,198.9z M195.7,192.5h2.3c0.4,0,0.7-0.3,0.7-0.7l1.4-19.2c0-0.4-0.3-0.7-0.7-0.7h-5.1
			c-0.4,0-0.7,0.3-0.7,0.7l1.4,19.2C195,192.2,195.3,192.5,195.7,192.5z"/>
	</defs>
	<clipPath id="SVGID_16_">
		<use xlink:href="#SVGID_15_"  style="overflow:visible;"/>
	</clipPath>
	<rect x="164.5" y="156.5" class="st8" width="64.6" height="64.6"/>
</g>
<path class="st2" d="M221.3,211.2c0,1.1-0.9,2.1-2.1,2.1h-44.9c-1.1,0-2.1-0.9-2.1-2.1v-44.9c0-1.1,0.9-2.1,2.1-2.1h44.9
	c1.1,0,2.1,0.9,2.1,2.1V211.2z M219.2,161.5h-44.9c-2.7,0-4.9,2.2-4.9,4.9v44.9c0,2.7,2.2,4.9,4.9,4.9h44.9c2.7,0,4.9-2.2,4.9-4.9
	v-44.9C224.1,163.7,221.9,161.5,219.2,161.5z M196.8,198.9c-1.9,0-3.4,1.5-3.4,3.4c0,1.9,1.5,3.4,3.4,3.4c1.9,0,3.4-1.5,3.4-3.4
	C200.2,200.4,198.7,198.9,196.8,198.9z M195.7,192.5h2.3c0.4,0,0.7-0.3,0.7-0.7l1.4-19.2c0-0.4-0.3-0.7-0.7-0.7h-5.1
	c-0.4,0-0.7,0.3-0.7,0.7l1.4,19.2C195,192.2,195.3,192.5,195.7,192.5z"/>
</svg>
