<?xml version="1.0" encoding="utf-8"?>
<!-- Generator: Adobe Illustrator 21.1.0, SVG Export Plug-In . SVG Version: 6.00 Build 0)  -->
<svg version="1.1" id="Layer_1" xmlns="http://www.w3.org/2000/svg" xmlns:xlink="http://www.w3.org/1999/xlink" x="0px" y="0px"
	 viewBox="0 0 255 255" style="enable-background:new 0 0 255 255;" xml:space="preserve">
<style type="text/css">
	.st0{clip-path:url(#SVGID_2_);enable-background:new    ;}
	.st1{clip-path:url(#SVGID_4_);}
	.st2{clip-path:url(#SVGID_6_);}
	.st3{clip-path:url(#SVGID_8_);fill:#FFFFFF;}
	.st4{clip-path:url(#SVGID_10_);enable-background:new    ;}
	.st5{clip-path:url(#SVGID_12_);}
	.st6{clip-path:url(#SVGID_14_);}
	.st7{clip-path:url(#SVGID_16_);}
	.st8{fill:#CB1D29;}
	.st9{font-family:'Arial-BoldMT';}
	.st10{font-size:55px;}
</style>
<g>
	<defs>
		<path id="SVGID_1_" d="M22.5,2.5c-11,0-20,9-20,20v210c0,11,9,20,20,20h210c11,0,20-9,20-20v-210c0-11-9-20-20-20H22.5z"/>
	</defs>
	<clipPath id="SVGID_2_">
		<use xlink:href="#SVGID_1_"  style="overflow:visible;"/>
	</clipPath>
	<g class="st0">
		<g>
			<defs>
				<rect id="SVGID_3_" x="2.5" y="2.5" width="250" height="250"/>
			</defs>
			<clipPath id="SVGID_4_">
				<use xlink:href="#SVGID_3_"  style="overflow:visible;"/>
			</clipPath>
			<g class="st1">
				<defs>
					<rect id="SVGID_5_" x="-2.5" y="-2.5" width="260" height="260"/>
				</defs>
				<clipPath id="SVGID_6_">
					<use xlink:href="#SVGID_5_"  style="overflow:visible;"/>
				</clipPath>
				<g class="st2">
					<defs>
						<rect id="SVGID_7_" x="2.5" y="2.5" width="250" height="250"/>
					</defs>
					<clipPath id="SVGID_8_">
						<use xlink:href="#SVGID_7_"  style="overflow:visible;"/>
					</clipPath>
					<rect x="-7.5" y="-7.5" class="st3" width="270" height="270"/>
				</g>
			</g>
		</g>
	</g>
</g>
<g>
	<defs>
		<path id="SVGID_9_" d="M107,58.2c-13.8,3.5-23.6,11.9-30.1,24.3c-3.4,6.4-5.2,13.9-3.9,21.3c1,6,1.4,11.7-2,16.9
			c-2.4,3.7-6.6,7.7-8,12.1c-2.8,3.7,6.9,7,8.9,8.4c4.4,3.7-1.8,7.7-1.5,11.5c0.2,2.6,4.6,0.9,2.3,3.4c-0.8,0.9-1.2,1.7-0.9,2.6
			c0.1,0.3,1.5,1.5,1.8,1.9c1,1.5,0.7,4.1,0.4,5.6c0,4.2-1.5,8.5,4.2,10.7c3.4,1.3,6.8,0.8,10.2,0.4c2-0.3,4-0.5,6-0.5
			c2.5,0.1,4.5,0.5,6.6,2.1c2.6,2,4.9,7.5,5.8,11.6c0.4,1.8,0.9,11.4,2.8,11.4c6,0,12-0.1,18.1-0.1c13.6-0.1,27.2-0.1,40.8-0.2
			c-4-9.7-7.9-23.2-4.7-33.7c3.6-12.9,14.8-22.3,18.6-35.2c4-13.7,5.4-31.4,0.1-44.9c-5-12.8-16.4-23.5-29.3-28.2
			c-7.7-2.8-16.3-4-24.9-4C121,55.6,113.7,56.5,107,58.2z"/>
	</defs>
	<clipPath id="SVGID_10_">
		<use xlink:href="#SVGID_9_"  style="overflow:visible;"/>
	</clipPath>
	<g class="st4">
		<g>
			<defs>
				<rect id="SVGID_11_" x="59.5" y="55.5" width="129" height="147"/>
			</defs>
			<clipPath id="SVGID_12_">
				<use xlink:href="#SVGID_11_"  style="overflow:visible;"/>
			</clipPath>
			<g class="st5">
				<defs>
					<rect id="SVGID_13_" x="57.5" y="50.5" width="133.5" height="156.2"/>
				</defs>
				<clipPath id="SVGID_14_">
					<use xlink:href="#SVGID_13_"  style="overflow:visible;"/>
				</clipPath>
				<g class="st6">
					<defs>
						<rect id="SVGID_15_" x="59.5" y="55.5" width="129" height="147"/>
					</defs>
					<clipPath id="SVGID_16_">
						<use xlink:href="#SVGID_15_"  style="overflow:visible;"/>
					</clipPath>
					<rect x="52.5" y="45.5" class="st7" width="143.5" height="166.2"/>
				</g>
			</g>
		</g>
	</g>
</g>
<text transform="matrix(1 0 0 1 133.7056 112.0547)" class="st8 st9 st10">2</text>
</svg>
