<?xml version="1.0" encoding="utf-8"?>
<!-- Generator: Adobe Illustrator 16.0.0, SVG Export Plug-In . SVG Version: 6.00 Build 0)  -->
<!DOCTYPE svg PUBLIC "-//W3C//DTD SVG 1.1//EN" "http://www.w3.org/Graphics/SVG/1.1/DTD/svg11.dtd" [
	<!ENTITY ns_flows "http://ns.adobe.com/Flows/1.0/">
	<!ENTITY ns_extend "http://ns.adobe.com/Extensibility/1.0/">
	<!ENTITY ns_ai "http://ns.adobe.com/AdobeIllustrator/10.0/">
	<!ENTITY ns_graphs "http://ns.adobe.com/Graphs/1.0/">
]>
<svg version="1.1" id="Layer_1" xmlns:x="&ns_extend;" xmlns:i="&ns_ai;" xmlns:graph="&ns_graphs;"
	 xmlns="http://www.w3.org/2000/svg" xmlns:xlink="http://www.w3.org/1999/xlink" xmlns:a="http://ns.adobe.com/AdobeSVGViewerExtensions/3.0/"
	 x="0px" y="0px" width="864px" height="864px" viewBox="0 0 864 864" enable-background="new 0 0 864 864" xml:space="preserve">
<path fill-rule="evenodd" clip-rule="evenodd" d="M51,473.964c1.152-6.117,2.053-12.295,3.5-18.341
	c7.348-30.692,24.068-55.182,49.534-73.677c9.551-6.935,19.334-13.558,29.158-20.104c5.058-3.371,7.718-7.118,6.15-13.688
	c-2.346-9.83-4.604-19.779-5.636-29.807c-4.177-40.594,4.277-78.098,29.667-110.708c4.662-5.987,11.218-11.017,17.854-14.831
	c10.003-5.749,20.696-3.697,28.682,4.666c12.289,12.868,20.143,28.543,25.46,45.254c12.825,40.302,5.47,77.479-19.499,111.169
	c-4.789,6.461-11.217,11.857-17.462,17.055c-10.405,8.662-15.569,19.169-14.004,32.824c0.376,3.289,0.447,6.715-0.031,9.977
	c-0.813,5.528,1.607,7.196,6.757,8.309c36.272,7.836,60.72,34.477,64.745,70.008c4.31,38.046-15.991,72.69-51.444,87.726
	c-3.052,1.295-6.111,2.861-9.322,3.43c-5.834,1.035-6.727,4.283-6.83,9.719c-0.285,14.945-0.57,29.984-2.455,44.782
	c-2.906,22.819-21.099,37.807-44.285,37.646c-17.419-0.121-32.683-5.669-44.068-19.471c-11.961-14.502-12.521-37.751-1.527-52.61
	c7.745-10.468,21.427-12.802,32.402-5.527c10.303,6.829,12.699,18.746,6.321,30.317c-1.202,2.181-2.871,5.62-1.995,7.095
	c1.48,2.49,4.633,4.806,7.451,5.376c1.674,0.338,4.872-2.391,5.924-4.476c1.596-3.163,2.536-6.944,2.67-10.504
	c0.407-10.808,0.267-21.635,0.394-32.454c0.051-4.365-1.865-6.384-6.318-7.293c-19.035-3.885-37.382-9.568-52.508-22.606
	c-20.834-17.956-34.007-40.136-37.425-67.734c-0.315-2.546-1.226-5.018-1.86-7.522C51,483.297,51,478.63,51,473.964z
	 M146.919,400.464c-5.415,3.062-10.256,5.575-14.875,8.446c-30.466,18.942-45.521,54.438-38.002,84.898
	c6.433,26.066,20.596,45.062,48.109,51.532c5.335,1.255,5.712,1.032,5.715-4.42c0.015-24.808,0.015-49.616-0.011-74.425
	c-0.002-1.745-0.258-3.49-0.424-5.588c-6.813,1.539-11.825,4.84-15.945,9.562c-5.467,6.267-8.706,13.623-10.775,21.636
	c-0.395,1.527-2.249,3.348-3.74,3.693c-1.049,0.244-3.35-1.505-3.854-2.834c-5.325-14.021-6.495-28.101,0.543-41.976
	c6.558-12.93,17.423-21.167,30.277-27.02c3.028-1.378,4.316-3.015,3.991-6.376C147.415,412.313,147.281,406.996,146.919,400.464z
	 M176.248,339.333c17.724-11.968,26.478-28.88,28.24-49.611c1.806-21.244-2.715-41.176-12.947-60.461
	C164.733,260.77,161.678,307.755,176.248,339.333z M186.012,543.806c21.943-4.571,36.946-26.455,33.837-49.987
	c-2.423-18.346-19.795-32.895-33.837-32.76C186.012,488.509,186.012,515.961,186.012,543.806z"/>
<path fill-rule="evenodd" clip-rule="evenodd" d="M526.868,496.963c0,15.033-0.184,29.325,0.042,43.611
	c0.359,22.801,0.664,45.611,1.593,68.394c1.075,26.345-18.942,44.452-42.409,47.789c-13.662,1.941-27.265,0.814-40.111-4.892
	c-13.923-6.185-22.422-16.457-22.941-32.143c-0.527-15.955,6.884-27.4,20.923-34.568c11.659-5.954,24.357-7.497,37.222-8.058
	c2.645-0.114,5.299-0.017,8.768-0.017c0-3.413,0.057-6.504-0.009-9.591c-0.694-32.787-1.372-65.575-2.128-98.362
	c-0.561-24.292-1.268-48.581-1.827-72.873c-0.144-6.228,0.691-6.773,6.886-6.509c34.751,1.482,69.504,2.899,104.256,4.353
	c16.626,0.696,33.255,1.33,49.873,2.186c6.929,0.357,7.37,0.89,7.734,7.58c0.803,14.79,1.386,29.592,2.184,44.382
	c1.549,28.743,3.264,57.478,4.758,86.225c1.346,25.923,3.091,51.845,3.568,77.788c0.594,32.279-22.169,54.496-54.522,54.698
	c-12.372,0.077-24.196-1.996-34.957-8.299c-12.441-7.287-18.44-18.204-17.839-32.746c0.578-13.975,6.672-24.515,19.051-31.147
	c11.433-6.124,23.874-7.881,36.653-7.926c4.285-0.016,8.57-0.003,13.453-0.003c-0.397-5.658-0.75-10.914-1.14-16.167
	c-1.589-21.405-3.269-42.803-4.697-64.218c-0.224-3.346-1.652-4.209-4.567-4.383c-27.904-1.667-55.804-3.403-83.708-5.088
	C530.856,496.852,528.724,496.963,526.868,496.963z M615.692,467.806c-0.001,0.06-0.003,0.118-0.004,0.178
	c1.831,0,3.663,0.001,5.495,0c7.032-0.004,7.28-0.231,6.79-7.423c-0.646-9.464-1.431-18.918-2.032-28.384
	c-0.434-6.82-1.191-7.628-7.972-7.921c-19.286-0.832-38.571-1.689-57.855-2.558c-12.47-0.562-24.938-1.155-37.405-1.745
	c-3.338-0.158-6.159,0.332-5.927,4.659c0.607,11.3,1.287,22.596,1.831,33.899c0.187,3.854,2.234,5.05,5.807,5.203
	C554.846,465.023,585.268,466.429,615.692,467.806z"/>
<path fill-rule="evenodd" clip-rule="evenodd" d="M406.993,269.708c-0.129,2.315-0.307,3.947-0.297,5.578
	c0.169,28.977,0.35,57.954,0.553,86.931c0.215,30.637,0.583,61.274,0.636,91.912c0.027,16.148-5.526,29.975-18.633,40.11
	c-22.227,17.189-61.538,13.499-80.692-7.067c-16.954-18.204-10.061-52.48,16.67-60.357c15.096-4.449,30.181-4.184,45.429-1.503
	c0.619,0.109,1.247,0.167,2.23,0.297c0.295-1.246,0.78-2.314,0.766-3.376c-0.425-32.293-0.932-64.584-1.354-96.877
	c-0.271-20.813-0.418-41.626-0.64-62.44c-0.115-10.818-0.177-21.639-0.452-32.453c-0.119-4.674,1.46-6.791,6.492-7.116
	c11.935-0.771,23.42,0.168,34.821,4.338c24.724,9.044,48.182,20.24,67.831,38.129c11.844,10.784,18.998,23.904,17.657,40.565
	c-0.809,10.032-5.464,18.359-11.634,25.993c-6.458,7.991-13.956,14.805-23.372,19.076c-2.068,0.938-4.89,0.218-7.364,0.261
	c0.398-2.289,0.351-4.779,1.275-6.831c3.199-7.098,7.535-13.777,9.979-21.103c4.952-14.849,0.602-27.102-12.009-36.445
	c-11.87-8.796-25.456-13.541-39.828-16.279C412.626,270.586,410.173,270.233,406.993,269.708z"/>
<path fill-rule="evenodd" clip-rule="evenodd" d="M778.913,424.29c0-13.935,0.117-27.231-0.024-40.523
	c-0.292-27.464-0.716-54.927-1.097-82.39c-0.324-23.468-0.689-46.936-0.981-70.404c-0.079-6.345,0.361-6.74,6.828-6.842
	c7.825-0.123,15.659,0.008,23.477-0.307c4.65-0.187,5.968,1.677,5.984,6.174c0.15,40.458,0.526,80.914,0.777,121.372
	c0.21,33.966,0.389,67.931,0.489,101.897c0.078,26.36-13.393,44.082-38.995,49.961c-20.101,4.616-39.125,1.234-55.614-11.715
	c-12.173-9.562-16.817-22.368-13.644-37.674c3.138-15.128,12.428-24.588,27.197-28.761c13.21-3.732,26.586-3.739,40.041-1.611
	C774.983,423.726,776.621,423.952,778.913,424.29z"/>
</svg>
