<?xml version="1.0" encoding="utf-8"?>
<!-- Generator: Adobe Illustrator 21.1.0, SVG Export Plug-In . SVG Version: 6.00 Build 0)  -->
<svg version="1.1" id="Layer_1" xmlns="http://www.w3.org/2000/svg" xmlns:xlink="http://www.w3.org/1999/xlink" x="0px" y="0px"
	 viewBox="0 0 255 255" style="enable-background:new 0 0 255 255;" xml:space="preserve">
<style type="text/css">
	.st0{clip-path:url(#SVGID_2_);fill:#FFFFFF;}
	.st1{clip-path:url(#SVGID_4_);enable-background:new    ;}
	.st2{clip-path:url(#SVGID_6_);}
	.st3{clip-path:url(#SVGID_8_);}
	.st4{clip-path:url(#SVGID_10_);}
	.st5{clip-path:url(#SVGID_12_);enable-background:new    ;}
	.st6{clip-path:url(#SVGID_14_);}
	.st7{clip-path:url(#SVGID_16_);}
	.st8{clip-path:url(#SVGID_18_);}
	.st9{clip-path:url(#SVGID_20_);enable-background:new    ;}
	.st10{clip-path:url(#SVGID_22_);}
	.st11{clip-path:url(#SVGID_24_);}
	.st12{clip-path:url(#SVGID_26_);}
</style>
<g>
	<defs>
		<path id="SVGID_1_" d="M23,3h209c11,0,20,9,20,20v209c0,11-9,20-20,20H23c-11,0-20-9-20-20V23C3,12,12,3,23,3z"/>
	</defs>
	<clipPath id="SVGID_2_">
		<use xlink:href="#SVGID_1_"  style="overflow:visible;"/>
	</clipPath>
	<rect x="-2" y="-2" class="st0" width="259" height="259"/>
</g>
<g>
	<defs>
		<rect id="SVGID_3_" x="46" y="62.8" width="141.8" height="37.5"/>
	</defs>
	<clipPath id="SVGID_4_">
		<use xlink:href="#SVGID_3_"  style="overflow:visible;"/>
	</clipPath>
	<g class="st1">
		<g>
			<defs>
				<rect id="SVGID_5_" x="46" y="62" width="142" height="39"/>
			</defs>
			<clipPath id="SVGID_6_">
				<use xlink:href="#SVGID_5_"  style="overflow:visible;"/>
			</clipPath>
			<g class="st2">
				<defs>
					<path id="SVGID_7_" d="M180.9,62.8h-109c-3.8,0-6.9,3.1-6.9,6.9v8c-3.3,3.8-9.1,8.5-19,11.3c0,0,9.8,4.8,19,3.6v0.8
						c0,3.8,3.1,6.9,6.9,6.9h109c3.8,0,6.9-3.1,6.9-6.9V69.7C187.8,65.9,184.7,62.8,180.9,62.8"/>
				</defs>
				<clipPath id="SVGID_8_">
					<use xlink:href="#SVGID_7_"  style="overflow:visible;"/>
				</clipPath>
				<g class="st3">
					<defs>
						<rect id="SVGID_9_" x="46" y="62" width="142" height="39"/>
					</defs>
					<clipPath id="SVGID_10_">
						<use xlink:href="#SVGID_9_"  style="overflow:visible;"/>
					</clipPath>
					<rect x="41" y="57.8" class="st4" width="151.8" height="47.5"/>
				</g>
			</g>
		</g>
	</g>
</g>
<g>
	<defs>
		<rect id="SVGID_11_" x="46" y="112.4" width="141.8" height="37.5"/>
	</defs>
	<clipPath id="SVGID_12_">
		<use xlink:href="#SVGID_11_"  style="overflow:visible;"/>
	</clipPath>
	<g class="st5">
		<g>
			<defs>
				<rect id="SVGID_13_" x="46" y="112" width="142" height="38"/>
			</defs>
			<clipPath id="SVGID_14_">
				<use xlink:href="#SVGID_13_"  style="overflow:visible;"/>
			</clipPath>
			<g class="st6">
				<defs>
					<path id="SVGID_15_" d="M180.9,112.4h-109c-3.8,0-6.9,3.1-6.9,6.9v8c-3.3,3.8-9.1,8.5-19,11.3c0,0,9.8,4.8,19,3.6v0.8
						c0,3.8,3.1,6.9,6.9,6.9h109c3.8,0,6.9-3.1,6.9-6.9v-23.6C187.8,115.5,184.7,112.4,180.9,112.4"/>
				</defs>
				<clipPath id="SVGID_16_">
					<use xlink:href="#SVGID_15_"  style="overflow:visible;"/>
				</clipPath>
				<g class="st7">
					<defs>
						<rect id="SVGID_17_" x="46" y="112" width="142" height="38"/>
					</defs>
					<clipPath id="SVGID_18_">
						<use xlink:href="#SVGID_17_"  style="overflow:visible;"/>
					</clipPath>
					<rect x="41" y="107.4" class="st8" width="151.8" height="47.5"/>
				</g>
			</g>
		</g>
	</g>
</g>
<g>
	<defs>
		<rect id="SVGID_19_" x="46" y="161.9" width="141.8" height="37.5"/>
	</defs>
	<clipPath id="SVGID_20_">
		<use xlink:href="#SVGID_19_"  style="overflow:visible;"/>
	</clipPath>
	<g class="st9">
		<g>
			<defs>
				<rect id="SVGID_21_" x="46" y="161" width="142" height="39"/>
			</defs>
			<clipPath id="SVGID_22_">
				<use xlink:href="#SVGID_21_"  style="overflow:visible;"/>
			</clipPath>
			<g class="st10">
				<defs>
					<path id="SVGID_23_" d="M180.9,161.9h-109c-3.8,0-6.9,3.1-6.9,6.9v8c-3.3,3.8-9.1,8.5-19,11.3c0,0,9.8,4.8,19,3.6v0.8
						c0,3.8,3.1,6.9,6.9,6.9h109c3.8,0,6.9-3.1,6.9-6.9v-23.6C187.8,165,184.7,161.9,180.9,161.9"/>
				</defs>
				<clipPath id="SVGID_24_">
					<use xlink:href="#SVGID_23_"  style="overflow:visible;"/>
				</clipPath>
				<g class="st11">
					<defs>
						<rect id="SVGID_25_" x="46" y="161" width="142" height="39"/>
					</defs>
					<clipPath id="SVGID_26_">
						<use xlink:href="#SVGID_25_"  style="overflow:visible;"/>
					</clipPath>
					<rect x="41" y="156.9" class="st12" width="151.8" height="47.5"/>
				</g>
			</g>
		</g>
	</g>
</g>
</svg>
