<?xml version="1.0" encoding="utf-8"?>
<!-- Generator: Adobe Illustrator 21.1.0, SVG Export Plug-In . SVG Version: 6.00 Build 0)  -->
<svg version="1.1" id="Layer_1" xmlns="http://www.w3.org/2000/svg" xmlns:xlink="http://www.w3.org/1999/xlink" x="0px" y="0px"
	 viewBox="0 0 255 255" style="enable-background:new 0 0 255 255;" xml:space="preserve">
<style type="text/css">
	.st0{clip-path:url(#SVGID_2_);fill:#81B6EA;}
	.st1{clip-path:url(#SVGID_4_);fill:#FFFFFF;}
	.st2{clip-path:url(#SVGID_6_);fill:#78ADE0;}
	.st3{fill:none;stroke:#78ADE0;stroke-width:1.5;stroke-miterlimit:10;}
</style>
<g>
	<defs>
		<path id="SVGID_1_" d="M22.5,2.5h210c11,0,20,9,20,20v210c0,11-9,20-20,20h-210c-11,0-20-9-20-20v-210C2.5,11.5,11.5,2.5,22.5,2.5
			z"/>
	</defs>
	<clipPath id="SVGID_2_">
		<use xlink:href="#SVGID_1_"  style="overflow:visible;"/>
	</clipPath>
	<rect x="-2.5" y="-2.5" class="st0" width="260" height="260"/>
</g>
<g>
	<defs>
		<path id="SVGID_3_" d="M50.5,166.5v7.4c0,6.2,5,11.1,11.1,11.1h133.7c6.2,0,11.1-5,11.1-11.1v-7.4H50.5z M70.9,77.4
			c-5.1,0-9.3,4.1-9.3,9.3v76.1h133.7V86.6c0-5.1-4.1-9.3-9.3-9.3H70.9z"/>
	</defs>
	<clipPath id="SVGID_4_">
		<use xlink:href="#SVGID_3_"  style="overflow:visible;"/>
	</clipPath>
	<rect x="45.5" y="72.4" class="st1" width="165.9" height="117.7"/>
</g>
<g>
	<defs>
		<path id="SVGID_5_" d="M106.5,135.2c0.3,0,0.5-0.1,0.7-0.2l5-2.9v5.8c0,0.8,0.7,1.5,1.5,1.5c0.8,0,1.5-0.7,1.5-1.5v-7.5l11.6-6.7
			v13.4l-6.5,3.8c-0.7,0.4-1,1.3-0.5,2c0.3,0.5,0.8,0.7,1.3,0.7c0.3,0,0.5-0.1,0.7-0.2l5-2.9v5.8c0,0.8,0.7,1.5,1.5,1.5
			c0.8,0,1.5-0.7,1.5-1.5v-5.8l5,2.9c0.2,0.1,0.5,0.2,0.7,0.2c0.5,0,1-0.3,1.3-0.7c0.4-0.7,0.2-1.6-0.5-2l-6.5-3.8v-13.4l11.6,6.7
			v7.5c0,0.8,0.7,1.5,1.5,1.5c0.8,0,1.5-0.7,1.5-1.5v-5.8l5,2.9c0.2,0.1,0.5,0.2,0.7,0.2c0.5,0,1-0.3,1.3-0.7c0.4-0.7,0.2-1.6-0.5-2
			l-5-2.9l5-2.9c0.7-0.4,1-1.3,0.5-2c-0.4-0.7-1.3-1-2-0.5l-6.5,3.8l-11.6-6.7l11.6-6.7l6.5,3.8c0.2,0.1,0.5,0.2,0.7,0.2
			c0.5,0,1-0.3,1.3-0.7c0.4-0.7,0.2-1.6-0.5-2l-5-2.9l5-2.9c0.7-0.4,1-1.3,0.5-2c-0.4-0.7-1.3-1-2-0.5l-5,2.9v-5.8
			c0-0.8-0.7-1.5-1.5-1.5c-0.8,0-1.5,0.7-1.5,1.5v7.5l-11.6,6.7v-13.4l6.5-3.8c0.7-0.4,1-1.3,0.5-2c-0.4-0.7-1.3-1-2-0.5l-5,2.9V96
			c0-0.8-0.7-1.5-1.5-1.5c-0.8,0-1.5,0.7-1.5,1.5v5.8l-5-2.9c-0.7-0.4-1.6-0.2-2,0.5c-0.4,0.7-0.2,1.6,0.5,2l6.5,3.8v13.4l-11.6-6.7
			v-7.5c0-0.8-0.7-1.5-1.5-1.5c-0.8,0-1.5,0.7-1.5,1.5v5.8l-5-2.9c-0.7-0.4-1.6-0.2-2,0.5c-0.4,0.7-0.2,1.6,0.5,2l5,2.9l-5,2.9
			c-0.7,0.4-1,1.3-0.5,2c0.3,0.5,0.8,0.7,1.3,0.7c0.3,0,0.5-0.1,0.7-0.2l6.5-3.8l11.6,6.7l-11.6,6.7l-6.5-3.8
			c-0.7-0.4-1.6-0.2-2,0.5c-0.4,0.7-0.2,1.6,0.5,2l5,2.9l-5,2.9c-0.7,0.4-1,1.3-0.5,2C105.5,134.9,106,135.2,106.5,135.2z"/>
	</defs>
	<clipPath id="SVGID_6_">
		<use xlink:href="#SVGID_5_"  style="overflow:visible;"/>
	</clipPath>
	<rect x="100" y="89.5" class="st2" width="56.5" height="63.3"/>
</g>
<path class="st3" d="M106.5,135.2c0.3,0,0.5-0.1,0.7-0.2l5-2.9v5.8c0,0.8,0.7,1.5,1.5,1.5c0.8,0,1.5-0.7,1.5-1.5v-7.5l11.6-6.7v13.4
	l-6.5,3.8c-0.7,0.4-1,1.3-0.5,2c0.3,0.5,0.8,0.7,1.3,0.7c0.3,0,0.5-0.1,0.7-0.2l5-2.9v5.8c0,0.8,0.7,1.5,1.5,1.5
	c0.8,0,1.5-0.7,1.5-1.5v-5.8l5,2.9c0.2,0.1,0.5,0.2,0.7,0.2c0.5,0,1-0.3,1.3-0.7c0.4-0.7,0.2-1.6-0.5-2l-6.5-3.8v-13.4l11.6,6.7v7.5
	c0,0.8,0.7,1.5,1.5,1.5c0.8,0,1.5-0.7,1.5-1.5v-5.8l5,2.9c0.2,0.1,0.5,0.2,0.7,0.2c0.5,0,1-0.3,1.3-0.7c0.4-0.7,0.2-1.6-0.5-2
	l-5-2.9l5-2.9c0.7-0.4,1-1.3,0.5-2c-0.4-0.7-1.3-1-2-0.5l-6.5,3.8l-11.6-6.7l11.6-6.7l6.5,3.8c0.2,0.1,0.5,0.2,0.7,0.2
	c0.5,0,1-0.3,1.3-0.7c0.4-0.7,0.2-1.6-0.5-2l-5-2.9l5-2.9c0.7-0.4,1-1.3,0.5-2c-0.4-0.7-1.3-1-2-0.5l-5,2.9v-5.8
	c0-0.8-0.7-1.5-1.5-1.5c-0.8,0-1.5,0.7-1.5,1.5v7.5l-11.6,6.7v-13.4l6.5-3.8c0.7-0.4,1-1.3,0.5-2c-0.4-0.7-1.3-1-2-0.5l-5,2.9V96
	c0-0.8-0.7-1.5-1.5-1.5c-0.8,0-1.5,0.7-1.5,1.5v5.8l-5-2.9c-0.7-0.4-1.6-0.2-2,0.5c-0.4,0.7-0.2,1.6,0.5,2l6.5,3.8v13.4l-11.6-6.7
	v-7.5c0-0.8-0.7-1.5-1.5-1.5s-1.5,0.7-1.5,1.5v5.8l-5-2.9c-0.7-0.4-1.6-0.2-2,0.5c-0.4,0.7-0.2,1.6,0.5,2l5,2.9l-5,2.9
	c-0.7,0.4-1,1.3-0.5,2c0.3,0.5,0.8,0.7,1.3,0.7c0.3,0,0.5-0.1,0.7-0.2l6.5-3.8l11.6,6.7l-11.6,6.7l-6.5-3.8c-0.7-0.4-1.6-0.2-2,0.5
	c-0.4,0.7-0.2,1.6,0.5,2l5,2.9l-5,2.9c-0.7,0.4-1,1.3-0.5,2C105.5,134.9,106,135.2,106.5,135.2z"/>
</svg>
