<?xml version="1.0" encoding="utf-8"?>
<!-- Generator: Adobe Illustrator 21.1.0, SVG Export Plug-In . SVG Version: 6.00 Build 0)  -->
<svg version="1.1" xmlns="http://www.w3.org/2000/svg" xmlns:xlink="http://www.w3.org/1999/xlink" x="0px" y="0px"
	 viewBox="0 0 255 255" style="enable-background:new 0 0 255 255;" xml:space="preserve">
<style type="text/css">
	.st0{clip-path:url(#SVGID_2_);fill:#FFFFFF;}
	.st1{clip-path:url(#SVGID_4_);fill:#FFFFFF;}
	.st2{clip-path:url(#SVGID_6_);fill:#C0001D;}
	.st3{clip-path:url(#SVGID_8_);enable-background:new    ;}
	.st4{clip-path:url(#SVGID_10_);}
	.st5{clip-path:url(#SVGID_12_);}
	.st6{clip-path:url(#SVGID_14_);}
</style>
<g id="Layer_1">
	<g>
		<g>
			<defs>
				<path id="SVGID_1_" d="M23,3h209c11,0,20,9,20,20v209c0,11-9,20-20,20H23c-11,0-20-9-20-20V23C3,12,12,3,23,3z"/>
			</defs>
			<clipPath id="SVGID_2_">
				<use xlink:href="#SVGID_1_"  style="overflow:visible;"/>
			</clipPath>
			<rect x="-2" y="-2" class="st0" width="259" height="259"/>
		</g>
	</g>
	<g>
		<defs>
			<path id="SVGID_3_" d="M23,3h209c11,0,20,9,20,20v209c0,11-9,20-20,20H23c-11,0-20-9-20-20V23C3,12,12,3,23,3z"/>
		</defs>
		<clipPath id="SVGID_4_">
			<use xlink:href="#SVGID_3_"  style="overflow:visible;"/>
		</clipPath>
		<rect x="-2" y="-2" class="st1" width="259" height="259"/>
	</g>
	<g>
		<defs>
			<polygon id="SVGID_5_" points="121.2,122.7 114.8,168.3 160.9,168.3 166.5,147.3 			"/>
		</defs>
		<clipPath id="SVGID_6_">
			<use xlink:href="#SVGID_5_"  style="overflow:visible;"/>
		</clipPath>
		<rect x="109.8" y="117.7" class="st2" width="61.7" height="55.7"/>
	</g>
	<g>
		<defs>
			<path id="SVGID_7_" d="M38.1,171.6c0.4-1.9,2.2-3.4,4.1-3.5c1.9,0.4,4,1.2,5.8,2.3h159.2l3.3-1.7c2-1.2,4.9-0.3,6,1.8
				c1,2,0,4.9-2.1,5.9c-2.1,1.1-3.9,2.5-6.2,2.7H46.9c-2.1-0.5-4.4-1.6-6.4-2.7C38.8,175.6,37.7,173.5,38.1,171.6z M111.3,100.6
				l4.4-2.2l59.7,32.8L206,141c0,0,10.8,3.4,10.8,14.3c0,11.5-7.6,12.9-14.6,13h-41.3l5.6-21l-8.4-2.2l-6.3,23.3h-9.5l7.9-29.6
				l-8.4-2.3l-8.5,31.8h-9.5l10.2-38.2l-8.4-2.2l-10.8,40.4H49.1c-6.5,0-10.9-6.5-10.9-9v-31.2c3.9,0.2,8,0.1,11.9,0.1
				c2.3,0,4.4-2.1,4.4-4.4c0-2.3-2.1-4.4-4.4-4.4H38.2v-14.3c0-2.3,2.1-6.7,6.5-6.7l8.7,6.7l4.4,4.5l6.5,18l8.7,4.5h24l8.7-4.5
				L111.3,100.6z"/>
		</defs>
		<clipPath id="SVGID_8_">
			<use xlink:href="#SVGID_7_"  style="overflow:visible;"/>
		</clipPath>
		<g class="st3">
			<g>
				<defs>
					<rect id="SVGID_9_" x="37" y="98" width="181" height="82"/>
				</defs>
				<clipPath id="SVGID_10_">
					<use xlink:href="#SVGID_9_"  style="overflow:visible;"/>
				</clipPath>
				<g class="st4">
					<defs>
						<rect id="SVGID_11_" x="33" y="93.4" width="188.9" height="90.7"/>
					</defs>
					<clipPath id="SVGID_12_">
						<use xlink:href="#SVGID_11_"  style="overflow:visible;"/>
					</clipPath>
					<g class="st5">
						<defs>
							<rect id="SVGID_13_" x="37" y="98" width="181" height="82"/>
						</defs>
						<clipPath id="SVGID_14_">
							<use xlink:href="#SVGID_13_"  style="overflow:visible;"/>
						</clipPath>
						<rect x="28" y="88.4" class="st6" width="198.9" height="100.7"/>
					</g>
				</g>
			</g>
		</g>
	</g>
</g>
<g id="Layer_2">
</g>
</svg>
