<?xml version="1.0" encoding="utf-8"?>
<!-- Generator: Adobe Illustrator 21.1.0, SVG Export Plug-In . SVG Version: 6.00 Build 0)  -->
<svg version="1.1" id="Layer_1" xmlns="http://www.w3.org/2000/svg" xmlns:xlink="http://www.w3.org/1999/xlink" x="0px" y="0px"
	 viewBox="0 0 255 255" style="enable-background:new 0 0 255 255;" xml:space="preserve">
<style type="text/css">
	.st0{clip-path:url(#SVGID_2_);enable-background:new    ;}
	.st1{clip-path:url(#SVGID_4_);}
	.st2{clip-path:url(#SVGID_6_);fill:#3B5998;}
	.st3{clip-path:url(#SVGID_8_);fill:#FFFFFF;}
	.st4{clip-path:url(#SVGID_10_);fill:#FFFFFF;}
	.st5{clip-path:url(#SVGID_12_);fill:#FFFFFF;}
	.st6{clip-path:url(#SVGID_14_);fill:#FFFFFF;}
	.st7{clip-path:url(#SVGID_16_);fill:#FFFFFF;}
	.st8{clip-path:url(#SVGID_18_);fill:#FFFFFF;}
</style>
<g>
	<defs>
		<path id="SVGID_1_" d="M22.5,2.5h210c11,0,20,9,20,20v210c0,11-9,20-20,20h-210c-11,0-20-9-20-20v-210C2.5,11.5,11.5,2.5,22.5,2.5
			z"/>
	</defs>
	<clipPath id="SVGID_2_">
		<use xlink:href="#SVGID_1_"  style="overflow:visible;"/>
	</clipPath>
	<g class="st0">
		<g>
			<defs>
				<rect id="SVGID_3_" x="2.5" y="2.5" width="250" height="250"/>
			</defs>
			<clipPath id="SVGID_4_">
				<use xlink:href="#SVGID_3_"  style="overflow:visible;"/>
			</clipPath>
			<g class="st1">
				<defs>
					<rect id="SVGID_5_" x="2.5" y="2.5" width="250" height="250"/>
				</defs>
				<clipPath id="SVGID_6_">
					<use xlink:href="#SVGID_5_"  style="overflow:visible;"/>
				</clipPath>
				<rect x="-2.5" y="-2.5" class="st2" width="260" height="260"/>
			</g>
		</g>
	</g>
</g>
<g>
	<defs>
		
			<rect id="SVGID_7_" x="172.8" y="39.5" transform="matrix(0.5736 -0.8192 0.8192 0.5736 26.5165 168.6982)" width="4.9" height="38.8"/>
	</defs>
	<clipPath id="SVGID_8_">
		<use xlink:href="#SVGID_7_"  style="overflow:visible;"/>
	</clipPath>
	
		<rect x="167.8" y="34.5" transform="matrix(0.5736 -0.8192 0.8192 0.5736 26.5167 168.6985)" class="st3" width="14.9" height="48.8"/>
</g>
<g>
	<defs>
		
			<rect id="SVGID_9_" x="146.4" y="67" transform="matrix(0.5736 -0.8192 0.8192 0.5736 8.9961 167.1301)" width="37.2" height="15.8"/>
	</defs>
	<clipPath id="SVGID_10_">
		<use xlink:href="#SVGID_9_"  style="overflow:visible;"/>
	</clipPath>
	
		<rect x="141.4" y="62" transform="matrix(0.5736 -0.8192 0.8192 0.5736 8.9965 167.1308)" class="st4" width="47.2" height="25.8"/>
</g>
<g>
	<defs>
		
			<rect id="SVGID_11_" x="151.1" y="52" transform="matrix(0.5736 -0.8192 0.8192 0.5736 -8.8736 164.2246)" width="4.4" height="77.2"/>
	</defs>
	<clipPath id="SVGID_12_">
		<use xlink:href="#SVGID_11_"  style="overflow:visible;"/>
	</clipPath>
	
		<rect x="146.1" y="47" transform="matrix(0.5736 -0.8192 0.8192 0.5736 -8.8736 164.2247)" class="st5" width="14.4" height="87.2"/>
</g>
<g>
	<defs>
		
			<rect id="SVGID_13_" x="86.8" y="107" transform="matrix(0.5736 -0.8192 0.8192 0.5736 -47.7059 159.4903)" width="85.1" height="37.2"/>
	</defs>
	<clipPath id="SVGID_14_">
		<use xlink:href="#SVGID_13_"  style="overflow:visible;"/>
	</clipPath>
	
		<rect x="81.8" y="102" transform="matrix(0.5736 -0.8192 0.8192 0.5736 -47.7058 159.4905)" class="st6" width="95.1" height="47.2"/>
</g>
<g>
	<defs>
		
			<rect id="SVGID_15_" x="87.7" y="158.5" transform="matrix(0.5736 -0.8192 0.8192 0.5736 -94.4379 152.5915)" width="23.2" height="17"/>
	</defs>
	<clipPath id="SVGID_16_">
		<use xlink:href="#SVGID_15_"  style="overflow:visible;"/>
	</clipPath>
	
		<rect x="82.7" y="153.5" transform="matrix(0.5736 -0.8192 0.8192 0.5736 -94.4378 152.5911)" class="st7" width="33.2" height="27"/>
</g>
<g>
	<defs>
		
			<rect id="SVGID_17_" x="66.6" y="186.5" transform="matrix(0.5736 -0.8192 0.8192 0.5736 -119.1834 149.452)" width="34.8" height="5.4"/>
	</defs>
	<clipPath id="SVGID_18_">
		<use xlink:href="#SVGID_17_"  style="overflow:visible;"/>
	</clipPath>
	
		<rect x="61.6" y="181.5" transform="matrix(0.5736 -0.8192 0.8192 0.5736 -119.1834 149.4518)" class="st8" width="44.8" height="15.4"/>
</g>
</svg>
