<?xml version="1.0" encoding="utf-8"?>
<!-- Generator: Adobe Illustrator 21.1.0, SVG Export Plug-In . SVG Version: 6.00 Build 0)  -->
<svg version="1.1" id="Layer_1" xmlns="http://www.w3.org/2000/svg" xmlns:xlink="http://www.w3.org/1999/xlink" x="0px" y="0px"
	 viewBox="0 0 255 255" style="enable-background:new 0 0 255 255;" xml:space="preserve">
<style type="text/css">
	.st0{clip-path:url(#SVGID_2_);fill:#3B5998;}
	.st1{clip-path:url(#SVGID_4_);enable-background:new    ;}
	.st2{clip-path:url(#SVGID_6_);}
	.st3{clip-path:url(#SVGID_8_);}
	.st4{clip-path:url(#SVGID_10_);fill:#FFFFFF;}
</style>
<g>
	<defs>
		<path id="SVGID_1_" d="M22.5,2.5h210c11,0,20,9,20,20v210c0,11-9,20-20,20h-210c-11,0-20-9-20-20v-210C2.5,11.5,11.5,2.5,22.5,2.5
			z"/>
	</defs>
	<clipPath id="SVGID_2_">
		<use xlink:href="#SVGID_1_"  style="overflow:visible;"/>
	</clipPath>
	<rect x="-2.5" y="-2.5" class="st0" width="260" height="260"/>
</g>
<g>
	<defs>
		
			<rect id="SVGID_3_" x="43.7" y="77.2" transform="matrix(8.715601e-02 -0.9962 0.9962 8.715601e-02 -9.0219 246.5476)" width="172.6" height="101.9"/>
	</defs>
	<clipPath id="SVGID_4_">
		<use xlink:href="#SVGID_3_"  style="overflow:visible;"/>
	</clipPath>
	<g class="st1">
		<g>
			<defs>
				<rect id="SVGID_5_" x="71.5" y="43.5" width="116" height="167"/>
			</defs>
			<clipPath id="SVGID_6_">
				<use xlink:href="#SVGID_5_"  style="overflow:visible;"/>
			</clipPath>
			<g class="st2">
				<defs>
					<path id="SVGID_7_" d="M71.9,207.6c3.5-5.5,7-11.1,10.5-16.6c3.1-4.9,6.2-9.9,9.3-14.9c-1.8-1.2-3.5-2.3-5.4-3.4
						c3.5-5.7,7-11.2,10.5-16.9c-2.9-1.8-5.7-3.6-8.6-5.4c14.8-23.6,29.4-47.1,44.2-70.7c-5.6-3.5-11.1-7-16.8-10.5
						c0.7-1.2,1.3-2.2,2.1-3.5c8.8,5.5,17.5,11,26.4,16.5c6-9.6,12-19.1,18-28.8c-3.4-2.1-6.7-4.2-10-6.3c0.6-1.2,1.1-2.3,1.7-3.4
						l1.1,0.1c0.4,0.3,0.8,0.7,1.2,1c6.9,4.4,13.9,8.7,20.8,13c3.2,2,6.5,3.9,9.7,5.8l-0.1,1.1c-0.6,0.9-1.2,1.7-1.9,2.6
						c-3.1-1.9-6.1-3.8-9.2-5.7c-6.1,9.7-12,19.2-18,28.7c1.4,0.9,2.6,1.7,3.9,2.5c7.2,4.4,14.3,8.9,21.5,13.3L183,107
						c-0.7,0.9-1.4,1.8-2.2,2.8c-5.5-3.4-11-6.9-16.7-10.4c-14.7,23.5-29.4,47-44.2,70.7c-2.9-1.8-5.6-3.5-8.6-5.4
						c-3.5,5.6-7,11.1-10.6,16.8c-1.8-1.1-3.5-2.1-5.5-3.3c-6.6,10.6-13.2,21.3-19.9,31.9l-3.6-0.3L71.9,207.6z M136,81.7
						c-14.1,22.5-28,44.8-42.1,67.3c8.3,5.2,16.4,10.3,24.7,15.5c14.1-22.5,28.1-44.8,42.1-67.3C152.4,92,144.3,86.9,136,81.7z
						 M136,81.7c-14.1,22.5-28,44.8-42.1,67.3c8.3,5.2,16.4,10.3,24.7,15.5c14.1-22.5,28.1-44.8,42.1-67.3
						C152.4,92,144.3,86.9,136,81.7z"/>
				</defs>
				<clipPath id="SVGID_8_">
					<use xlink:href="#SVGID_7_"  style="overflow:visible;"/>
				</clipPath>
				<g class="st3">
					<defs>
						<rect id="SVGID_9_" x="71.5" y="37.5" width="117" height="182"/>
					</defs>
					<clipPath id="SVGID_10_">
						<use xlink:href="#SVGID_9_"  style="overflow:visible;"/>
					</clipPath>
					
						<rect x="38.7" y="72.2" transform="matrix(8.715593e-02 -0.9962 0.9962 8.715593e-02 -9.0217 246.5478)" class="st4" width="182.6" height="111.9"/>
				</g>
			</g>
		</g>
	</g>
</g>
</svg>
