<?xml version="1.0" encoding="utf-8"?>
<!-- Generator: Adobe Illustrator 21.1.0, SVG Export Plug-In . SVG Version: 6.00 Build 0)  -->
<svg version="1.1" id="Layer_1" xmlns="http://www.w3.org/2000/svg" xmlns:xlink="http://www.w3.org/1999/xlink" x="0px" y="0px"
	 viewBox="0 0 255 255" style="enable-background:new 0 0 255 255;" xml:space="preserve">
<style type="text/css">
	.st0{clip-path:url(#SVGID_2_);}
	.st1{clip-path:url(#SVGID_4_);fill:#D0001B;}
</style>
<g>
	<defs>
		<path id="SVGID_1_" d="M22.5,2.5h210c11,0,20,9,20,20v210c0,11-9,20-20,20h-210c-11,0-20-9-20-20v-210C2.5,11.5,11.5,2.5,22.5,2.5
			z"/>
	</defs>
	<clipPath id="SVGID_2_">
		<use xlink:href="#SVGID_1_"  style="overflow:visible;"/>
	</clipPath>
	<rect x="-2.5" y="-2.5" class="st0" width="260" height="260"/>
</g>
<g>
	<defs>
		<path id="SVGID_3_" d="M146.6,68.7c-7.5,0-14,2.6-17,7.9v108.9c3.2-4.8,9.7-6.3,17-6.3h60.3V68.7H146.6z M43.5,68.7v110.5h60.3
			c7.3,0,13.9,1.5,17,6.3V76.5c-3.1-5.2-9.6-7.9-17-7.9H43.5z"/>
	</defs>
	<clipPath id="SVGID_4_">
		<use xlink:href="#SVGID_3_"  style="overflow:visible;"/>
	</clipPath>
	<rect x="38.5" y="63.7" class="st1" width="173.4" height="126.7"/>
</g>
</svg>
