<?xml version="1.0" encoding="utf-8"?>
<!-- Generator: Adobe Illustrator 21.1.0, SVG Export Plug-In . SVG Version: 6.00 Build 0)  -->
<svg version="1.1" id="Layer_1" xmlns="http://www.w3.org/2000/svg" xmlns:xlink="http://www.w3.org/1999/xlink" x="0px" y="0px"
	 viewBox="0 0 255 255" style="enable-background:new 0 0 255 255;" xml:space="preserve">
<style type="text/css">
	.st0{clip-path:url(#SVGID_2_);fill:#DC473A;}
	.st1{clip-path:url(#SVGID_4_);fill:#FFFFFF;}
</style>
<g>
	<defs>
		<path id="SVGID_1_" d="M23,3h209c11,0,20,9,20,20v209c0,11-9,20-20,20H23c-11,0-20-9-20-20V23C3,12,12,3,23,3z"/>
	</defs>
	<clipPath id="SVGID_2_">
		<use xlink:href="#SVGID_1_"  style="overflow:visible;"/>
	</clipPath>
	<rect x="-2" y="-2" class="st0" width="259" height="259"/>
</g>
<g>
	<defs>
		<path id="SVGID_3_" d="M126.8,136.6l40,40c-10.2,10.2-24.5,16.6-40,16.6c-31.1,0-56.6-25.5-56.6-56.6c0-15.5,6.4-29.8,16.6-40
			C97,86.4,111.2,80,126.8,80V136.6z M126.8,199.2c-34.6,0-62.7-28-62.7-62.7c0-34.6,28-62.7,62.7-62.7s62.7,28,62.7,62.7
			C189.4,171.2,161.4,199.2,126.8,199.2z M136,68.3v-3.6c3.3,0,6.1-2.8,6.1-6.1s-2.8-6.1-6.1-6.1h-18.3c-3.3,0-6.1,2.8-6.1,6.1
			s2.8,6.1,6.1,6.1v3.6C84,72.9,58,101.7,58,136.6c0,38,30.8,68.8,68.8,68.8s68.8-30.8,68.8-68.8C195.6,101.7,169.6,72.9,136,68.3z"
			/>
	</defs>
	<clipPath id="SVGID_4_">
		<use xlink:href="#SVGID_3_"  style="overflow:visible;"/>
	</clipPath>
	<rect x="53" y="47.5" class="st1" width="147.6" height="162.8"/>
</g>
</svg>
