<?xml version="1.0" encoding="utf-8"?>
<!-- Generator: Adobe Illustrator 21.1.0, SVG Export Plug-In . SVG Version: 6.00 Build 0)  -->
<svg version="1.1" id="Layer_1" xmlns="http://www.w3.org/2000/svg" xmlns:xlink="http://www.w3.org/1999/xlink" x="0px" y="0px"
	 viewBox="0 0 255 255" style="enable-background:new 0 0 255 255;" xml:space="preserve">
<style type="text/css">
	.st0{clip-path:url(#SVGID_2_);fill:#5B80CF;}
	.st1{clip-path:url(#SVGID_4_);fill:#FFFFFF;}
	.st2{clip-path:url(#SVGID_6_);fill:#FFFFFF;}
	.st3{clip-path:url(#SVGID_8_);fill:#FFFFFF;}
	.st4{clip-path:url(#SVGID_10_);fill:#FFFFFF;}
	.st5{clip-path:url(#SVGID_12_);fill:#FFFFFF;}
</style>
<g>
	<defs>
		<path id="SVGID_1_" d="M22.5,2.5h210c11,0,20,9,20,20v210c0,11-9,20-20,20h-210c-11,0-20-9-20-20v-210C2.5,11.5,11.5,2.5,22.5,2.5
			z"/>
	</defs>
	<clipPath id="SVGID_2_">
		<use xlink:href="#SVGID_1_"  style="overflow:visible;"/>
	</clipPath>
	<rect x="-2.5" y="-2.5" class="st0" width="260" height="260"/>
</g>
<g>
	<defs>
		<path id="SVGID_3_" d="M186.3,174.2H64.9c-10,0-18.2,8.1-18.2,18.2c0,10,8.1,18.2,18.2,18.2h121.4c10,0,18.2-8.1,18.2-18.2
			C204.5,182.3,196.4,174.2,186.3,174.2z"/>
	</defs>
	<clipPath id="SVGID_4_">
		<use xlink:href="#SVGID_3_"  style="overflow:visible;"/>
	</clipPath>
	<rect x="41.8" y="169.2" class="st1" width="167.7" height="46.3"/>
</g>
<g>
	<defs>
		<path id="SVGID_5_" d="M179.5,63.4c8.8,0,16,7.1,16,16c0,1.8-1.4,3.3-3.3,3.3c-1.8,0-3.3-1.4-3.3-3.3c0-5.3-4.3-9.5-9.5-9.5
			c-1.8,0-3.3-1.4-3.3-3.3S177.7,63.4,179.5,63.4z M179.5,104.5c13.9,0,25-11.3,25-25c0-13.8-11.3-25-25-25c-13.9,0-25,11.3-25,25
			C154.4,93.2,165.6,104.5,179.5,104.5z"/>
	</defs>
	<clipPath id="SVGID_6_">
		<use xlink:href="#SVGID_5_"  style="overflow:visible;"/>
	</clipPath>
	<rect x="149.4" y="49.4" class="st2" width="60.1" height="60.1"/>
</g>
<g>
	<defs>
		<path id="SVGID_7_" d="M121.1,111.8c0.9,0,1.6-0.4,2.3-1l23.4-23.4c1.3-1.3,1.3-3.3,0-4.5c-1.3-1.3-3.3-1.3-4.5,0l-23.5,23.5
			c-1.3,1.3-1.3,3.3,0,4.5C119.4,111.6,120.2,111.8,121.1,111.8z"/>
	</defs>
	<clipPath id="SVGID_8_">
		<use xlink:href="#SVGID_7_"  style="overflow:visible;"/>
	</clipPath>
	<rect x="112.8" y="77" class="st3" width="39.9" height="39.9"/>
</g>
<g>
	<defs>
		<path id="SVGID_9_" d="M128.8,130c0.6,0.6,1.5,1,2.3,1c0.8,0,1.6-0.4,2.3-1l23.4-23.4c1.3-1.3,1.3-3.3,0-4.5
			c-1.3-1.3-3.3-1.3-4.5,0l-23.4,23.4C127.5,126.7,127.5,128.7,128.8,130z"/>
	</defs>
	<clipPath id="SVGID_10_">
		<use xlink:href="#SVGID_9_"  style="overflow:visible;"/>
	</clipPath>
	<rect x="122.8" y="96.1" class="st4" width="39.8" height="39.9"/>
</g>
<g>
	<defs>
		<path id="SVGID_11_" d="M171.2,112l-23.4,23.5c-1.3,1.3-1.3,3.3,0,4.5c0.6,0.6,1.5,1,2.3,1c0.9,0,1.6-0.4,2.3-1l23.4-23.4
			c1.3-1.3,1.3-3.3,0-4.5C174.6,110.7,172.4,110.7,171.2,112z"/>
	</defs>
	<clipPath id="SVGID_12_">
		<use xlink:href="#SVGID_11_"  style="overflow:visible;"/>
	</clipPath>
	<rect x="141.8" y="106" class="st5" width="39.8" height="40"/>
</g>
</svg>
