<?xml version="1.0" encoding="utf-8"?>
<!-- Generator: Adobe Illustrator 21.1.0, SVG Export Plug-In . SVG Version: 6.00 Build 0)  -->
<svg version="1.1" id="Layer_1" xmlns="http://www.w3.org/2000/svg" xmlns:xlink="http://www.w3.org/1999/xlink" x="0px" y="0px"
	 viewBox="0 0 255 255" style="enable-background:new 0 0 255 255;" xml:space="preserve">
<style type="text/css">
	.st0{clip-path:url(#SVGID_2_);}
	.st1{clip-path:url(#SVGID_4_);fill:#D50D1C;}
</style>
<g>
	<defs>
		<path id="SVGID_1_" d="M22.5,2.5h210c11,0,20,9,20,20v210c0,11-9,20-20,20h-210c-11,0-20-9-20-20v-210C2.5,11.5,11.5,2.5,22.5,2.5
			z"/>
	</defs>
	<clipPath id="SVGID_2_">
		<use xlink:href="#SVGID_1_"  style="overflow:visible;"/>
	</clipPath>
	<rect x="-2.5" y="-2.5" class="st0" width="260" height="260"/>
</g>
<g>
	<defs>
		<path id="SVGID_3_" d="M165.7,150.8c-0.8,1.8-2.8,2.5-4.6,1.8l-37.2-16.3c-1.3-0.6-2.1-1.9-2.1-3.2c0,0,0,0,0,0V92.4
			c0-1.9,1.5-3.5,3.5-3.5c1.9,0,3.5,1.6,3.5,3.5v38.4l35.2,15.4C165.6,147,166.4,149,165.7,150.8z M73.7,93.6
			c-0.1-0.1-0.2-0.2-0.3-0.3c0.1,0.1,0.2,0.1,0.4,0.2C73.8,93.5,73.8,93.6,73.7,93.6z M180.8,99.4c6.8-7.1,9.3-17.8,5.5-27.6
			c-4-10.1-13.5-16.6-24.4-16.6c-3.3,0-6.5,0.6-9.5,1.8c-6.2,2.4-11.1,7-14,12.9c-4.3-0.9-8.7-1.3-13.2-1.3c-4.5,0-9,0.5-13.3,1.3
			c-4.4-9-13.3-14.8-23.5-14.8c-3.3,0-6.5,0.6-9.5,1.8c-6.5,2.6-11.6,7.5-14.4,13.9c-2.8,6.4-2.9,13.5-0.4,20
			c1.3,3.3,3.2,6.1,5.5,8.5c-6.4,10.1-10.2,22.1-10.2,35c0,36.3,29.5,65.8,65.8,65.8c36.3,0,65.8-29.5,65.8-65.8
			C191,121.5,187.2,109.5,180.8,99.4z"/>
	</defs>
	<clipPath id="SVGID_4_">
		<use xlink:href="#SVGID_3_"  style="overflow:visible;"/>
	</clipPath>
	<rect x="54.5" y="50.2" class="st1" width="141.5" height="154.9"/>
</g>
</svg>
