<?xml version="1.0" encoding="iso-8859-1"?>
<!-- Generator: Adobe Illustrator 16.0.0, SVG Export Plug-In . SVG Version: 6.00 Build 0)  -->
<!DOCTYPE svg PUBLIC "-//W3C//DTD SVG 1.1//EN" "http://www.w3.org/Graphics/SVG/1.1/DTD/svg11.dtd">
<svg version="1.1" id="Capa_1" xmlns="http://www.w3.org/2000/svg" xmlns:xlink="http://www.w3.org/1999/xlink" x="0px" y="0px"
	 width="500.834px" height="500.834px" viewBox="0 0 500.834 500.834" style="enable-background:new 0 0 500.834 500.834;"
	 xml:space="preserve">
<g>
	<g>
		<path d="M25.974,197.999c0.02,9.59,0.17,19.172,0.285,28.757h-9.562C7.592,226.755,0,234.352,0,243.452
			c0,9.097,7.592,16.694,16.697,16.694h9.889c0.132,10.516,0.292,21.022,0.312,31.539c0.048,21.53,33.441,21.535,33.395,0
			c-0.068-31.229-0.858-62.454-0.926-93.691C59.321,176.468,25.926,176.468,25.974,197.999z"/>
		<path d="M393.3,162.75c0.681,21.226,1.274,42.457,2.041,63.672c-97.41-2.173-194.57,10.991-291.953,5.637
			c-0.566-21.559-1.272-43.117-2.288-64.67c-1.008-21.439-34.406-21.539-33.393,0c2.679,56.861,3.651,113.754,3.712,170.678
			c0.021,21.53,33.416,21.536,33.396,0c-0.028-24.196-0.267-48.388-0.683-72.574c97.601,5.271,194.981-7.968,292.61-5.642
			c1.138,23.933,2.641,47.845,4.905,71.721c2.017,21.247,35.425,21.439,33.394,0c-5.322-56.142-6.551-112.487-8.349-168.822
			C426.012,141.275,392.614,141.207,393.3,162.75z"/>
		<path d="M479.768,224.572c4.428-0.683,0.122-0.048-0.696,0.025c-1.274,0.114-2.563,0.16-3.854,0.218
			c-0.96,0.041-1.92,0.02-2.885,0.036c-0.741-11.397-1.238-22.811-1.111-34.267c0.243-21.543-33.149-21.522-33.394,0
			c-0.411,36.336,5.185,72.272,6.495,108.529c0.771,21.47,34.175,21.546,33.393,0c-0.497-13.721-1.604-27.391-2.772-41.061
			c4.565-0.213,9.104-0.568,13.7-1.274c9.014-1.392,13.863-12.543,11.664-20.541C497.688,226.707,488.761,223.188,479.768,224.572z"
			/>
	</g>
</g>
<g>
</g>
<g>
</g>
<g>
</g>
<g>
</g>
<g>
</g>
<g>
</g>
<g>
</g>
<g>
</g>
<g>
</g>
<g>
</g>
<g>
</g>
<g>
</g>
<g>
</g>
<g>
</g>
<g>
</g>
</svg>
