<?xml version="1.0" encoding="utf-8"?>
<!-- Generator: Adobe Illustrator 22.0.1, SVG Export Plug-In . SVG Version: 6.00 Build 0)  -->
<svg version="1.1" id="Layer_1" xmlns="http://www.w3.org/2000/svg" xmlns:xlink="http://www.w3.org/1999/xlink" x="0px" y="0px"
	 viewBox="0 0 255 255" style="enable-background:new 0 0 255 255;" xml:space="preserve">
<style type="text/css">
	.st0{clip-path:url(#SVGID_2_);fill:#FFFFFF;}
	.st1{clip-path:url(#SVGID_4_);fill:#FFFFFF;}
</style>
<g>
	<g>
		<g>
			<g>
				<defs>
					<path id="SVGID_1_" d="M23,3h209c11,0,20,9,20,20v209c0,11-9,20-20,20H23c-11,0-20-9-20-20V23C3,12,12,3,23,3z"/>
				</defs>
				<clipPath id="SVGID_2_">
					<use xlink:href="#SVGID_1_"  style="overflow:visible;"/>
				</clipPath>
				<rect x="-2" y="-2" class="st0" width="259" height="259"/>
			</g>
		</g>
	</g>
	<g>
		<g>
			<defs>
				<path id="SVGID_3_" d="M23,3h209c11,0,20,9,20,20v209c0,11-9,20-20,20H23c-11,0-20-9-20-20V23C3,12,12,3,23,3z"/>
			</defs>
			<clipPath id="SVGID_4_">
				<use xlink:href="#SVGID_3_"  style="overflow:visible;"/>
			</clipPath>
			<rect x="-2" y="-2" class="st1" width="259" height="259"/>
		</g>
	</g>
	<path d="M128.6,24.1c-58.7,0-106.4,47.6-106.4,106.4s47.6,106.4,106.4,106.4S235,189.2,235,130.5S187.4,24.1,128.6,24.1z
		 M97.1,120.1c-3,1.4-6,2.4-9,3v53.6c0,3.5-2.8,6.3-6.3,6.3c-3.5,0-6.3-2.8-6.3-6.3v-53.5c-3-0.6-6.1-1.6-9.1-3.1
		c0-13.3,0-26.6,0-40H70l1.3,31.8h2.8l1.3-31.8h3.6l1.3,31.8H83l1.3-31.8h3.9l1.3,31.8h2.8l1.3-31.8h3.6
		C97.1,93.4,97.1,106.7,97.1,120.1z M163,137.1L163,137.1c-1,11.4-9.6,26.2-29,38.1l-3.2,1.9l-3.2-1.9c-19.5-11.8-28-26.6-29-38.1
		l0,0c-0.4-4.4,0.3-8.4,1.9-11.7c1.7-3.7,4.5-6.5,8.2-8.2c5.7-2.7,13.4-2.5,22.1,2.3c8.7-4.7,16.4-5,22.1-2.3
		c3.6,1.7,6.4,4.6,8.2,8.2C162.7,128.7,163.4,132.7,163,137.1z M191,176.6c0,3.5-2.8,6.3-6.3,6.3s-6.3-2.8-6.3-6.3v-34l-11.2-6.4
		c1.7-21.2,5.9-40.7,12.7-58.2c3.7,0.2,7.4,0.5,11.1,0.7C191,111.4,191,144,191,176.6z"/>
</g>
</svg>
