<svg xmlns="http://www.w3.org/2000/svg" viewBox="0 0 860 300"><defs><style>.cls-1,.cls-3{fill:#fffdfd;}.cls-2{fill:#415d67;}.cls-3{font-size:130.29px;font-family:'.SF NS Display', Roboto;}.cls-4{letter-spacing:0em;}.cls-5{letter-spacing:0em;}</style></defs><title>Artboard 1</title><g id="Layer_3" data-name="Layer 3"><rect class="cls-1" width="300" height="300"/></g><g id="Layer_1" data-name="Layer 1"><path id="path3" class="cls-2" d="M273,172.66V127.34l-28.4-4.44c-1.77-6.22-4.44-12.44-9.76-22.21l16.86-23.1L219.7,44.71l-24,16.88c-8-4.44-16-8-22.19-9.77L170,23.39H124.74l-4.44,28.43c-8,1.78-14.2,4.44-22.19,9.77L75,44.71,42.21,77.59l16,23.1c-4.44,8-6.21,14.22-9.76,22.21l-26.62,3.55v45.31l28.4,4.44c1.77,8,4.44,14.22,9.76,22.21l-16,23.1L76.82,254.4l24-16C107,242,115,244.63,123,248.18l4.44,28.43h47l4.44-28.43c8-1.78,14.2-4.44,22.19-9.77l24,16.88L257,222.41l-16.86-23.1c4.44-8,8-16,9.76-22.21C249,177.1,273,172.66,273,172.66Zm-126,23.1c-26.62,0-47-20.44-47-47.09s20.41-47.09,47-47.09,47,20.44,47,47.09S173.55,195.76,146.93,195.76Z"/><g id="Layer_2" data-name="Layer 2"><rect class="cls-2" x="300" width="560" height="300"/></g><text class="cls-3" transform="translate(339.73 201.21)">S<tspan class="cls-4" x="79.6" y="0">e</tspan><tspan class="cls-5" x="155.04" y="0">t</tspan><tspan x="196.34" y="0">tings</tspan></text></g></svg>