<?xml version="1.0" encoding="UTF-8" standalone="no"?>
<!DOCTYPE svg PUBLIC "-//W3C//DTD SVG 1.1//EN" "http://www.w3.org/Graphics/SVG/1.1/DTD/svg11.dtd">
<svg width="100%" height="100%" viewBox="0 0 87 87" version="1.1" xmlns="http://www.w3.org/2000/svg" xmlns:xlink="http://www.w3.org/1999/xlink" xml:space="preserve" style="fill-rule:evenodd;clip-rule:evenodd;stroke-linejoin:round;stroke-miterlimit:1.41421;">
    <g transform="matrix(1,0,0,1,-7,-959.362)">
        <path d="M44,959.362L41,969.8C38.285,970.548 35.739,971.624 33.344,972.987L23.844,967.706L15.344,976.206L20.625,985.706C19.262,988.101 18.186,990.647 17.437,993.362L7,996.362L7,1008.36L17.437,1011.36C18.186,1014.08 19.262,1016.62 20.625,1019.02L15.344,1028.52L23.844,1037.02L33.344,1031.74C35.739,1033.1 38.285,1034.18 41,1034.92L44,1045.36L56,1045.36L59,1034.92C61.715,1034.18 64.261,1033.1 66.656,1031.74L76.156,1037.02L84.656,1028.52L79.375,1019.02C80.738,1016.62 81.814,1014.08 82.563,1011.36L93,1008.36L93,996.362L82.563,993.362C81.814,990.647 80.738,988.101 79.375,985.706L84.656,976.206L76.156,967.706L66.656,972.987C64.261,971.624 61.715,970.548 59,969.8L56,959.362L44,959.362L44,959.362ZM50,982.362C61.046,982.362 70,991.317 70,1002.36C70,1013.41 61.046,1022.36 50,1022.36C38.954,1022.36 30,1013.41 30,1002.36C30,991.317 38.954,982.362 50,982.362L50,982.362Z" style="fill-rule:nonzero;"/>
    </g>
</svg>
