<?xml version="1.0" encoding="utf-8"?>
<!-- Generator: Adobe Illustrator 21.1.0, SVG Export Plug-In . SVG Version: 6.00 Build 0)  -->
<svg version="1.1" id="Layer_1" xmlns="http://www.w3.org/2000/svg" xmlns:xlink="http://www.w3.org/1999/xlink" x="0px" y="0px"
	 viewBox="0 0 255 255" style="enable-background:new 0 0 255 255;" xml:space="preserve">
<style type="text/css">
	.st0{clip-path:url(#SVGID_2_);fill:#7CAD3E;}
	.st1{clip-path:url(#SVGID_4_);fill:#FFFFFF;}
	.st2{clip-path:url(#SVGID_6_);fill:#FFFFFF;}
	.st3{clip-path:url(#SVGID_8_);fill:#FFFFFF;}
</style>
<g>
	<defs>
		<path id="SVGID_1_" d="M22.5,2.5h210c11,0,20,9,20,20v210c0,11-9,20-20,20h-210c-11,0-20-9-20-20v-210C2.5,11.5,11.5,2.5,22.5,2.5
			z"/>
	</defs>
	<clipPath id="SVGID_2_">
		<use xlink:href="#SVGID_1_"  style="overflow:visible;"/>
	</clipPath>
	<rect x="-2.5" y="-2.5" class="st0" width="260" height="260"/>
</g>
<g>
	<defs>
		<path id="SVGID_3_" d="M92.8,115.8l-4-11.1c-0.2-0.6-0.7-0.9-1.3-0.9c-0.6,0-1.1,0.4-1.3,0.9l-3.8,11.1l-11.8,0.3
			c-0.6,0-1.1,0.4-1.3,1c-0.2,0.6,0,1.2,0.5,1.6l9.4,7.2l-3.3,11.3c-0.2,0.6,0,1.2,0.5,1.6c0.5,0.4,1.1,0.4,1.6,0l9.7-6.7l9.6,6.7
			c0.5,0.3,1.1,0.3,1.6,0c0.5-0.4,0.7-1,0.5-1.6L96,125.8l9.3-7.2c0.5-0.4,0.7-1,0.5-1.6c-0.2-0.6-0.7-1-1.3-1L92.8,115.8z"/>
	</defs>
	<clipPath id="SVGID_4_">
		<use xlink:href="#SVGID_3_"  style="overflow:visible;"/>
	</clipPath>
	<rect x="64.2" y="98.7" class="st1" width="46.7" height="45.1"/>
</g>
<g>
	<defs>
		<path id="SVGID_5_" d="M148.4,116.1l-11.8-0.3l-4-11.1c-0.2-0.5-0.7-0.9-1.3-0.9c-0.6,0-1.1,0.4-1.3,0.9l-3.9,11.1l-11.8,0.3
			c-0.6,0-1.1,0.4-1.3,1c-0.2,0.6,0,1.2,0.5,1.6l9.3,7.2l-3.3,11.3c-0.2,0.6,0,1.2,0.5,1.6c0.5,0.4,1.1,0.4,1.6,0l9.7-6.7l9.7,6.7
			c0.5,0.3,1.1,0.3,1.6,0c0.5-0.4,0.7-1,0.5-1.6l-3.4-11.3l9.3-7.2c0.5-0.4,0.7-1,0.5-1.6S148.9,116.1,148.4,116.1L148.4,116.1z"/>
	</defs>
	<clipPath id="SVGID_6_">
		<use xlink:href="#SVGID_5_"  style="overflow:visible;"/>
	</clipPath>
	<rect x="108" y="98.8" class="st2" width="46.7" height="45.1"/>
</g>
<g>
	<defs>
		<path id="SVGID_7_" d="M192.2,116.1l-11.8-0.3l-4-11.1c-0.2-0.6-0.7-0.9-1.3-0.9c-0.6,0-1.1,0.4-1.3,0.9l-3.9,11.1l-11.8,0.3
			c-0.6,0.1-1.1,0.5-1.2,1c-0.1,0.6,0.1,1.2,0.6,1.5l9.3,7.2l-3.3,11.3c-0.2,0.6,0,1.2,0.5,1.6c0.5,0.4,1.1,0.4,1.6,0l9.7-6.7
			l9.7,6.7c0.5,0.3,1.1,0.3,1.6,0c0.5-0.4,0.7-1,0.5-1.6l-3.4-11.3l9.3-7.2c0.5-0.4,0.7-1,0.5-1.6
			C193.4,116.5,192.9,116.1,192.2,116.1L192.2,116.1z"/>
	</defs>
	<clipPath id="SVGID_8_">
		<use xlink:href="#SVGID_7_"  style="overflow:visible;"/>
	</clipPath>
	<rect x="151.9" y="98.7" class="st3" width="46.8" height="45.1"/>
</g>
</svg>
