<?xml version="1.0" encoding="utf-8"?>
<!-- Generator: Adobe Illustrator 21.1.0, SVG Export Plug-In . SVG Version: 6.00 Build 0)  -->
<svg version="1.1" id="Layer_1" xmlns="http://www.w3.org/2000/svg" xmlns:xlink="http://www.w3.org/1999/xlink" x="0px" y="0px"
	 viewBox="0 0 255 255" style="enable-background:new 0 0 255 255;" xml:space="preserve">
<style type="text/css">
	.st0{clip-path:url(#SVGID_2_);}
	.st1{clip-path:url(#SVGID_4_);fill:#FFFFFF;}
</style>
<g>
	<defs>
		<path id="SVGID_1_" d="M22.5,2.5h210c11,0,20,9,20,20v210c0,11-9,20-20,20h-210c-11,0-20-9-20-20v-210C2.5,11.5,11.5,2.5,22.5,2.5
			z"/>
	</defs>
	<clipPath id="SVGID_2_">
		<use xlink:href="#SVGID_1_"  style="overflow:visible;"/>
	</clipPath>
	<rect x="-2.5" y="-2.5" class="st0" width="260" height="260"/>
</g>
<g>
	<defs>
		<path id="SVGID_3_" d="M164,127.8l-18.3,34.1c0,0.2-7.2,14.3-21.4,14.3c-1.3,0-5.7-0.2-6.9-0.4c-16.4-3.1-20.6-17.9-20.6-18.1
			l-12-37.4c-0.2-0.6-1.1-2.7-0.6-4.8c0.4-1.1,1.3-2.1,2.9-2.9c1.5-0.8,3.1-1,4.2-0.2c1.9,0.8,2.5,2.7,2.5,2.7
			c2.9,7.6,6.1,14.3,7.4,14.5c0.2,0,0.4-0.4,0.6-0.6c0.6-1.1,0-3.2-0.2-3.8l-5.7-23.7c0-0.4-2.3-7.6,2.3-9.5c1.3-0.4,2.7-0.4,3.8,0
			c1.9,1.1,2.7,3.2,2.7,3.2l7.4,25c0.4,1.1,1,3.8,2.1,3.6c0.2,0,0.4-0.2,0.6-0.4c0.4-0.6,0.4-2.7,0.4-2.7l-2.3-29.4
			c-0.4-2.5-0.2-7.2,4.6-8.2c1.9-0.4,3.4-0.2,4.6,0.6c1.9,1.3,2.3,3.6,2.3,3.8c0,0,2.3,26.1,2.9,31.1c0.2,2.9,0.6,3.8,1,3.8
			c1.5,0,1.9-2.9,1.9-2.9l3.1-23.7c0-0.6,0.2-3.8,2.1-5.5c1.1-0.8,2.3-1.1,3.6-1c1.7,0.2,3.1,0.8,3.8,1.9c1.1,1.5,1,3.6,0.8,3.8
			l-3.2,33.2c0,1.3,0.4,5.3,2.3,5.7c2.5,0.4,3.8-1.7,3.8-1.7l7.8-11.4c1.3-1.5,4.8-4,8-1.5C165.5,121.7,164.7,125.9,164,127.8z
			 M197.3,79.5l-66-38.1c-4.2-2.5-9.5-2.5-13.7,0l-66,38.1c-4.2,2.5-6.9,7.1-6.9,11.8v76.3c0,5,2.7,9.5,6.9,11.8l66,38.1
			c2.1,1.1,4.4,1.9,6.9,1.9c2.5,0,4.8-0.6,6.9-1.9l66-38.1c4.2-2.5,6.9-7.1,6.9-11.8V91.4C204.2,86.6,201.5,82,197.3,79.5z"/>
	</defs>
	<clipPath id="SVGID_4_">
		<use xlink:href="#SVGID_3_"  style="overflow:visible;"/>
	</clipPath>
	<rect x="39.7" y="34.5" class="st1" width="169.5" height="190"/>
</g>
</svg>
